<svg width="41" height="40" viewBox="0 0 41 40" fill="none" xmlns="http://www.w3.org/2000/svg">
<mask id="mask0_17_431" style="mask-type:luminance" maskUnits="userSpaceOnUse" x="0" y="1" width="41" height="38">
<path d="M28.8986 10.2386C28.8986 15.0331 24.9945 18.9372 20.2 18.9372C15.4054 18.9372 11.5013 15.0331 11.5013 10.2386C11.5013 5.44409 15.4054 1.53998 20.2 1.53998C25.063 1.53998 28.8986 5.3756 28.8986 10.2386ZM8.89858 21.0605C4.10406 21.0605 0.199951 24.9646 0.199951 29.7592C0.199951 34.5537 4.10406 38.4578 8.89858 38.4578C13.6931 38.4578 17.5972 34.5537 17.5972 29.7592C17.5972 24.9646 13.7616 21.0605 8.89858 21.0605ZM31.5013 21.0605C26.7068 21.0605 22.8027 24.9646 22.8027 29.7592C22.8027 34.5537 26.7068 38.4578 31.5013 38.4578C36.2958 38.4578 40.2 34.5537 40.2 29.7592C40.2 24.9646 36.3643 21.0605 31.5013 21.0605Z" fill="white"/>
</mask>
<g mask="url(#mask0_17_431)">
<path d="M20.1999 1.12903C32.3232 1.12903 42.1177 10.9235 42.1177 23.0468C42.1177 35.1701 32.3232 44.9646 20.1999 44.9646C8.07662 44.9646 -1.7179 35.1701 -1.7179 23.0468C-1.6494 10.9235 8.14512 1.12903 20.1999 1.12903Z" fill="url(#paint0_radial_17_431)"/>
</g>
<defs>
<radialGradient id="paint0_radial_17_431" cx="0" cy="0" r="1" gradientUnits="userSpaceOnUse" gradientTransform="translate(20.2259 23.0276) rotate(-90) scale(21.9091)">
<stop stop-color="#FFB900"/>
<stop offset="0.6" stop-color="#F95D8F"/>
<stop offset="0.9991" stop-color="#F95353"/>
</radialGradient>
</defs>
</svg>
