<svg width="40" height="40" viewBox="0 0 40 40" fill="none" xmlns="http://www.w3.org/2000/svg">
<path d="M6.0423 14.3163V7.72558L12.4471 12.6837C14.6828 14.4372 15.1057 16.9163 15.0453 16.8558C13.5952 15.0419 11.6616 14.2558 10.3323 14.2558L6.0423 14.3163Z" fill="#FF9C6C"/>
<path d="M23.2628 15.707H18.4894V33H23.2628V15.707Z" fill="#FF5A0A"/>
<path d="M31.6012 7.54419H26.8278V33H31.6012V7.54419Z" fill="#FF5A0A"/>
<path d="M40 7.54419H35.2266V33H40V7.54419Z" fill="#FF5A0A"/>
<path d="M10.2115 27.014C10.2115 27.8 9.54683 28.4047 8.76133 28.4047H4.71299V20.1814H8.76133C9.54683 20.1814 10.2115 20.786 10.2115 21.5721V27.014ZM4.77341 15.707V7.54419H0V33H9.96979C12.7492 33 15.0453 30.6419 15.0453 27.6791V21.0279C15.0453 18.0651 12.7492 15.707 9.96979 15.707H4.77341Z" fill="#FF5A0A"/>
<path d="M20.8459 13.2884C22.5812 13.2884 23.9879 11.8807 23.9879 10.1442C23.9879 8.4077 22.5812 7 20.8459 7C19.1106 7 17.7039 8.4077 17.7039 10.1442C17.7039 11.8807 19.1106 13.2884 20.8459 13.2884Z" fill="#FF5A0A"/>
</svg>
