<svg width="40" height="40" viewBox="0 0 40 40" fill="none" xmlns="http://www.w3.org/2000/svg">
<path d="M28.8074 28.8016V39.0289C28.8074 39.5661 28.3738 40 27.8369 40H0.970573C0.43366 40 0 39.5661 0 39.0289V12.1694C0 11.6322 0.43366 11.1984 0.970573 11.1984H11.1719V27.8306C11.1719 28.3678 11.6056 28.8016 12.1425 28.8016H28.8074Z" fill="#4C00FF"/>
<path d="M39.9999 14.3802C39.9999 22.9752 34.9819 28.781 28.8074 28.8017V17.9752C28.8074 17.6653 28.6835 17.3554 28.4563 17.1488L22.8394 11.529C22.6122 11.3017 22.3231 11.1777 22.0134 11.1777H11.1925V0.971128C11.1925 0.433939 11.6262 5.51621e-05 12.1631 5.51621e-05H27.2999C34.4863 -0.020606 39.9999 5.76451 39.9999 14.3802Z" fill="#FF5252"/>
<path d="M28.4563 17.1281C28.6835 17.3554 28.8074 17.6447 28.8074 17.9546V28.781H12.1631C11.6262 28.781 11.1925 28.3471 11.1925 27.8099V11.1777H22.0134C22.3231 11.1777 22.6329 11.3017 22.8394 11.529L28.4563 17.1281Z" fill="black"/>
</svg>
