<svg width="40" height="40" viewBox="0 0 40 40" fill="none" xmlns="http://www.w3.org/2000/svg">
<path fill-rule="evenodd" clip-rule="evenodd" d="M36.4975 2.88602C36.4975 2.96866 36.4687 3.04877 36.4163 3.11281L22.582 20L36.4163 36.8868C36.4687 36.9507 36.4975 37.031 36.4975 37.1135V39.6412C36.4975 39.8394 36.3363 40 36.1372 40H3.86023C3.66128 40 3.5 39.8394 3.5 39.6412V0.358744C3.5 0.160615 3.66128 0 3.86023 0H36.1372C36.3363 0 36.4975 0.160615 36.4975 0.358744V2.88602ZM9.40276 36.0874H30.6913L20.0467 23.0944L9.40276 36.0874ZM7.42865 32.3076L15.9473 21.9096H7.42865V32.3076ZM7.42865 17.9972H15.871L7.42865 7.69191V17.9972ZM20.0467 16.9052L30.6913 3.91243H9.40276L20.0467 16.9052Z" fill="#0143D9"/>
</svg>
