<svg width="40" height="40" viewBox="0 0 40 40" fill="none" xmlns="http://www.w3.org/2000/svg">
<path d="M3.02405 32.8539L4.78809 35.9231C5.15464 36.5692 5.68156 37.0769 6.30011 37.4462L12.6002 26.4615H0C0 27.1769 0.183276 27.8923 0.549828 28.5385L3.02405 32.8539Z" fill="#0066DA"/>
<path d="M20 13.5384L13.6999 2.55383C13.0813 2.92306 12.5544 3.43076 12.1879 4.07691L0.549828 24.3846C0.190017 25.0168 0.000479067 25.7328 0 26.4615H12.6002L20 13.5384Z" fill="#00AC47"/>
<path d="M33.6998 37.4462C34.3184 37.0769 34.8453 36.5692 35.2119 35.9231L35.945 34.6539L39.4501 28.5385C39.8167 27.8923 40 27.1769 40 26.4615H27.3988L30.0801 31.7692L33.6998 37.4462Z" fill="#EA4335"/>
<path d="M19.9999 13.5385L26.3001 2.55385C25.6815 2.18462 24.9713 2 24.2382 2H15.7617C15.0286 2 14.3184 2.20769 13.6998 2.55385L19.9999 13.5385Z" fill="#00832D"/>
<path d="M27.3998 26.4615H12.6003L6.30017 37.4462C6.91873 37.8154 7.62892 38 8.36203 38H31.6381C32.3712 38 33.0814 37.7923 33.6999 37.4462L27.3998 26.4615Z" fill="#2684FC"/>
<path d="M33.6312 14.2308L27.8121 4.07691C27.4456 3.43076 26.9187 2.92306 26.3001 2.55383L20 13.5384L27.3998 26.4615H39.9771C39.9771 25.7461 39.7938 25.0308 39.4273 24.3846L33.6312 14.2308Z" fill="#FFBA00"/>
</svg>
