<svg width="40" height="40" viewBox="0 0 40 40" fill="none" xmlns="http://www.w3.org/2000/svg">
<g clip-path="url(#clip0_17_11)">
<path d="M30.5264 9.47362L21.0528 8.42102L9.47382 9.47362L8.42102 20L9.47362 30.5264L20 31.8422L30.5264 30.5264L31.579 19.737L30.5264 9.47362Z" fill="white"/>
<path d="M13.7922 25.8052C13.0054 25.2736 12.4606 24.4974 12.1632 23.471L13.9896 22.7184C14.1554 23.35 14.4448 23.8394 14.858 24.1868C15.2686 24.5342 15.7686 24.7052 16.3528 24.7052C16.9502 24.7052 17.4634 24.5236 17.8922 24.1604C18.321 23.7972 18.537 23.334 18.537 22.7736C18.537 22.2 18.3106 21.7314 17.858 21.3684C17.4054 21.0054 16.837 20.8236 16.158 20.8236H15.1028V19.0158H16.05C16.6342 19.0158 17.1264 18.858 17.5264 18.5422C17.9264 18.2264 18.1264 17.7948 18.1264 17.2448C18.1264 16.7554 17.9474 16.3658 17.5896 16.0738C17.2318 15.7818 16.779 15.6344 16.229 15.6344C15.6922 15.6344 15.2658 15.7766 14.95 16.0634C14.6342 16.3502 14.4052 16.7028 14.2606 17.1186L12.4528 16.366C12.6922 15.687 13.1318 15.087 13.7764 14.5686C14.4212 14.0502 15.2448 13.7896 16.2448 13.7896C16.9842 13.7896 17.65 13.9318 18.2396 14.2186C18.829 14.5054 19.2922 14.9028 19.6264 15.408C19.9606 15.9158 20.1264 16.4844 20.1264 17.1158C20.1264 17.7606 19.9712 18.3052 19.6606 18.7526C19.35 19.2 18.9684 19.542 18.5158 19.7816V19.8894C19.1132 20.1394 19.6 20.521 19.9842 21.0342C20.3658 21.5474 20.5578 22.1606 20.5578 22.8764C20.5578 23.5922 20.3762 24.2316 20.013 24.7922C19.6498 25.3528 19.1472 25.7948 18.5104 26.1158C17.871 26.4368 17.1526 26.6 16.3552 26.6C15.4316 26.6026 14.579 26.3368 13.7922 25.8052Z" fill="#1A73E8"/>
<path d="M25 16.7422L23.0052 18.1922L22.0026 16.6712L25.6 14.0764H26.979V26.3158H25V16.7422Z" fill="#1A73E8"/>
<path d="M30.5263 40L39.9999 30.5264L35.2631 28.4212L30.5263 30.5264L28.4211 35.2632L30.5263 40Z" fill="#EA4335"/>
<path d="M7.36841 35.2632L9.47361 40H30.5262V30.5264H9.47361L7.36841 35.2632Z" fill="#34A853"/>
<path d="M3.1578 0C1.4132 0 0 1.4132 0 3.1578V30.5262L4.7368 32.6314L9.4736 30.5262V9.4736H30.5262L32.6314 4.7368L30.5264 0H3.1578Z" fill="#4285F4"/>
<path d="M0 30.5264V36.8422C0 38.587 1.4132 40 3.1578 40H9.4736V30.5264H0Z" fill="#188038"/>
<path d="M30.5264 9.47361V30.5262H40V9.47361L35.2632 7.36841L30.5264 9.47361Z" fill="#FBBC04"/>
<path d="M40 9.4736V3.1578C40 1.413 38.5868 0 36.8422 0H30.5264V9.4736H40Z" fill="#1967D2"/>
</g>
<defs>
<clipPath id="clip0_17_11">
<rect width="40" height="40" fill="white"/>
</clipPath>
</defs>
</svg>
