<svg width="40" height="40" viewBox="0 0 40 40" fill="none" xmlns="http://www.w3.org/2000/svg">
<path d="M35.8477 33.8621C34.946 34.8316 34.1735 35.4187 33.7477 35.6994C33.5475 35.827 33.4222 36.0054 33.247 36.1585C32.3203 36.9239 31.3159 37.1517 30.6147 37.6875C29.663 38.4018 26.1074 39.2513 25.0971 39.5491C23.3875 39.9215 21.464 40.0559 19.3602 39.9793C18.905 39.9793 18.484 39.9792 18.0971 39.9503C17.9399 39.9386 17.7824 39.9773 17.6248 39.9792C17.6186 39.9793 17.6127 39.9793 17.6072 39.9793C17.5904 39.9793 17.5626 39.9679 17.5235 39.9451C17.4791 39.9192 17.429 39.9027 17.377 39.9027C17.3634 39.9027 17.3497 39.9015 17.3363 39.8998C17.1243 39.8719 17.0115 39.9432 16.9299 39.9828C16.8682 40.0128 16.8009 39.9877 16.7425 39.9521C16.5575 39.8396 16.1448 39.5867 16.0044 39.5457C15.8659 39.5054 15.8523 39.5605 15.7788 39.5729C15.7295 39.5812 15.6782 39.5646 15.6411 39.5324C15.5996 39.4963 15.5552 39.4443 15.4533 39.3924C15.2659 39.297 15.1662 39.5138 14.8877 39.2711C14.8473 39.2359 14.8235 39.1666 14.769 39.1633C14.7553 39.1624 14.7454 39.1617 14.7319 39.1591C14.4516 39.107 13.9423 39.0072 13.6 38.9076C13.1993 38.8055 13.3241 38.7292 13.1488 38.6526C10.7945 37.8107 7.43864 36.152 6.2114 34.9784C5.76061 34.5446 5.2347 33.5495 4.90908 33.2943C4.65861 33.0902 4.15759 32.682 4.03235 32.4779C3.93218 32.2993 4.03217 31.9678 3.85692 31.7381C3.63151 31.4574 3.18059 31.3042 2.75482 30.6664C2.27897 29.952 2.00349 29.008 1.52766 28.0384C1.12692 27.1965 9.55498e-06 24.4408 0 19.4145C0 16.0465 1.62798 11.3771 2.32927 10.7392C2.77993 10.331 2.72981 9.4381 3.0553 9.00436C6.77092 4.0545 13.2742 0.412907 21.0133 0.0301701C21.3278 0.0147074 21.6425 0.00506509 21.9574 0.00154337C23.8667 -0.0198153 25.7803 0.18032 27.636 0.613985C29.4899 1.04726 31.2623 1.72338 32.99 2.49201C32.99 2.49201 33.1951 2.50759 33.2492 2.53304C33.3393 2.5755 33.3774 2.65283 33.4675 2.69536C33.5576 2.73782 33.6879 2.7018 33.7863 2.72111C34.1108 2.78477 34.1691 2.96944 34.2289 3.04301C34.3015 3.13234 34.3888 3.16648 34.5538 3.21187C34.9843 3.33027 35.0409 3.46658 35.0995 3.52935C35.1462 3.57954 35.1666 3.6446 35.1899 3.70291C35.2136 3.7622 35.2607 3.81633 35.3267 3.83116C35.4693 3.86318 35.6633 4.03049 35.7034 4.25873C35.7296 4.40752 35.8975 4.47163 35.8516 4.75075C35.8368 4.84116 35.9372 4.97482 35.4093 5.47357C34.8814 5.97232 33.7736 6.2867 33.0992 6.03897C30.7678 5.1826 30.4221 5.01778 29.4856 4.77303C27.7759 4.32623 26.3193 4.02265 24.545 4.05464C21.7148 4.10568 19.4854 4.36084 16.8056 5.25386C15.6308 5.65274 13.4131 6.73818 12.3003 7.5834C11.1874 8.42862 9.57628 9.59606 8.91134 10.6767C8.67849 11.0552 8.41644 11.4166 7.86546 12.0034C7.06402 12.8454 6.13636 15.2808 5.83576 16.4545C5.76061 16.7097 5.96066 16.9904 5.86052 17.2456C5.76033 17.5262 5.28443 17.6541 5.23434 17.8837C5.03401 18.7001 5.0841 19.7461 5.0841 20.6391C5.0841 21.1238 5.23448 21.7871 5.40978 22.1698C5.53498 22.425 5.93591 22.6037 5.986 22.8588C6.01102 23.0373 5.76087 23.2414 5.76065 23.3945C5.76065 23.522 5.98582 25.2574 6.11107 25.5126C6.28647 25.8187 6.83753 26.2013 6.98781 26.5585C7.08794 26.8136 6.81219 27.0689 7.01255 27.3241C7.13777 27.4772 7.53883 27.477 7.68911 27.6811C7.88943 27.9362 8.31506 28.6759 8.51547 28.9057C8.66575 29.0843 8.94128 29.1611 9.0665 29.2377C9.44207 29.4928 9.11677 29.7222 9.46732 30.1049C10.5693 31.3041 12.2725 32.7842 13.9005 33.4476C14.1516 33.5499 16.7288 34.4929 16.8807 34.4935C20.5121 35.0067 24.5964 34.9586 28.1279 33.0705C28.9545 32.6366 33.6367 29.5182 34.4131 25.8187C34.5884 25.0788 34.8138 23.2925 34.7137 22.578C34.3129 19.9245 32.6066 16.1078 29.4789 14.6943C27.8127 13.9413 26.5485 13.9543 26.2229 14.0053C25.2713 14.1839 24.9456 13.648 24.0691 13.7245C21.3892 13.9287 18.7594 14.6432 16.7057 16.7099C14.8272 18.6235 14.4512 21.0729 15.403 22.6293C15.5031 22.8334 15.4531 23.0886 15.2527 23.2162C15.1651 23.2672 15.0837 23.331 15.0462 23.398C14.9715 23.5312 15.1875 23.6023 15.3364 23.6523C16.3782 24.0016 16.7539 25.686 18.133 25.6146H18.4335C18.4335 25.6146 19.0097 25.6144 19.2351 25.3593C19.4204 25.1496 19.4196 24.9054 19.2882 24.7968C19.2297 24.7483 19.1557 24.7194 19.1385 24.6471C19.1195 24.5674 19.1101 24.4625 19.11 24.4154C19.11 24.3644 19.1852 24.3386 19.1852 24.2875C19.1851 24.1345 19.0099 24.0069 19.0349 23.8539C19.051 23.7724 19.1691 23.6597 19.2523 23.5756C19.3156 23.5117 19.3165 23.4303 19.2751 23.3516C19.2736 23.3488 19.2721 23.3459 19.2706 23.343C19.2305 23.2641 19.223 23.1703 19.2503 23.0865C19.266 23.0383 19.285 22.9869 19.2851 22.9354C19.3101 22.7058 19.2103 22.6037 19.1852 22.4252C19.1852 22.3622 19.5419 22.2124 19.6677 22.1188C19.7048 22.0912 19.7088 22.0451 19.6965 22.0016C19.6705 21.909 19.6359 21.8803 19.6359 21.7108C19.6359 21.6701 19.6719 21.613 19.715 21.5593C19.802 21.4509 19.882 21.3354 19.9213 21.2039L19.9905 20.9724C20.0195 20.8756 20.0962 20.7986 20.1958 20.7665C20.3684 20.7109 20.2884 20.4413 20.4528 20.3662C20.5006 20.3444 20.6207 20.3721 20.8132 20.3329C21.2137 20.2564 20.9383 20.1288 21.0133 19.9247C21.0484 19.7998 21.157 19.8122 21.2619 19.8221C21.3461 19.8302 21.4281 19.8037 21.4886 19.7471C21.5482 19.6915 21.6083 19.6263 21.6894 19.5931C21.791 19.5518 22.0573 19.5438 22.2479 19.5423C22.3263 19.5416 22.4042 19.5309 22.4821 19.5221C22.6948 19.4981 22.9966 19.5123 23.1424 19.4911C23.3176 19.4655 23.4178 19.3125 23.568 19.3124C23.6932 19.3124 23.8688 19.5165 23.994 19.5165C24.1192 19.5164 24.2444 19.4145 24.3696 19.4145C24.4447 19.4145 24.4698 19.5419 24.5949 19.5419H24.6449C24.6449 19.5419 25.7972 19.5673 26.9993 20.2817C27.8259 20.7665 28.4271 21.9403 28.4271 21.9403C29.0031 22.8844 28.3641 23.8549 28.3641 24.7224C28.3641 25.0796 28.4892 25.3857 28.4141 25.7175C28.3639 25.9726 28.1635 26.1769 28.0883 26.381C28.0133 26.5596 28.0134 26.7893 27.7631 27.1208C27.5628 27.4014 27.4623 27.4013 27.4122 27.4523C27.3371 27.5289 26.6886 28.4686 26.2628 28.8259C25.1357 29.7954 24.094 30.0794 22.5662 30.1049C21.89 30.1304 21.8148 30.2582 21.7146 30.2582C21.3639 30.2837 19.7614 30.2073 19.2603 30.1307C19.2603 30.1307 17.0314 29.7225 16.1546 29.3143C15.6788 29.1102 12.5478 26.8902 11.8465 25.64C9.66752 21.7107 10.1686 17.5263 12.4227 14.7197C14.0507 12.6785 16.7305 10.0249 23.092 9.51459C26.323 9.25945 29.2036 9.66783 31.4577 10.6884C34.6384 12.1173 36.9677 14.6431 38.4203 17.6284C40.8998 22.7313 40.7566 28.504 35.8477 33.8621Z" fill="#577000"/>
</svg>
