<svg width="40" height="40" viewBox="0 0 40 40" fill="none" xmlns="http://www.w3.org/2000/svg">
<path d="M27.176 11.8849C27.176 13.8162 26.3589 15.5246 25.0218 16.8617C23.5362 18.3473 21.3821 18.7187 21.3821 19.9814C21.3821 21.6899 24.1305 21.1699 26.7674 23.8069C28.513 25.5525 29.5901 27.8552 29.5901 30.5292C29.5901 35.8032 25.3561 40 20.045 40C14.734 40 10.5 35.8032 10.5 30.5292C10.5 27.8552 11.5771 25.5525 13.3227 23.8069C15.9596 21.1699 18.708 21.6899 18.708 19.9814C18.708 18.7187 16.5539 18.3473 15.0682 16.8617C13.7312 15.5246 12.9141 13.8162 12.9141 11.8106C12.9141 7.948 16.071 4.82823 19.9336 4.82823C20.6764 4.82823 21.3449 4.93965 21.902 4.93965C22.9048 4.93965 23.4248 4.49396 23.4248 3.7883C23.4248 3.37976 23.2391 2.8598 23.2391 2.30269C23.2391 1.03993 24.3162 0 25.6161 0C26.916 0 27.9559 1.07707 27.9559 2.37697C27.9559 3.75116 26.8788 4.38254 26.0617 4.67967C25.3932 4.90251 24.8733 5.19963 24.8733 5.86815C24.8733 7.13092 27.176 8.35655 27.176 11.8849ZM26.4331 30.5292C26.4331 26.8524 23.7219 23.8812 20.045 23.8812C16.3682 23.8812 13.6569 26.8524 13.6569 30.5292C13.6569 34.169 16.3682 37.1773 20.045 37.1773C23.7219 37.1773 26.4331 34.169 26.4331 30.5292ZM24.2419 11.8106C24.2419 9.47075 22.3477 7.53946 20.045 7.53946C17.7423 7.53946 15.8482 9.47075 15.8482 11.8106C15.8482 14.1504 17.7423 16.0817 20.045 16.0817C22.3477 16.0817 24.2419 14.1504 24.2419 11.8106Z" fill="#23A47F"/>
</svg>
