<svg width="40" height="40" viewBox="0 0 40 40" fill="none" xmlns="http://www.w3.org/2000/svg">
<path fill-rule="evenodd" clip-rule="evenodd" d="M29.6875 9.83897V14.2269H29.6805C33.7307 14.8409 36.9661 17.8578 37.796 21.7942C38.626 25.7307 36.876 29.7586 33.4064 31.898C29.9369 34.0373 25.4774 33.838 22.2205 31.3981L18.5789 34.9699C18.6731 35.2598 18.7233 35.5616 18.7276 35.8658C18.7276 37.5968 17.2969 39 15.5321 39C13.7673 39 12.3366 37.5968 12.3366 35.8658C12.3366 34.1348 13.7673 32.7314 15.5321 32.7314C15.8422 32.7359 16.1499 32.785 16.4454 32.8774L20.1267 29.2668C17.8057 26.0281 17.7457 21.7252 19.9755 18.4257L7.87922 9.18933C6.25617 10.1031 4.20119 9.76591 2.96969 8.38383C1.73819 7.00175 1.6727 4.95916 2.81322 3.5039C3.95374 2.04865 5.98306 1.58549 7.66143 2.39738C9.33979 3.20928 10.2004 5.07041 9.71749 6.84378L22.0206 16.242C23.3627 15.1834 24.9662 14.4914 26.6687 14.236V9.83897C25.46 9.28528 24.6852 8.09751 24.6792 6.78906V6.68649C24.6844 4.82162 26.2244 3.31108 28.1258 3.30607H28.2304C30.1316 3.31108 31.6717 4.82162 31.6768 6.68649V6.78906C31.671 8.09751 30.8962 9.28528 29.6875 9.83897ZM23.1453 23.7331C23.1407 26.4611 25.3908 28.6769 28.1721 28.6833L28.1837 28.6856C30.9664 28.6856 33.2221 26.4729 33.2221 23.7436C33.2234 21.0155 30.9707 18.8025 28.1892 18.7995C25.4078 18.7966 23.1501 21.005 23.1453 23.7331Z" fill="#FE4802"/>
</svg>
