<svg width="41" height="40" viewBox="0 0 41 40" fill="none" xmlns="http://www.w3.org/2000/svg">
<path d="M15.3418 14.61V10.8439C15.3418 10.5267 15.4608 10.2887 15.7382 10.1304L23.3102 5.76963C24.3409 5.175 25.5699 4.89765 26.8383 4.89765C31.5954 4.89765 34.6085 8.58452 34.6085 12.509C34.6085 12.7865 34.6085 13.1036 34.5687 13.4208L26.7194 8.82214C26.2437 8.54478 25.7678 8.54478 25.2922 8.82214L15.3418 14.61ZM33.0226 29.278V20.2788C33.0226 19.7237 32.7845 19.3273 32.309 19.0499L22.3586 13.262L25.6093 11.3987C25.8868 11.2403 26.1247 11.2403 26.4022 11.3987L33.9741 15.7594C36.1547 17.0281 37.6213 19.7237 37.6213 22.34C37.6213 25.3528 35.8375 28.1279 33.0226 29.2777V29.278ZM13.0029 21.3494L9.75216 19.4467C9.4748 19.2883 9.35574 19.0503 9.35574 18.7331V10.0117C9.35574 5.77004 12.6065 2.55873 17.0069 2.55873C18.6722 2.55873 20.2179 3.11386 21.5265 4.1049L13.7168 8.62434C13.2412 8.9017 13.0033 9.29812 13.0033 9.85333V21.3498L13.0029 21.3494ZM20 25.3929L15.3418 22.7766V17.2267L20 14.6104L24.6578 17.2267V22.7766L20 25.3929ZM22.993 37.4446C21.3278 37.4446 19.7821 36.8894 18.4735 35.8985L26.2831 31.379C26.7588 31.1016 26.9967 30.7052 26.9967 30.15V18.6535L30.2873 20.5563C30.5646 20.7147 30.6837 20.9526 30.6837 21.2699V29.9913C30.6837 34.2329 27.3931 37.4442 22.993 37.4442V37.4446ZM13.5975 28.6042L6.02546 24.2436C3.84493 22.9748 2.37833 20.2793 2.37833 17.6629C2.37833 14.6104 4.20193 11.8751 7.01641 10.7253V19.7639C7.01641 20.319 7.25445 20.7154 7.73001 20.9929L17.641 26.7409L14.3902 28.6042C14.1129 28.7626 13.8749 28.7626 13.5975 28.6042ZM13.1617 35.1057C8.68197 35.1057 5.39151 31.736 5.39151 27.5734C5.39151 27.2563 5.43125 26.9391 5.47066 26.6219L13.2803 31.1413C13.7559 31.4188 14.2319 31.4188 14.7074 31.1413L24.6578 25.3933V29.1594C24.6578 29.4766 24.5388 29.7146 24.2614 29.873L16.6894 34.2337C15.6586 34.8283 14.4297 35.1057 13.1613 35.1057H13.1617ZM22.993 39.823C27.7899 39.823 31.7936 36.4138 32.7057 31.8944C37.1457 30.7446 40 26.5821 40 22.3404C40 19.5652 38.8108 16.8697 36.67 14.9272C36.8683 14.0946 36.9872 13.262 36.9872 12.4299C36.9872 6.76099 32.3885 2.51891 27.0763 2.51891C26.0062 2.51891 24.9754 2.67729 23.9446 3.0343C22.1604 1.28992 19.7025 0.179993 17.0069 0.179993C12.2101 0.179993 8.2064 3.5891 7.29427 8.10854C2.8543 9.25829 0 13.4208 0 17.6625C0 20.4376 1.18916 23.1332 3.32995 25.0757C3.13174 25.9083 3.01277 26.7409 3.01277 27.5731C3.01277 33.242 7.61145 37.484 12.9236 37.484C13.9938 37.484 15.0246 37.3256 16.0554 36.9686C17.8392 38.713 20.2971 39.823 22.993 39.823Z" fill="black"/>
</svg>
