<svg width="40" height="40" viewBox="0 0 40 40" fill="none" xmlns="http://www.w3.org/2000/svg">
<path d="M21.4766 24.6208C21.644 24.6208 21.78 24.7568 21.78 24.9241V39.6964C21.78 39.8639 21.644 40 21.4766 40H18.5233C18.356 40 18.22 39.8639 18.22 39.6964V24.9241C18.22 24.7568 18.356 24.6208 18.5233 24.6208H21.4766ZM15.4738 22.1351C15.5542 22.1351 15.6315 22.167 15.6884 22.2238L17.7776 24.313C17.8955 24.4313 17.8956 24.6224 17.7776 24.7407L7.33151 35.1867C7.21327 35.3047 7.02219 35.3046 6.90386 35.1867L4.81466 33.0975C4.75783 33.0407 4.7259 32.9633 4.7259 32.883C4.72595 32.8027 4.75788 32.7252 4.81466 32.6684L15.2593 22.2238L15.3066 22.1854C15.3559 22.1526 15.4139 22.1351 15.4738 22.1351ZM15.0758 18.22C15.2432 18.22 15.3791 18.3559 15.3791 18.5233V21.4766C15.3791 21.5568 15.347 21.6343 15.2903 21.6912C15.2335 21.748 15.1562 21.7799 15.0758 21.7799H0.303296C0.13596 21.7799 0 21.644 0 21.4766V18.5233C0 18.4431 0.0321156 18.3656 0.0887581 18.3087C0.145586 18.2519 0.222914 18.22 0.303296 18.22H15.0758ZM39.6969 18.22C39.8639 18.22 40 18.3559 40 18.5233V21.4766C40 21.5568 39.9681 21.6343 39.9111 21.6912C39.8542 21.748 39.7769 21.7799 39.6969 21.7799H18.5233C18.356 21.7799 18.22 21.644 18.22 21.4766V18.5233C18.22 18.4429 18.2519 18.3656 18.3088 18.3087C18.3656 18.2519 18.443 18.22 18.5233 18.22H39.6969ZM6.90238 4.81317C7.02067 4.69489 7.21313 4.69503 7.33151 4.81317L17.7776 15.2593C17.8343 15.3161 17.8664 15.3935 17.8664 15.4738C17.8663 15.5541 17.8343 15.6316 17.7776 15.6884L15.6884 17.7776C15.5701 17.8957 15.3776 17.8957 15.2593 17.7776L4.81318 7.33149C4.69508 7.21321 4.69508 7.0207 4.81318 6.90241L6.90238 4.81317ZM21.4766 0C21.644 0 21.78 0.13596 21.78 0.303296V15.0758C21.78 15.2431 21.644 15.3791 21.4766 15.3791H18.5233C18.356 15.3791 18.22 15.2431 18.22 15.0758V0.303296C18.22 0.22296 18.2519 0.145585 18.3088 0.0887579C18.3656 0.0321155 18.4431 0 18.5233 0H21.4766Z" fill="#A48977"/>
<path d="M26.8297 24.4822C26.773 24.4257 26.6953 24.3935 26.6152 24.3935H22.4367C22.3145 24.3938 22.2039 24.4684 22.1571 24.5814C22.1104 24.6945 22.1371 24.8247 22.2237 24.9113L32.6683 35.3566C32.725 35.4134 32.8026 35.4453 32.8828 35.4454C32.9631 35.4454 33.0406 35.4134 33.0974 35.3566L35.1866 33.2676C35.305 33.1492 35.305 32.9568 35.1866 32.8385L26.8297 24.4822Z" fill="#A48977"/>
<path d="M33.0977 4.48215C32.9942 4.37905 32.8349 4.36637 32.7174 4.44365L32.6701 4.48215L22.224 14.9275C22.1375 15.014 22.1108 15.1443 22.1574 15.2574C22.2043 15.3706 22.316 15.4453 22.4385 15.4453H26.617C26.6969 15.4451 26.7734 15.4129 26.83 15.3565L35.1869 7.00024C35.2437 6.94341 35.2757 6.86609 35.2757 6.78571C35.2757 6.70538 35.2437 6.62802 35.1869 6.57119L33.0977 4.48215Z" fill="#A48977"/>
</svg>
