<svg width="40" height="40" viewBox="0 0 40 40" fill="none" xmlns="http://www.w3.org/2000/svg">
<path d="M16.6598 9.05155C17.9588 7.71134 19.7526 6.86598 21.732 6.86598C24.3711 6.86598 26.6804 8.3299 27.8969 10.5155C28.9691 10.0412 30.1443 9.7732 31.3814 9.7732C36.1443 9.7732 40 13.6701 40 18.4742C40 23.2784 36.1443 27.1753 31.3814 27.1753C30.8041 27.1753 30.2268 27.1134 29.6907 27.0103C28.6186 28.9278 26.5567 30.2474 24.1856 30.2474C23.1959 30.2474 22.268 30.0206 21.4227 29.6082C20.3299 32.1856 17.7732 33.9794 14.8041 33.9794C11.7113 33.9794 9.07217 32.0206 8.06186 29.2784C7.62887 29.3814 7.15464 29.4227 6.68041 29.4227C2.98969 29.4227 0 26.4124 0 22.6804C0 20.1856 1.34021 18 3.34021 16.8454C2.92784 15.8969 2.70103 14.866 2.70103 13.7526C2.70103 9.46392 6.18557 6 10.4742 6C13.0103 6 15.2577 7.19588 16.6598 9.05155Z" fill="#00A1E0"/>
<path d="M5.81445 20.5155C5.79383 20.5773 5.81445 20.598 5.83507 20.598C5.91754 20.6598 5.9794 20.701 6.06187 20.7423C6.47424 20.9485 6.84538 21.031 7.25775 21.031C8.08249 21.031 8.57733 20.598 8.57733 19.8969V19.8557C8.57733 19.2165 8.00002 18.9691 7.46393 18.8041L7.40208 18.7835C6.98971 18.6598 6.63919 18.5361 6.63919 18.2681V18.2474C6.63919 18.0206 6.84538 17.8557 7.15466 17.8557C7.50517 17.8557 7.91754 17.9794 8.2062 18.1237C8.2062 18.1237 8.28867 18.165 8.30929 18.1031C8.32991 18.0619 8.45362 17.6907 8.47424 17.6495C8.49486 17.6083 8.45362 17.567 8.43301 17.567C8.12373 17.3815 7.69074 17.2578 7.25775 17.2578H7.17527C6.433 17.2578 5.89692 17.7114 5.89692 18.3712V18.3918C5.89692 19.0722 6.47424 19.299 7.01032 19.4639L7.0928 19.4846C7.48455 19.6083 7.83507 19.7114 7.83507 19.9794V20C7.83507 20.2474 7.60826 20.433 7.25775 20.433C7.11342 20.433 6.68043 20.433 6.2062 20.1237C6.14434 20.0825 6.12373 20.0619 6.06187 20.0413C6.04125 20.0206 5.9794 20 5.95878 20.0825L5.81445 20.5155Z" fill="white"/>
<path d="M17.8351 20.5155C17.8145 20.5773 17.8351 20.598 17.8557 20.598C17.9382 20.6598 18 20.701 18.0825 20.7423C18.4949 20.9485 18.866 21.031 19.2784 21.031C20.1031 21.031 20.598 20.598 20.598 19.8969V19.8557C20.598 19.2165 20.0206 18.9691 19.4846 18.8041L19.4227 18.7835C19.0103 18.6598 18.6598 18.5361 18.6598 18.2681V18.2474C18.6598 18.0206 18.866 17.8557 19.1753 17.8557C19.5258 17.8557 19.9382 17.9794 20.2268 18.1237C20.2268 18.1237 20.3093 18.165 20.3299 18.1031C20.3505 18.0619 20.4743 17.6907 20.4949 17.6495C20.5155 17.6083 20.4743 17.567 20.4536 17.567C20.1444 17.3815 19.7114 17.2578 19.2784 17.2578H19.1959C18.4536 17.2578 17.9176 17.7114 17.9176 18.3712V18.3918C17.9176 19.0722 18.4949 19.299 19.031 19.4639L19.1134 19.4846C19.5052 19.6083 19.8557 19.7114 19.8557 19.9794V20C19.8557 20.2474 19.6289 20.433 19.2784 20.433C19.134 20.433 18.7011 20.433 18.2268 20.1237C18.165 20.0825 18.1444 20.0619 18.0825 20.0413C18.0619 20.0413 18 20 17.9794 20.0825L17.8351 20.5155Z" fill="white"/>
<path d="M26.0207 19.134C26.0207 19.5258 25.9382 19.8351 25.7939 20.0619C25.6495 20.2887 25.4227 20.3918 25.1341 20.3918C24.8248 20.3918 24.6186 20.2887 24.4743 20.0619C24.33 19.8351 24.2681 19.5258 24.2681 19.134C24.2681 18.7423 24.3506 18.433 24.4743 18.2062C24.6186 18 24.8248 17.8763 25.1341 17.8763C25.4434 17.8763 25.6495 17.9794 25.7939 18.2062C25.9588 18.4124 26.0207 18.7423 26.0207 19.134ZM26.7011 18.3918C26.6392 18.165 26.5361 17.9588 26.3918 17.7938C26.2475 17.6289 26.0825 17.4846 25.8763 17.4021C25.6702 17.299 25.4227 17.2578 25.1341 17.2578C24.866 17.2578 24.6186 17.299 24.3918 17.4021C24.1856 17.5052 24.0001 17.6289 23.8557 17.7938C23.7114 17.9588 23.6083 18.165 23.5465 18.3918C23.4846 18.6186 23.4434 18.866 23.4434 19.134C23.4434 19.4021 23.4846 19.6495 23.5465 19.8763C23.6083 20.1031 23.7114 20.3093 23.8557 20.4742C24.0001 20.6392 24.165 20.7835 24.3712 20.866C24.5774 20.9691 24.8248 21.0103 25.1135 21.0103C25.3815 21.0103 25.6289 20.9691 25.8557 20.866C26.0619 20.7629 26.2475 20.6392 26.3712 20.4742C26.5155 20.3093 26.6186 20.1031 26.6805 19.8763C26.7423 19.6495 26.7836 19.4021 26.7836 19.134C26.7836 18.866 26.7836 18.6186 26.7011 18.3918Z" fill="white"/>
<path d="M32.33 20.2887C32.3094 20.2268 32.2475 20.2474 32.2475 20.2474C32.1444 20.2887 32.0413 20.3299 31.9382 20.3299C31.8145 20.3505 31.6908 20.3505 31.5671 20.3505C31.2372 20.3505 30.9692 20.2474 30.7836 20.0619C30.598 19.8763 30.4949 19.5464 30.4949 19.134C30.4949 18.7423 30.598 18.4536 30.763 18.2268C30.9279 18 31.1754 17.8969 31.5259 17.8969C31.8145 17.8969 32.0207 17.9382 32.2475 18C32.2475 18 32.3094 18.0206 32.33 17.9588C32.3919 17.7938 32.4331 17.6701 32.4949 17.4845C32.5156 17.4227 32.4743 17.4021 32.4537 17.4021C32.3712 17.3608 32.165 17.3196 32.0001 17.2784C31.8558 17.2577 31.6702 17.2371 31.4846 17.2371C31.196 17.2371 30.9485 17.2784 30.7217 17.3815C30.4949 17.4845 30.3094 17.6083 30.165 17.7732C30.0207 17.9382 29.897 18.1443 29.8351 18.3711C29.7527 18.5979 29.7321 18.8454 29.7321 19.1134C29.7321 19.6907 29.8764 20.1443 30.1857 20.4742C30.4949 20.8041 30.9485 20.9897 31.5465 20.9897C31.897 20.9897 32.2475 20.9278 32.5156 20.8248C32.5156 20.8248 32.5568 20.8041 32.5362 20.7423L32.33 20.2887Z" fill="white"/>
<path d="M33.5257 18.7423C33.5669 18.5155 33.6288 18.3299 33.7113 18.1856C33.8556 17.9588 34.0618 17.8557 34.3711 17.8557C34.6803 17.8557 34.8865 17.9794 35.0102 18.1856C35.1133 18.3299 35.1546 18.5155 35.1546 18.7423H33.5257ZM35.835 18.2681C35.7731 18.0413 35.6288 17.8351 35.5463 17.732C35.402 17.567 35.2577 17.4639 35.1133 17.4021C34.9278 17.3196 34.7009 17.2578 34.4535 17.2578C34.1649 17.2578 33.8968 17.299 33.6906 17.4021C33.4845 17.5052 33.2989 17.6289 33.1546 17.8145C33.0102 17.9794 32.9071 18.1856 32.8453 18.4124C32.7834 18.6392 32.7422 18.8866 32.7422 19.1547C32.7422 19.4227 32.7834 19.6701 32.8453 19.8969C32.9071 20.1237 33.0308 20.3299 33.1752 20.4949C33.3195 20.6598 33.5257 20.7835 33.7525 20.8866C33.9793 20.9691 34.268 21.031 34.5979 21.031C35.2577 21.031 35.6288 20.8866 35.7731 20.8041C35.7937 20.7835 35.8143 20.7629 35.7937 20.7011L35.6494 20.2681C35.6288 20.2062 35.5669 20.2268 35.5669 20.2268C35.402 20.2887 35.1752 20.3918 34.6185 20.3918C34.268 20.3918 33.9999 20.2887 33.835 20.1237C33.67 19.9588 33.5875 19.7114 33.5669 19.3608H35.8762C35.8762 19.3608 35.9381 19.3608 35.9381 19.299C35.8968 19.2371 35.9793 18.7835 35.835 18.2681Z" fill="white"/>
<path d="M14.969 18.7423C15.0103 18.5155 15.0721 18.3299 15.1546 18.1856C15.2989 17.9588 15.5051 17.8557 15.8144 17.8557C16.1237 17.8557 16.3299 17.9794 16.4742 18.1856C16.5773 18.3299 16.6185 18.5155 16.6185 18.7423H14.969ZM17.2783 18.2681C17.2165 18.0413 17.0721 17.8351 16.9897 17.732C16.8453 17.567 16.701 17.4639 16.5567 17.4021C16.3711 17.3196 16.1443 17.2578 15.8969 17.2578C15.6082 17.2578 15.3402 17.299 15.134 17.4021C14.9278 17.5052 14.7422 17.6289 14.5979 17.8145C14.4536 17.9794 14.3505 18.1856 14.2886 18.4124C14.2268 18.6392 14.1855 18.8866 14.1855 19.1547C14.1855 19.4227 14.2268 19.6701 14.2886 19.8969C14.3505 20.1237 14.4742 20.3299 14.6185 20.4949C14.7629 20.6598 14.9691 20.7835 15.1959 20.8866C15.4227 20.9691 15.7113 21.031 16.0412 21.031C16.701 21.031 17.0721 20.8866 17.2165 20.8041C17.2371 20.7835 17.2577 20.7629 17.2371 20.7011L17.0928 20.2681C17.0721 20.2062 17.0103 20.2268 17.0103 20.2268C16.8453 20.2887 16.6185 20.3918 16.0618 20.3918C15.7113 20.3918 15.4433 20.2887 15.2783 20.1237C15.1134 19.9588 15.0309 19.7114 15.0103 19.3608H17.3196C17.3196 19.3608 17.3814 19.3608 17.3814 19.299C17.3402 19.2371 17.4227 18.7835 17.2783 18.2681Z" fill="white"/>
<path d="M9.95883 20.2681C9.87635 20.1856 9.85574 20.1856 9.83512 20.1237C9.79388 20.0619 9.77326 19.9588 9.77326 19.8145C9.77326 19.6083 9.83512 19.4639 9.97945 19.3608C9.97945 19.3608 10.1856 19.1959 10.6599 19.1959C10.9898 19.1959 11.299 19.2578 11.299 19.2578V20.3093C11.299 20.3093 11.0104 20.3712 10.6805 20.3918C10.165 20.433 9.95883 20.2681 9.95883 20.2681ZM10.8867 18.6392C10.7836 18.6392 10.6805 18.6186 10.5155 18.6186C10.3093 18.6186 10.1238 18.6392 9.93821 18.7011C9.75264 18.7423 9.58769 18.8248 9.46398 18.9279C9.31965 19.0309 9.21656 19.1547 9.13409 19.3196C9.05161 19.4846 9.01038 19.6495 9.01038 19.8557C9.01038 20.0619 9.05161 20.2474 9.11347 20.3918C9.17532 20.5361 9.27842 20.6598 9.42275 20.7629C9.54646 20.866 9.7114 20.9279 9.89697 20.9691C10.0825 21.0103 10.2887 21.031 10.5155 21.031C10.763 21.031 10.9898 21.0103 11.2166 20.9691C11.4434 20.9279 11.732 20.866 11.7939 20.866C11.8764 20.8454 11.9588 20.8248 11.9588 20.8248C12.0207 20.8041 12.0207 20.7423 12.0207 20.7423V18.6186C12.0207 18.1444 11.897 17.8145 11.6495 17.5876C11.4021 17.3815 11.0516 17.2578 10.5774 17.2578C10.4124 17.2578 10.1238 17.2784 9.95883 17.3196C9.95883 17.3196 9.44336 17.4227 9.23718 17.5876C9.23718 17.5876 9.19594 17.6083 9.21656 17.6701L9.38151 18.1031C9.40213 18.165 9.46398 18.1444 9.46398 18.1444C9.46398 18.1444 9.4846 18.1444 9.50522 18.1237C9.95883 17.8763 10.5155 17.8969 10.5155 17.8969C10.763 17.8969 10.9485 17.9382 11.0928 18.0413C11.2166 18.1444 11.2784 18.2887 11.2784 18.598V18.7011C11.0722 18.6598 10.8867 18.6392 10.8867 18.6392Z" fill="white"/>
<path d="M29.5671 17.4433C29.5877 17.3814 29.5464 17.3608 29.5258 17.3608C29.4846 17.3402 29.299 17.299 29.1341 17.299C28.8454 17.2783 28.6805 17.3402 28.5361 17.4021C28.3918 17.4639 28.2269 17.567 28.1444 17.6907V17.4021C28.1444 17.3608 28.1238 17.3402 28.0825 17.3402H27.4846C27.4434 17.3402 27.4227 17.3814 27.4227 17.4021V20.866C27.4227 20.9072 27.464 20.9278 27.4846 20.9278H28.1031C28.1444 20.9278 28.165 20.8866 28.165 20.866V19.134C28.165 18.9072 28.1856 18.6804 28.2475 18.5155C28.2887 18.3711 28.3712 18.2474 28.4537 18.1649C28.5361 18.0825 28.6392 18.0206 28.7423 18C28.8454 17.9588 28.9691 17.9588 29.0516 17.9588C29.1753 17.9588 29.299 18 29.299 18C29.3403 18 29.3609 17.9794 29.3815 17.9381C29.4433 17.835 29.5464 17.5051 29.5671 17.4433Z" fill="white"/>
<path d="M23.8556 15.835C23.7732 15.8144 23.7113 15.7938 23.6288 15.7732C23.5464 15.7526 23.4433 15.7526 23.3196 15.7526C22.9072 15.7526 22.5773 15.8763 22.3299 16.1031C22.1031 16.3299 21.9381 16.6804 21.8556 17.1546L21.835 17.3196H21.2989C21.2989 17.3196 21.2371 17.3196 21.2165 17.3814L21.134 17.8557C21.134 17.8969 21.1546 17.9381 21.2165 17.9381H21.7319L21.2165 20.8453C21.1752 21.0721 21.134 21.2783 21.0721 21.4227C21.0309 21.567 20.969 21.6701 20.9072 21.7526C20.8453 21.835 20.7835 21.8763 20.701 21.9175C20.6185 21.9381 20.536 21.9588 20.433 21.9588C20.3711 21.9588 20.3092 21.9587 20.2474 21.9381C20.1855 21.9175 20.1649 21.9175 20.1237 21.8969C20.1237 21.8969 20.0618 21.8763 20.0412 21.9381C20.0206 21.9794 19.8763 22.3711 19.8763 22.4124C19.8556 22.4536 19.8763 22.4948 19.9175 22.5154C19.9793 22.5361 20.0412 22.5567 20.1237 22.5773C20.2474 22.5979 20.3711 22.6185 20.4536 22.6185C20.6598 22.6185 20.8659 22.5979 21.0309 22.5361C21.1958 22.4742 21.3402 22.3711 21.4639 22.2474C21.6082 22.1031 21.6907 21.9381 21.7732 21.7319C21.8556 21.5258 21.9175 21.2577 21.9793 20.9484L22.4948 18H23.2577C23.2577 18 23.3196 18 23.3402 17.9381L23.4226 17.4639C23.4226 17.4227 23.402 17.3814 23.3402 17.3814H22.5979C22.5979 17.3608 22.6391 17.1134 22.7216 16.866C22.7629 16.7629 22.8247 16.6804 22.8866 16.6185C22.9484 16.5567 23.0103 16.5155 23.0721 16.4948C23.1546 16.4742 23.2371 16.4536 23.3196 16.4536C23.3814 16.4536 23.4639 16.4536 23.5051 16.4742C23.567 16.4948 23.6082 16.4948 23.6288 16.4948C23.7113 16.5155 23.7113 16.4948 23.7319 16.4536L23.9175 15.9587C23.9175 15.8763 23.8763 15.8557 23.8556 15.835Z" fill="white"/>
<path d="M13.5051 20.8453C13.5051 20.8866 13.4845 20.9072 13.4432 20.9072H12.8247C12.7834 20.9072 12.7628 20.8659 12.7628 20.8453V15.8969C12.7628 15.8556 12.7834 15.835 12.8247 15.835H13.4432C13.4845 15.835 13.5051 15.8763 13.5051 15.8969V20.8453Z" fill="white"/>
</svg>
