<svg width="40" height="40" viewBox="0 0 40 40" fill="none" xmlns="http://www.w3.org/2000/svg">
<path d="M23.1824 3.84728C22.8498 3.28367 22.38 2.81742 21.8187 2.49375C21.2575 2.17008 20.6238 2 19.9791 2C19.3345 2 18.7008 2.17008 18.1395 2.49375C17.5782 2.81742 17.1085 3.28367 16.7758 3.84728L11.5063 13.0598C15.532 15.1113 18.9619 18.202 21.4555 22.025C23.9491 25.848 25.4196 30.2703 25.7211 34.8528H22.0212C21.7203 30.9247 20.4198 27.145 18.2483 23.8876C16.0768 20.6301 13.1096 18.008 9.64035 16.2805L4.76327 24.8882C6.71356 25.781 8.41265 27.16 9.70428 28.8984C10.9959 30.6367 11.8386 32.6787 12.155 34.8364H3.65812C3.55735 34.8291 3.45994 34.7964 3.37467 34.7411C3.2894 34.6858 3.21896 34.6097 3.1697 34.5197C3.12044 34.4296 3.0939 34.3285 3.09249 34.2254C3.09107 34.1223 3.11482 34.0205 3.1616 33.9291L5.51605 29.8419C4.71837 29.1625 3.80671 28.6363 2.82525 28.2887L0.494823 32.3759C0.252214 32.8007 0.0947134 33.2704 0.0314717 33.7579C-0.0317699 34.2453 0.000507752 34.7407 0.12643 35.2153C0.252352 35.6898 0.469407 36.1342 0.764987 36.5224C1.06057 36.9106 1.42878 37.235 1.84823 37.4768C2.40088 37.7946 3.02379 37.9634 3.65812 37.9672H15.2942C15.5103 35.2452 15.0341 32.5123 13.9117 30.0333C12.7893 27.5543 11.0587 25.4132 8.88756 23.8173L10.7375 20.5476C13.4775 22.4685 15.6794 25.0855 17.1259 28.1403C18.5725 31.1952 19.2136 34.5822 18.9861 37.9672H28.8443C29.0739 32.8394 27.981 27.7399 25.6749 23.1783C23.3687 18.6167 19.9301 14.7528 15.7027 11.9726L19.4426 5.43311C19.5259 5.29059 19.661 5.18743 19.8185 5.1461C19.976 5.10476 20.1431 5.12859 20.2834 5.2124C20.7079 5.44946 36.5324 33.6348 36.8287 33.9618C36.8809 34.0573 36.9074 34.1652 36.9057 34.2746C36.9039 34.384 36.8739 34.491 36.8186 34.5847C36.7633 34.6784 36.6848 34.7556 36.591 34.8084C36.4971 34.8612 36.3912 34.8878 36.2841 34.8855H32.4721C32.5202 35.9263 32.5202 36.9645 32.4721 37.9999H36.3001C36.7862 38.0032 37.2681 37.908 37.7179 37.7198C38.1677 37.5317 38.5765 37.2544 38.9206 36.9039C39.2646 36.5535 39.5372 36.1368 39.7225 35.6781C39.9078 35.2194 40.0021 34.7277 40 34.2315C40.0004 33.5762 39.829 32.9326 39.5034 32.3678L23.1824 3.84728Z" fill="#5B4672"/>
</svg>
