<svg width="40" height="40" viewBox="0 0 40 40" fill="none" xmlns="http://www.w3.org/2000/svg">
<path d="M8.40365 25.277C8.40365 27.5897 6.51446 29.479 4.20183 29.479C1.88919 29.479 0 27.5897 0 25.277C0 22.9644 1.88919 21.0751 4.20183 21.0751H8.40365V25.277Z" fill="#E01E5A"/>
<path d="M10.5197 25.277C10.5197 22.9643 12.4088 21.0751 14.7215 21.0751C17.0341 21.0751 18.9233 22.9643 18.9233 25.277V35.798C18.9233 38.1107 17.0341 40 14.7215 40C12.4088 40 10.5197 38.1107 10.5197 35.798V25.277Z" fill="#E01E5A"/>
<path d="M14.7215 8.40382C12.4088 8.40382 10.5197 6.51459 10.5197 4.20191C10.5197 1.88923 12.4088 0 14.7215 0C17.0341 0 18.9233 1.88923 18.9233 4.20191V8.40382H14.7215Z" fill="#36C5F0"/>
<path d="M14.7227 10.5214C17.0353 10.5214 18.9245 12.4106 18.9245 14.7233C18.9245 17.036 17.0353 18.9252 14.7227 18.9252H4.20182C1.88919 18.9252 0 17.036 0 14.7233C0 12.4106 1.88919 10.5214 4.20182 10.5214H14.7227Z" fill="#36C5F0"/>
<path d="M31.5946 14.7233C31.5946 12.4106 33.4838 10.5214 35.7964 10.5214C38.1091 10.5214 39.9982 12.4106 39.9982 14.7233C39.9982 17.036 38.1091 18.9252 35.7964 18.9252H31.5946V14.7233Z" fill="#2EB67D"/>
<path d="M29.4792 14.723C29.4792 17.0357 27.59 18.9249 25.2774 18.9249C22.9648 18.9249 21.0756 17.0357 21.0756 14.723V4.20191C21.0756 1.88923 22.9648 0 25.2774 0C27.59 0 29.4792 1.88923 29.4792 4.20191V14.723Z" fill="#2EB67D"/>
<path d="M25.2773 31.5962C27.5899 31.5962 29.4791 33.4854 29.4791 35.7981C29.4791 38.1108 27.5899 40 25.2773 40C22.9646 40 21.0754 38.1108 21.0754 35.7981V31.5962H25.2773Z" fill="#ECB22E"/>
<path d="M25.2774 29.479C22.9648 29.479 21.0756 27.5897 21.0756 25.277C21.0756 22.9644 22.9648 21.0751 25.2774 21.0751H35.7982C38.1109 21.0751 40 22.9644 40 25.277C40 27.5897 38.1109 29.479 35.7982 29.479H25.2774Z" fill="#ECB22E"/>
</svg>
