<svg width="40" height="40" viewBox="0 0 40 40" fill="none" xmlns="http://www.w3.org/2000/svg">
<path fill-rule="evenodd" clip-rule="evenodd" d="M38.7475 17.2746L34.0122 19.9986L38.7475 22.7139C39.3222 23.0431 39.7418 23.5859 39.9141 24.2228C40.0864 24.8597 39.9973 25.5386 39.6662 26.1102C39.3352 26.6817 38.7895 27.0991 38.1491 27.2705C37.5086 27.4418 36.826 27.3531 36.2513 27.0239L27.7717 22.1392C27.2273 21.8269 26.8225 21.3206 26.6392 20.7226C26.5571 20.4616 26.52 20.1886 26.5294 19.9152C26.5337 19.7208 26.5629 19.5277 26.6161 19.3406C26.791 18.7133 27.2058 18.1791 27.7717 17.8522L36.2513 12.9847C36.826 12.6555 37.5086 12.5668 38.1491 12.7382C38.7895 12.9095 39.3352 13.3269 39.6662 13.8984C39.9973 14.47 40.0864 15.1489 39.9141 15.7858C39.7418 16.4227 39.3222 16.9655 38.7475 17.2947V17.2746ZM34.2636 30.4719L25.7869 25.6102C25.3505 25.3566 24.846 25.2432 24.3424 25.2855C23.7141 25.3313 23.1266 25.6118 22.6978 26.0707C22.269 26.5297 22.0308 27.133 22.0311 27.7595V37.4944C22.0311 38.1529 22.294 38.7843 22.7622 39.2499C23.2303 39.7155 23.8652 39.977 24.5273 39.977C25.1893 39.977 25.8242 39.7155 26.2923 39.2499C26.7605 38.7843 27.0235 38.1529 27.0235 37.4944V32.0351L31.7818 34.782C32.0664 34.9448 32.3804 35.0503 32.7059 35.0924C33.0315 35.1345 33.3622 35.1125 33.6792 35.0275C33.9961 34.9425 34.2932 34.7963 34.5533 34.5971C34.8135 34.398 35.0316 34.1498 35.1953 33.8668C35.359 33.5838 35.4651 33.2715 35.5075 32.9478C35.5498 32.624 35.5276 32.2951 35.4422 31.9798C35.3568 31.6646 35.2097 31.3692 35.0095 31.1105C34.8092 30.8517 34.5597 30.6348 34.2751 30.4719H34.2636ZM24.481 20.9496L20.9563 24.4379C20.8362 24.5508 20.6793 24.617 20.5143 24.6247H19.48C19.3144 24.6155 19.1571 24.5495 19.035 24.4379L15.5132 20.9496C15.4045 20.8288 15.3403 20.6748 15.3312 20.5129V19.4814C15.3393 19.3175 15.4035 19.1614 15.5132 19.0389L19.035 15.5305C19.1574 15.4197 19.3147 15.3547 19.48 15.3466H20.5143C20.6789 15.3537 20.8356 15.4189 20.9563 15.5305L24.481 19.0302C24.5907 19.1527 24.655 19.3089 24.663 19.4727V20.5043C24.6558 20.6692 24.5915 20.8265 24.481 20.9496ZM21.6699 19.9785C21.6586 19.814 21.5937 19.6576 21.485 19.5331L20.4565 18.5245C20.3359 18.4146 20.1807 18.3496 20.0173 18.3406H19.9769C19.8135 18.3496 19.6584 18.4146 19.5377 18.5245L18.5179 19.5331C18.4078 19.6565 18.3435 19.8137 18.3359 19.9785V20.0158C18.3431 20.1781 18.4076 20.3327 18.5179 20.4526L19.5377 21.4668C19.6587 21.5762 19.8137 21.6411 19.9769 21.6507H20.0173C20.1807 21.6418 20.3359 21.5768 20.4565 21.4668L21.4792 20.4526C21.5903 20.3324 21.6575 20.1785 21.6699 20.0158V19.9785ZM5.73063 9.51368L14.2102 14.3811C14.5906 14.5992 15.0219 14.714 15.4609 14.7141C15.8999 14.7141 16.3313 14.5994 16.7117 14.3814C17.0921 14.1635 17.4082 13.8499 17.6284 13.4721C17.8485 13.0943 17.965 12.6656 17.9661 12.229V2.49407C17.9661 1.83565 17.7031 1.2042 17.2349 0.738624C16.7668 0.27305 16.1319 0.0114934 15.4699 0.0114934C14.8078 0.0114934 14.1729 0.27305 13.7048 0.738624C13.2367 1.2042 12.9737 1.83565 12.9737 2.49407V7.95345L8.22394 5.21514C7.93939 5.05232 7.62538 4.94684 7.29983 4.90471C6.97429 4.86259 6.64359 4.88464 6.32662 4.96962C5.68647 5.14125 5.14108 5.55876 4.81045 6.13031C4.47982 6.70185 4.39101 7.38062 4.56358 8.01728C4.73615 8.65394 5.15595 9.19635 5.73063 9.52518V9.51368ZM24.3424 14.7058C24.8459 14.7467 25.35 14.6334 25.7869 14.3811L34.2636 9.51368C34.5481 9.35086 34.7977 9.1339 34.9979 8.87517C35.1982 8.61645 35.3452 8.32103 35.4306 8.00579C35.5161 7.69054 35.5383 7.36165 35.4959 7.03788C35.4536 6.71411 35.3475 6.40181 35.1838 6.11881C35.0201 5.83581 34.8019 5.58765 34.5418 5.3885C34.2816 5.18935 33.9846 5.04311 33.6676 4.95813C33.3506 4.87315 33.0199 4.85109 32.6944 4.89322C32.3688 4.93534 32.0548 5.04083 31.7703 5.20365L27.0235 7.94196V2.48258C27.0235 1.82416 26.7605 1.19271 26.2923 0.727131C25.8242 0.261557 25.1893 0 24.5273 0C23.8652 0 23.2303 0.261557 22.7622 0.727131C22.294 1.19271 22.0311 1.82416 22.0311 2.48258V12.229C22.0308 12.8558 22.2689 13.4595 22.6976 13.9189C23.1263 14.3783 23.7139 14.6594 24.3424 14.7058ZM15.6577 25.2999C15.154 25.2575 14.6495 25.3709 14.2131 25.6246L5.73063 30.4719C5.44608 30.6348 5.19656 30.8517 4.99632 31.1105C4.79607 31.3692 4.64903 31.6646 4.56358 31.9798C4.47814 32.2951 4.45596 32.624 4.49832 32.9478C4.54067 33.2715 4.64674 33.5838 4.81045 33.8668C4.97416 34.1498 5.19232 34.398 5.45246 34.5971C5.71261 34.7963 6.00965 34.9425 6.32662 35.0275C6.64359 35.1125 6.97429 35.1345 7.29983 35.0924C7.62538 35.0503 7.93939 34.9448 8.22394 34.782L12.9737 32.058V37.5174C12.9737 38.1758 13.2367 38.8073 13.7048 39.2729C14.1729 39.7384 14.8078 40 15.4699 40C16.1319 40 16.7668 39.7384 17.2349 39.2729C17.7031 38.8073 17.9661 38.1758 17.9661 37.5174V27.7595C17.9627 27.136 17.7233 26.5366 17.2955 26.0808C16.8677 25.6249 16.2829 25.3461 15.6577 25.2999ZM13.3464 20.7399C13.4294 20.479 13.4675 20.206 13.459 19.9325C13.451 19.7382 13.421 19.5454 13.3695 19.3578C13.1977 18.729 12.7821 18.1937 12.2138 17.8694L3.75736 12.9761C3.18268 12.6469 2.50004 12.5582 1.85962 12.7295C1.21919 12.9009 0.67344 13.3183 0.342423 13.8898C0.0114067 14.4614 -0.077761 15.1403 0.0945363 15.7772C0.266834 16.4141 0.686482 16.9569 1.26116 17.2861L5.99643 20.0101L1.24961 22.7139C0.674926 23.0446 0.255886 23.5889 0.0846722 24.2269C-0.0865414 24.8649 0.00409603 25.5444 0.336645 26.1159C0.669195 26.6875 1.21642 27.1042 1.85792 27.2745C2.49943 27.4448 3.18268 27.3547 3.75736 27.0239L12.2196 22.1392C12.7664 21.8296 13.1736 21.3239 13.3579 20.7255L13.3464 20.7399Z" fill="#29B5E8"/>
</svg>
