<svg width="41" height="40" viewBox="0 0 41 40" fill="none" xmlns="http://www.w3.org/2000/svg">
<g clip-path="url(#clip0_17_120)">
<path fill-rule="evenodd" clip-rule="evenodd" d="M28.1607 19.8546H27.3836C27.2268 19.8546 27.1413 19.941 27.1413 20.0997V22.81C26.8392 22.3692 26.3538 22.1251 25.7581 22.1251C24.3863 22.1251 23.5684 23.115 23.5684 24.825C23.5684 26.534 24.3816 27.523 25.7534 27.523C26.3614 27.523 26.8582 27.2665 27.1622 26.8276L27.2477 27.2171C27.2734 27.3634 27.3693 27.4365 27.5156 27.4365H28.1597C28.3165 27.4365 28.402 27.352 28.402 27.1933V20.0997C28.4029 19.9401 28.3193 19.8546 28.1607 19.8546ZM26.0099 26.5806C25.3316 26.5806 24.8813 26.0077 24.8813 24.9703V24.6777C24.8813 23.6422 25.3287 23.0675 26.0099 23.0675C26.7737 23.0675 27.1632 23.6166 27.1632 24.8259C27.1632 26.0353 26.7746 26.5806 26.0099 26.5806Z" fill="#0057AE"/>
<path fill-rule="evenodd" clip-rule="evenodd" d="M29.7129 23.5899C29.9076 22.6874 30.7322 22.126 31.8133 22.126C33.1975 22.126 33.8891 22.847 33.89 24.1029V27.1923C33.89 27.3491 33.8064 27.4355 33.6478 27.4355H33.0037C32.8574 27.4355 32.7595 27.3624 32.7358 27.2161L32.6626 26.8266C32.3605 27.2655 31.8618 27.522 31.2433 27.522C30.2116 27.522 29.5333 26.9092 29.5333 25.9573C29.5333 24.8468 30.3104 24.2739 31.9501 24.2739H32.6284V24.0782C32.6284 23.4066 32.3482 23.0646 31.8152 23.0646C31.3896 23.0646 31.1474 23.2479 31.0258 23.6393C30.9764 23.7989 30.8909 23.8588 30.7579 23.8588H29.9314C29.7623 23.8588 29.6768 23.7495 29.7129 23.5899ZM31.5967 26.5815C32.2152 26.5815 32.6284 26.2053 32.6284 25.3009V25.1299H31.9967C31.231 25.1299 30.8443 25.3864 30.8434 25.9108C30.8443 26.3259 31.1474 26.5815 31.5967 26.5815Z" fill="#0057AE"/>
<path d="M1.56466 27.4375C1.41931 27.4375 1.33382 27.3767 1.28632 27.2304C0.714412 25.6439 0.326812 24.0678 1.17419e-05 22.4813C-0.0370382 22.3227 0.0361119 22.2125 0.205212 22.2125H0.994665C1.14097 22.2125 1.23692 22.2856 1.26257 22.4196C1.46777 23.5434 1.71191 24.7024 2.03966 25.8386L2.98586 22.4196C3.02196 22.2856 3.11887 22.2125 3.26422 22.2125H4.33296C4.47831 22.2125 4.57521 22.2856 4.61131 22.4196L5.55752 25.8386C5.88527 24.7034 6.12941 23.5434 6.33462 22.4196C6.35837 22.2856 6.45717 22.2125 6.60252 22.2125H7.39197C7.56107 22.2125 7.63327 22.3217 7.59717 22.4813C7.27037 24.0678 6.88277 25.6439 6.31087 27.2304C6.26146 27.3767 6.17787 27.4375 6.03252 27.4375H5.14331C5.01031 27.4375 4.90106 27.3767 4.86496 27.2304L3.79717 23.4693L2.72936 27.2304C2.69326 27.3767 2.58401 27.4375 2.45101 27.4375H1.56466Z" fill="#0057AE"/>
<path fill-rule="evenodd" clip-rule="evenodd" d="M10.7521 22.1279C9.27096 22.1279 8.23926 23.2024 8.23926 24.8259C8.23926 26.4495 9.27096 27.5239 10.7521 27.5239C12.2331 27.5239 13.2648 26.4371 13.2648 24.8259C13.2648 23.2147 12.2331 22.1279 10.7521 22.1279ZM11.9529 24.9713C11.9529 26.0457 11.4798 26.6566 10.7521 26.6566C10.0244 26.6566 9.55126 26.0457 9.55126 24.9713V24.6787C9.55126 23.6042 10.0244 22.9934 10.7521 22.9934C11.4798 22.9934 11.9529 23.6042 11.9529 24.6787V24.9713Z" fill="#0057AE"/>
<path d="M36.6144 27.3255C35.8373 25.9955 35.1656 24.2874 34.7419 22.4815C34.7058 22.3095 34.7913 22.2126 34.9614 22.2136H35.7508C35.8962 22.2136 35.994 22.2867 36.0178 22.433C36.2724 23.7032 36.6733 24.9363 37.1825 25.9613C37.6318 24.8375 38.0451 23.6661 38.2636 22.433C38.2883 22.2867 38.3852 22.2136 38.5305 22.2136H39.3437C39.5128 22.2136 39.5983 22.3238 39.5489 22.4938C38.9903 24.7282 38.1895 26.6681 37.4979 28.1577C37.0485 29.122 36.526 29.501 35.5798 29.501C35.3984 29.501 35.2055 29.464 35.0469 29.4279C34.9015 29.3918 34.8417 29.293 34.8417 29.159V28.5729C34.8417 28.4019 34.9405 28.3401 35.1096 28.3895C35.2549 28.4256 35.4003 28.4494 35.5333 28.4494C36.0919 28.4494 36.2866 28.0836 36.6144 27.3255Z" fill="#0057AE"/>
<path d="M15.5968 22.8719C15.8638 22.4435 16.3369 22.1509 16.8831 22.1509C17.0893 22.1509 17.2707 22.2003 17.417 22.3105C17.4664 22.3475 17.5025 22.3969 17.5025 22.4701V23.1911C17.5025 23.3612 17.4303 23.4106 17.2479 23.3374C17.0997 23.2747 16.9544 23.251 16.7853 23.251C16.0462 23.251 15.6206 23.7763 15.6206 24.5344L15.6215 27.1963C15.6215 27.3531 15.5379 27.4376 15.3793 27.4376H14.6003C14.4435 27.4376 14.358 27.354 14.358 27.1944L14.3571 22.4568C14.3571 22.3 14.4407 22.2136 14.5993 22.2136H15.2434C15.4021 22.2136 15.4876 22.2991 15.5113 22.433L15.5968 22.8719Z" fill="#0057AE"/>
<path d="M22.8804 27.146C22.3474 26.0478 21.8373 25.2906 21.121 24.5943L22.7968 22.5185C22.9184 22.3466 22.8585 22.2126 22.6638 22.2126H21.7907C21.6691 22.2126 21.5599 22.2601 21.4867 22.3466L19.7872 24.5192V20.1008C19.7872 19.9412 19.7017 19.8557 19.543 19.8557H18.7659C18.6092 19.8557 18.5237 19.9421 18.5237 20.1008V27.1944C18.5237 27.3521 18.6073 27.4376 18.7659 27.4376H19.543C19.6998 27.4376 19.7853 27.3531 19.7853 27.1944L19.7872 24.8023C20.5396 25.5338 21.0611 26.3147 21.4972 27.2913C21.5466 27.3778 21.6663 27.4376 21.7879 27.4376H22.7464C22.9402 27.4386 22.9773 27.3417 22.8804 27.146Z" fill="#0057AE"/>
<path d="M11.1418 15.4587C13.5225 13.0742 16.6898 11.7613 20.0604 11.7613C23.4243 11.7613 26.5878 13.0714 28.9666 15.4502C30.327 16.8106 31.3369 18.4265 31.9534 20.1907C31.98 20.2667 32.0503 20.317 32.1311 20.317H33.0659C33.1932 20.317 33.2853 20.1935 33.2454 20.0719C32.5795 18.0152 31.4309 16.1313 29.8587 14.5581C27.2424 11.9409 23.7625 10.5004 20.0623 10.5004C16.3554 10.5004 12.8689 11.9447 10.2497 14.5676C8.68032 16.1389 7.53556 18.0199 6.87151 20.0719C6.83256 20.1935 6.92376 20.317 7.05201 20.317H7.98682C8.06757 20.317 8.13787 20.2657 8.16447 20.1907C8.77817 18.4313 9.78517 16.8172 11.1418 15.4587Z" fill="#FC5B05"/>
</g>
<defs>
<clipPath id="clip0_17_120">
<rect width="40.185" height="19" fill="white" transform="translate(0 10.5)"/>
</clipPath>
</defs>
</svg>
