<svg width="1362" height="241" viewBox="0 0 1362 241" fill="none" xmlns="http://www.w3.org/2000/svg">
<rect width="1361" height="240" transform="translate(0.5 0.5)" fill="#FAFAFA"/>
<path d="M0.5 0.5V0H0V0.5H0.5ZM340.75 0.5H341.25V0H340.75V0.5ZM340.75 120.5V121H341.25V120.5H340.75ZM0.5 120.5H0V121H0.5V120.5ZM0.5 0.5V1H340.75V0.5V0H0.5V0.5ZM340.75 0.5H340.25V120.5H340.75H341.25V0.5H340.75ZM340.75 120.5V120H0.5V120.5V121H340.75V120.5ZM0.5 120.5H1V0.5H0.5H0V120.5H0.5Z" fill="#D6D3D1"/>
<path d="M121.036 55.2527L113.208 50.6835V44.2963L126.489 52.0481V67.5739L121.036 64.3909V55.2527Z" fill="#131313"/>
<path d="M87.3509 65.7545L95.1786 70.3233V76.7115L81.897 68.9596V53.4339L87.3509 56.617V65.7545Z" fill="#131313"/>
<path d="M112.021 52.742L90.8936 65.0736L96.3654 68.2672L117.493 55.9359L112.021 52.742Z" fill="#131313"/>
<path d="M118.662 64.3899L97.5526 76.7111V70.3233L118.662 58.0032V64.3899Z" fill="#131313"/>
<path d="M112.021 77.4039L106.549 74.2102L119.849 66.4474L125.322 69.6415L112.021 77.4039Z" fill="#131313"/>
<path d="M110.834 44.2964L89.725 56.6174V63.0042L110.834 50.6835V44.2964Z" fill="#131313"/>
<path d="M88.5373 54.5603L101.837 46.7975L96.3653 43.6039L83.0654 51.3663L88.5373 54.5603Z" fill="#131313"/>
<path d="M246.657 55.3832H250.03V57.284C250.472 56.5928 251.058 56.036 251.789 55.6136C252.539 55.172 253.413 54.9512 254.413 54.9512C255.412 54.9512 256.277 55.1624 257.008 55.5848C257.757 55.988 258.324 56.5928 258.709 57.3992C259.112 58.1864 259.314 59.1464 259.314 60.2792V70.1H255.854V60.5672C255.854 59.7224 255.652 59.0504 255.249 58.5512C254.864 58.0328 254.249 57.7736 253.403 57.7736C252.827 57.7736 252.289 57.9176 251.789 58.2056C251.289 58.4936 250.885 58.9544 250.578 59.588C250.27 60.2024 250.117 60.9704 250.117 61.892V70.1H246.657V55.3832Z" fill="#131313"/>
<path d="M236.085 70.532C234.663 70.532 233.375 70.2056 232.221 69.5528C231.068 68.8808 230.165 67.9496 229.511 66.7592C228.858 65.5688 228.531 64.2248 228.531 62.7272C228.531 61.2488 228.858 59.9144 229.511 58.724C230.165 57.5336 231.068 56.612 232.221 55.9592C233.375 55.2872 234.663 54.9512 236.085 54.9512C237.488 54.9512 238.766 55.2872 239.92 55.9592C241.073 56.612 241.976 57.5336 242.63 58.724C243.283 59.9144 243.61 61.2488 243.61 62.7272C243.61 64.2248 243.283 65.5688 242.63 66.7592C241.976 67.9496 241.073 68.8808 239.92 69.5528C238.766 70.2056 237.488 70.532 236.085 70.532ZM236.085 67.7384C236.892 67.7384 237.594 67.5464 238.19 67.1624C238.786 66.7783 239.247 66.2119 239.574 65.4632C239.92 64.6951 240.093 63.7832 240.093 62.7272C240.093 61.6904 239.92 60.7976 239.574 60.0488C239.247 59.3 238.786 58.7336 238.19 58.3496C237.594 57.9464 236.892 57.7448 236.085 57.7448C235.278 57.7448 234.566 57.9464 233.951 58.3496C233.355 58.7336 232.885 59.3 232.539 60.0488C232.212 60.7976 232.048 61.6904 232.048 62.7272C232.048 63.7832 232.212 64.6951 232.539 65.4632C232.885 66.2119 233.355 66.7783 233.951 67.1624C234.566 67.5464 235.278 67.7384 236.085 67.7384Z" fill="#131313"/>
<path d="M218.256 76.148C216.315 76.148 214.786 75.764 213.672 74.996C212.576 74.228 211.922 73.1048 211.711 71.6264H215.286C215.44 72.26 215.767 72.7304 216.266 73.0376C216.785 73.3448 217.487 73.4984 218.371 73.4984C219.582 73.4984 220.495 73.1912 221.11 72.5768C221.725 71.9624 222.033 71.0696 222.033 69.8984V67.4216C221.648 68.1128 221.072 68.6696 220.303 69.092C219.553 69.5144 218.66 69.7256 217.622 69.7256C216.411 69.7256 215.305 69.4472 214.306 68.8904C213.306 68.3144 212.518 67.4696 211.942 66.356C211.365 65.2424 211.077 63.908 211.077 62.3528C211.077 60.8168 211.365 59.492 211.942 58.3784C212.518 57.2648 213.306 56.42 214.306 55.844C215.305 55.268 216.411 54.98 217.622 54.98C218.621 54.98 219.515 55.2008 220.303 55.6424C221.091 56.0648 221.668 56.612 222.033 57.284V55.3832H225.464V69.7544C225.464 70.9832 225.204 72.0776 224.685 73.0376C224.186 73.9976 223.398 74.756 222.321 75.3128C221.245 75.8696 219.89 76.148 218.256 76.148ZM218.314 67.076C219.063 67.076 219.717 66.8744 220.274 66.4712C220.851 66.068 221.293 65.5112 221.6 64.8008C221.927 64.0712 222.091 63.2552 222.091 62.3528C222.091 61.4312 221.927 60.6152 221.6 59.9048C221.293 59.1944 220.851 58.6376 220.274 58.2344C219.717 57.8312 219.063 57.6296 218.314 57.6296C217.545 57.6296 216.882 57.8216 216.324 58.2056C215.767 58.5896 215.344 59.1368 215.056 59.8472C214.767 60.5384 214.623 61.3736 214.623 62.3528C214.623 63.8312 214.94 64.9928 215.574 65.8376C216.209 66.6632 217.122 67.076 218.314 67.076Z" fill="#131313"/>
<path d="M200.047 70.5032C198.567 70.5032 197.317 70.1192 196.299 69.3512C195.299 68.564 194.799 67.46 194.799 66.0392C194.799 64.9448 195.097 64.0904 195.693 63.476C196.308 62.8424 197.02 62.4008 197.827 62.1512C198.634 61.9016 199.576 61.7 200.652 61.5464L201.719 61.4312C202.469 61.3352 203.046 61.22 203.449 61.0856C203.872 60.9512 204.18 60.7592 204.372 60.5096C204.583 60.26 204.689 59.9048 204.689 59.444C204.689 58.8296 204.458 58.3496 203.997 58.004C203.555 57.6392 202.921 57.4568 202.094 57.4568C201.287 57.4568 200.633 57.62 200.133 57.9464C199.634 58.2536 199.326 58.6664 199.211 59.1848H195.434C195.607 58.3592 195.972 57.6296 196.529 56.996C197.106 56.3624 197.865 55.8632 198.807 55.4984C199.749 55.1336 200.854 54.9512 202.123 54.9512C203.469 54.9512 204.583 55.1336 205.468 55.4984C206.352 55.844 207.005 56.3624 207.428 57.0536C207.87 57.7448 208.091 58.58 208.091 59.5592V66.5576C208.091 67.1336 208.139 67.7384 208.235 68.372C208.332 68.9864 208.447 69.5624 208.581 70.1H205.15C204.997 69.4088 204.891 68.7656 204.833 68.1704C204.43 68.8232 203.815 69.38 202.988 69.8408C202.181 70.2824 201.2 70.5032 200.047 70.5032ZM200.998 67.8536C201.729 67.8536 202.373 67.6904 202.93 67.364C203.488 67.0376 203.92 66.5864 204.228 66.0104C204.535 65.4152 204.689 64.7624 204.689 64.052V62.468C204.439 62.7944 204.093 63.0536 203.651 63.2456C203.228 63.4184 202.584 63.572 201.719 63.7064C200.566 63.8984 199.73 64.1384 199.211 64.4264C198.692 64.7144 198.432 65.2136 198.432 65.924C198.432 66.5384 198.673 67.0184 199.153 67.364C199.634 67.6904 200.249 67.8536 200.998 67.8536Z" fill="#131313"/>
<path d="M186.247 70.532C184.844 70.532 183.585 70.2152 182.47 69.5816C181.355 68.948 180.481 68.0552 179.846 66.9032C179.231 65.732 178.924 64.3496 178.924 62.756C178.924 61.22 179.241 59.8664 179.875 58.6952C180.51 57.5048 181.384 56.5928 182.499 55.9592C183.633 55.3064 184.911 54.98 186.334 54.98C187.564 54.98 188.65 55.2104 189.592 55.6712C190.553 56.1128 191.312 56.7176 191.869 57.4856C192.446 58.2536 192.811 59.108 192.965 60.0488H189.534C189.303 59.3576 188.919 58.8104 188.381 58.4072C187.862 58.004 187.199 57.8024 186.391 57.8024C185.642 57.8024 184.979 57.9944 184.402 58.3784C183.825 58.7624 183.364 59.3288 183.018 60.0776C182.691 60.8264 182.528 61.7192 182.528 62.756C182.528 63.812 182.691 64.7144 183.018 65.4632C183.364 66.1927 183.816 66.7496 184.373 67.1336C184.95 67.4984 185.603 67.6808 186.334 67.6808C187.179 67.6808 187.862 67.4792 188.381 67.076C188.919 66.6728 189.313 66.1352 189.563 65.4632H192.965C192.831 66.3847 192.475 67.2392 191.898 68.0264C191.322 68.7944 190.543 69.4088 189.563 69.8696C188.602 70.3112 187.497 70.532 186.247 70.532Z" fill="#131313"/>
<path d="M169.728 70.532C168.171 70.532 166.816 70.2152 165.663 69.5816C164.51 68.9288 163.616 68.0168 162.981 66.8456C162.366 65.6744 162.059 64.3112 162.059 62.756C162.059 61.2584 162.395 59.9144 163.068 58.724C163.741 57.5336 164.644 56.612 165.778 55.9592C166.912 55.2872 168.142 54.9512 169.469 54.9512C170.949 54.9512 172.237 55.2968 173.332 55.988C174.447 56.6792 175.312 57.6872 175.927 59.012C176.542 60.3176 176.859 61.892 176.879 63.7352H164.048V61.2008H174.745L173.534 62.2952C173.515 60.9128 173.159 59.7992 172.467 58.9544C171.775 58.1096 170.814 57.6872 169.584 57.6872C168.834 57.6872 168.152 57.8792 167.537 58.2632C166.941 58.628 166.461 59.1464 166.095 59.8184C165.749 60.4712 165.576 61.1912 165.576 61.9784V63.332C165.576 64.196 165.759 64.9736 166.124 65.6648C166.489 66.3368 166.98 66.8648 167.595 67.2488C168.229 67.6328 168.959 67.8248 169.786 67.8248C170.555 67.8248 171.189 67.6808 171.689 67.3928C172.208 67.1048 172.592 66.7208 172.842 66.2408H176.475C176.091 67.5464 175.302 68.5928 174.111 69.38C172.938 70.148 171.477 70.532 169.728 70.532Z" fill="#131313"/>
<path d="M142.635 49.94H149.267C151.285 49.94 153.101 50.3624 154.716 51.2072C156.33 52.052 157.589 53.2424 158.493 54.7784C159.415 56.2952 159.877 58.0424 159.877 60.02C159.877 61.9976 159.415 63.7544 158.493 65.2904C157.589 66.8072 156.33 67.988 154.716 68.8328C153.101 69.6776 151.285 70.1 149.267 70.1H142.635V49.94ZM148.978 67.0184C150.497 67.0184 151.794 66.7496 152.871 66.212C153.966 65.6552 154.793 64.8584 155.35 63.8216C155.927 62.7656 156.215 61.4984 156.215 60.02C156.215 58.5416 155.927 57.284 155.35 56.2472C154.793 55.1912 153.966 54.3944 152.871 53.8568C151.794 53.3 150.497 53.0216 148.978 53.0216H146.268V67.0184H148.978Z" fill="#131313"/>
<path d="M340.75 0.5V0H340.25V0.5H340.75ZM681 0.5H681.5V0H681V0.5ZM681 120.5V121H681.5V120.5H681ZM340.75 120.5H340.25V121H340.75V120.5ZM340.75 0.5V1H681V0.5V0H340.75V0.5ZM681 0.5H680.5V120.5H681H681.5V0.5H681ZM681 120.5V120H340.75V120.5V121H681V120.5ZM340.75 120.5H341.25V0.5H340.75H340.25V120.5H340.75Z" fill="#D6D3D1"/>
<path d="M492.141 61.7593L489.942 61.5562C488.476 61.4344 487.906 60.9062 487.906 60.0531C487.906 58.9969 488.802 58.3469 490.512 58.3469C492.141 58.3469 492.956 59.0375 493.078 60.2156H498.25C497.924 56.803 495.521 54.4062 490.634 54.4062C485.544 54.4062 482.733 57.0062 482.733 60.4188C482.733 63.628 484.485 65.3749 488.842 65.7406L491.042 65.9031C492.752 66.0249 493.363 66.5937 493.363 67.6093C493.363 68.6655 492.467 69.4781 490.634 69.4781C488.924 69.4781 487.906 68.7062 487.743 67.3656H482.285C482.774 71.0625 485.381 73.4593 490.634 73.4593C495.725 73.4593 498.576 70.8594 498.576 67.3249C498.535 63.9125 496.662 62.1656 492.141 61.7593ZM474.222 54.4062C470.964 54.4062 469.049 56.1124 468.113 59.5656H467.787V54.6907H462.655V73.1749H468.113V62.4093C468.113 59.9311 469.375 58.5906 471.656 58.5906C473.937 58.5906 475.036 59.9718 475.036 62.3686V73.1344H480.493V61.4344C480.534 56.9657 478.172 54.4062 474.222 54.4062ZM457.32 47.5C455.447 47.5 454.062 48.7187 454.062 50.5875C454.062 52.4562 455.447 53.6749 457.28 53.6749C459.112 53.6749 460.497 52.4562 460.497 50.5875C460.538 48.7594 459.153 47.5 457.32 47.5ZM460.049 54.6907H454.592V73.1749H460.049V54.6907ZM507.169 50.7906H503.667C503.545 53.7562 502.282 55.0562 499.431 55.3V59.0375H501.671V67.1625C501.671 71.2655 503.992 73.4593 508.676 73.4593C509.531 73.4593 510.427 73.3374 511.282 73.1344V68.7468C510.834 68.828 510.387 68.8687 509.979 68.828C508.024 68.828 507.169 68.0969 507.169 66.0249V59.0375H511.975V54.6907H507.169V50.7906ZM593.875 59.0375V54.6907H589.07V50.7906H585.649C585.567 52.8625 584.956 54.0406 583.613 54.6907V67.1625C583.613 71.2655 585.934 73.4593 590.617 73.4593C591.472 73.4593 592.369 73.3374 593.223 73.1344V68.7468C592.775 68.828 592.327 68.8687 591.92 68.828C589.966 68.828 589.11 68.0969 589.11 66.0249V59.0375H593.875ZM575.955 59.85H575.63V54.6907H570.58V73.1749H576.037V63.1812C576.037 60.4188 577.299 59.2405 580.15 59.2405C580.639 59.2405 581.168 59.2812 581.902 59.4032V54.65C581.413 54.4875 580.883 54.4062 580.354 54.4062C578.114 54.4062 576.608 55.6656 575.955 59.85ZM541.053 68.7875C538.488 68.7875 536.614 67.0811 536.614 63.7905C536.614 60.8656 538.325 59.0375 540.972 59.0375C543.252 59.0375 544.515 60.2968 544.922 62.3281H550.461C549.932 57.575 546.511 54.4062 541.053 54.4062C535.067 54.4062 531.116 58.4687 531.116 64.0343C531.116 69.8031 534.904 73.5 540.972 73.5C546.511 73.5 550.094 70.4124 550.583 65.4562H545.045C544.759 67.4468 543.375 68.7875 541.053 68.7875ZM521.423 54.4062C516.658 54.4062 513.807 56.7219 513.278 60.9062H518.532C518.695 59.4437 519.631 58.7124 521.301 58.7124C522.971 58.7124 523.745 59.4843 523.745 60.5812C523.745 61.475 523.175 61.9625 521.668 62.2468L519.183 62.6938C514.785 63.5062 513.115 65.2937 513.115 68.1781C513.115 71.4687 515.437 73.5 518.654 73.5C521.26 73.5 522.971 72.2813 523.745 69.2343H524.071V73.1749H529.243V61.1094C529.202 56.925 526.718 54.4062 521.423 54.4062ZM520.812 69.7624C519.346 69.7624 518.491 68.9905 518.491 67.8124C518.491 66.8375 519.061 66.1875 520.527 65.8624L521.546 65.6187C522.441 65.4156 523.093 65.1313 523.745 64.6031V66.5937C523.745 68.828 522.564 69.7624 520.812 69.7624ZM560.276 54.4062C555.511 54.4062 552.66 56.7219 552.131 60.9062H557.385C557.547 59.4437 558.484 58.7124 560.154 58.7124C561.824 58.7124 562.597 59.4843 562.597 60.5812C562.597 61.475 562.027 61.9625 560.52 62.2468L558.036 62.6938C553.638 63.5062 551.968 65.2937 551.968 68.1781C551.968 71.4687 554.289 73.5 557.507 73.5C560.113 73.5 561.824 72.2813 562.597 69.2343H562.923V73.1749H568.095V61.1094C568.095 56.925 565.57 54.4062 560.276 54.4062ZM559.665 69.7624C558.199 69.7624 557.344 68.9905 557.344 67.8124C557.344 66.8375 557.914 66.1875 559.38 65.8624L560.398 65.6187C561.294 65.4156 561.946 65.1313 562.597 64.6031V66.5937C562.597 68.828 561.416 69.7624 559.665 69.7624Z" fill="#1C1917"/>
<path d="M445.387 51.9282C444.247 51.9282 443.473 52.4156 442.74 53.4719L440.622 56.5188V47.7845H435.491V56.5188L433.373 53.4719C432.64 52.4156 431.825 51.9282 430.726 51.9282C429.015 51.9282 427.916 53.1876 427.875 54.7313C427.875 56.0312 428.486 56.925 429.789 57.7376L438.016 63.0187L446.242 57.7376C447.545 56.8845 448.197 56.0312 448.156 54.7313C448.197 53.1876 447.097 51.9282 445.387 51.9282Z" fill="#1C1917"/>
<path d="M438.057 64.278C442.944 64.278 446.976 67.9342 446.976 73.1747H429.138C429.138 67.9342 433.17 64.278 438.057 64.278Z" fill="#1C1917"/>
<path d="M681 0.5V0H680.5V0.5H681ZM1021.25 0.5H1021.75V0H1021.25V0.5ZM1021.25 120.5V121H1021.75V120.5H1021.25ZM681 120.5H680.5V121H681V120.5ZM681 0.5V1H1021.25V0.5V0H681V0.5ZM1021.25 0.5H1020.75V120.5H1021.25H1021.75V0.5H1021.25ZM1021.25 120.5V120H681V120.5V121H1021.25V120.5ZM681 120.5H681.5V0.5H681H680.5V120.5H681Z" fill="#D6D3D1"/>
<path d="M837.808 51.3504C837.186 51.7339 836.724 52.3307 836.536 53.027C835.799 52.7997 835.047 52.686 834.281 52.686C833.198 52.6717 832.128 52.8992 831.16 53.3681C830.278 53.7943 829.527 54.4337 828.992 55.2437C828.443 56.1104 828.154 57.1051 828.183 58.1282C828.154 59.1228 828.428 60.1033 828.963 60.9558C829.238 61.3679 829.57 61.7374 829.96 62.0499L829.816 62.121C829.296 62.3768 828.847 62.7746 828.53 63.2435C828.226 63.6983 828.053 64.2382 828.024 64.7782C827.995 65.3323 828.11 65.8723 828.371 66.3554C828.616 66.8243 828.992 67.208 829.469 67.4637C828.978 67.5632 828.501 67.7764 828.096 68.0747C827.764 68.3163 827.489 68.6431 827.316 69.0125C827.142 69.382 827.055 69.7941 827.07 70.1919C827.07 71.4139 827.691 72.3517 828.92 73.0195C830.148 73.6732 831.781 74 833.819 74C836.146 74 837.996 73.5738 839.369 72.7212C840.019 72.3376 840.554 71.7976 840.915 71.144C841.276 70.4903 841.45 69.7514 841.421 69.0125C841.45 68.501 841.363 67.9894 841.161 67.5205C840.958 67.0516 840.669 66.6254 840.293 66.2701C839.455 65.5739 838.386 65.2044 837.287 65.2612H836.305C835.842 65.2612 835.365 65.2896 834.845 65.3039C834.339 65.3182 833.862 65.3323 833.443 65.3466C833.01 65.3466 832.721 65.3466 832.562 65.3466C832.085 65.375 831.622 65.2612 831.218 65.0339C831.059 64.9345 830.929 64.8066 830.842 64.6361C830.755 64.4797 830.712 64.295 830.726 64.1103C830.726 63.9256 830.77 63.7408 830.842 63.5703C830.914 63.3998 831.03 63.2578 831.174 63.1298C831.275 63.0446 831.377 62.9736 831.478 62.9025C832.316 63.2151 833.198 63.3714 834.079 63.3714C835.149 63.3857 836.204 63.1725 837.172 62.7178C837.837 62.3768 838.429 61.9079 838.906 61.3253C839.383 60.7569 839.73 60.0891 839.932 59.3786C840.135 58.6682 840.192 57.9293 840.106 57.1903C840.004 56.4514 839.773 55.7552 839.383 55.1158C839.108 54.718 838.79 54.3485 838.4 54.0359C838.53 53.908 838.689 53.8086 838.863 53.7375C839.455 53.5243 840.351 53.5243 841.565 53.7802V50.8956C840.033 50.5972 838.79 50.7393 837.837 51.3504H837.808ZM832.157 68.0463H836.839C837.316 68.0179 837.779 68.1599 838.14 68.4442C838.285 68.572 838.415 68.7426 838.487 68.9273C838.559 69.112 838.603 69.3109 838.603 69.5098C838.603 70.2772 838.198 70.8597 837.403 71.2718C836.608 71.6839 835.495 71.8828 834.065 71.8828C832.634 71.8828 831.666 71.6982 830.972 71.3145C830.278 70.9308 829.946 70.4192 829.946 69.7941C829.946 69.3536 830.134 68.9415 830.423 68.6289C830.741 68.2594 831.333 68.0747 832.171 68.0747L832.157 68.0463ZM836.435 60.2454C836.001 60.6859 835.452 60.9985 834.831 61.1264C834.224 61.2542 833.588 61.1974 833.01 60.9558C832.432 60.7143 831.94 60.3164 831.608 59.7906C831.275 59.2792 831.102 58.6682 831.131 58.0571C831.117 57.6593 831.174 57.2756 831.319 56.9062C831.463 56.5367 831.68 56.1957 831.955 55.9115C832.258 55.6415 832.62 55.4284 832.995 55.2863C833.385 55.1442 833.79 55.0874 834.209 55.1158C834.614 55.0874 835.018 55.1584 835.409 55.2863C835.784 55.4284 836.146 55.6415 836.435 55.9115C836.97 56.5083 837.259 57.2756 837.259 58.0713C837.259 58.8671 836.97 59.6344 836.435 60.2311V60.2454Z" fill="#1C1917"/>
<path d="M799.481 47.9542L792.125 68.1315H795.319L797.443 62.192H805.435L807.56 68.1315H810.869L803.513 47.9542H799.481ZM798.455 59.3928L801.461 51.0376L804.453 59.3928H798.455Z" fill="#1C1917"/>
<path d="M824.584 55.1016C824.151 54.3485 823.5 53.7375 822.72 53.3396C821.925 52.9275 821.029 52.7145 820.133 52.7286C819.425 52.7286 818.717 52.8423 818.037 53.0839C817.387 53.3112 816.795 53.6523 816.274 54.0928C816.043 54.3058 815.826 54.5474 815.653 54.8032V53.0128H812.459V68.1458H815.667V58.5829C815.638 57.9293 815.812 57.2898 816.159 56.7356C816.477 56.281 816.91 55.9257 817.43 55.7268C817.936 55.5279 818.485 55.4284 819.02 55.4284C819.829 55.3857 820.624 55.6557 821.246 56.1673C821.809 56.6504 822.098 57.4461 822.098 58.5119V68.1174H825.249V57.9861C825.278 56.9772 825.047 55.9826 824.555 55.0874H824.57L824.584 55.1016Z" fill="#1C1917"/>
<path d="M884.401 53.027H881.207V68.1601H884.401V53.027Z" fill="#1C1917"/>
<path d="M890.109 56.352C890.254 56.0963 890.456 55.8831 890.701 55.7269C891.309 55.3432 892.031 55.1585 892.768 55.1869C893.823 55.1869 894.633 55.4285 895.167 55.8974C895.687 56.352 896.049 56.963 896.179 57.6451H899.272C899.243 57.0625 899.084 56.48 898.824 55.9542C898.52 55.3432 898.101 54.8032 897.595 54.3627C897.017 53.8512 896.338 53.4392 895.601 53.1833C893.722 52.5439 891.67 52.5866 889.806 53.2971C888.953 53.6381 888.23 54.2065 887.695 54.9453C887.146 55.741 886.872 56.6931 886.915 57.6594C886.886 58.3698 887.045 59.0945 887.406 59.7197C887.724 60.2454 888.158 60.6717 888.693 60.97C889.242 61.2827 889.849 61.51 890.47 61.6664C891.106 61.8085 891.757 61.9221 892.407 62.0074C893.332 62.1069 894.242 62.3058 895.138 62.6184C895.442 62.7179 895.716 62.9168 895.89 63.1868C896.063 63.4568 896.15 63.7694 896.136 64.0962C896.136 64.3946 896.078 64.6788 895.933 64.9345C895.789 65.1902 895.586 65.4034 895.326 65.5597C894.661 65.9292 893.91 66.0996 893.144 66.0571C892.074 66.0571 891.236 65.8297 890.658 65.375C890.08 64.9488 889.69 64.3378 889.545 63.6414H886.453C886.554 64.494 886.857 65.304 887.349 66.0002C887.898 66.7817 888.649 67.3927 889.531 67.7906C890.658 68.2737 891.872 68.501 893.101 68.4726C894.936 68.4726 896.41 68.0748 897.508 67.2649C898.607 66.4549 899.17 65.304 899.17 63.8119C899.199 63.0873 899.026 62.3769 898.679 61.7374C898.361 61.2116 897.913 60.7711 897.378 60.4586C896.815 60.1317 896.222 59.8901 895.586 59.7339C894.936 59.5776 894.286 59.4355 893.621 59.3502C892.898 59.2366 892.262 59.1087 891.699 58.9807C891.222 58.8813 890.774 58.6824 890.398 58.3982C890.239 58.2561 890.109 58.0856 890.037 57.8867C889.95 57.6878 889.921 57.4746 889.936 57.2614C889.936 56.9489 889.993 56.6647 890.138 56.4089L890.109 56.352Z" fill="#1C1917"/>
<path d="M884.14 47.5563C883.967 47.3574 883.765 47.2295 883.534 47.1301C883.302 47.0448 883.057 46.988 882.811 47.0022C882.551 47.0022 882.305 47.0448 882.06 47.1301C881.828 47.2295 881.612 47.3715 881.438 47.5563C881.265 47.7267 881.12 47.9399 881.034 48.1671C880.947 48.3944 880.889 48.6359 880.904 48.8775C880.904 49.1331 880.947 49.3746 881.034 49.6019C881.12 49.8293 881.265 50.0423 881.438 50.2271C881.612 50.4117 881.828 50.5538 882.06 50.6391C882.291 50.7385 882.551 50.781 882.811 50.7669C883.057 50.7669 883.302 50.7242 883.534 50.6391C883.765 50.5396 883.967 50.3975 884.14 50.2271C884.314 50.0423 884.458 49.8434 884.545 49.6019C884.632 49.3746 884.69 49.119 884.675 48.8775C884.675 48.6359 884.632 48.3944 884.545 48.1671C884.458 47.9399 884.314 47.7267 884.14 47.5563Z" fill="#1C1917"/>
<path d="M910.125 55.7268V53.027H906.237V49.4036H903.015V53.027H900.11V55.7268H903.015V63.1299C903.015 64.8207 903.404 66.0997 904.199 66.9806C904.994 67.8474 906.223 68.2879 907.914 68.2879C908.651 68.2879 909.388 68.2026 910.111 68.089V65.3465C909.634 65.4603 909.142 65.5171 908.636 65.5171C907.668 65.5171 907.032 65.2755 906.715 64.7782C906.367 64.1672 906.195 63.4709 906.237 62.7746V55.7125H910.125V55.7268Z" fill="#1C1917"/>
<path d="M869.545 47.9545H866.351V68.1318H878.982V65.304H869.545V47.9545Z" fill="#1C1917"/>
<path d="M853.43 53.5101C852.375 52.9702 851.219 52.7002 850.034 52.7144C848.762 52.7144 847.505 53.0128 846.392 53.6096C845.25 54.2348 844.326 55.1585 843.733 56.2952C843.025 57.6735 842.678 59.1939 842.736 60.7285C842.707 62.1353 842.996 63.5278 843.588 64.8066C844.123 65.9291 844.976 66.867 846.06 67.4922C847.259 68.1458 848.603 68.4726 849.976 68.43C851.523 68.4726 853.055 68.0321 854.341 67.1795C855.555 66.3271 856.407 65.0624 856.711 63.6273H853.459C853.286 64.2667 852.881 64.835 852.317 65.2045C851.667 65.6023 850.901 65.8012 850.135 65.7728C848.762 65.7728 847.722 65.3039 846.999 64.3803C846.363 63.4993 845.988 62.4479 845.944 61.368H856.783C856.798 61.0554 856.812 60.7285 856.812 60.3875C856.812 58.5972 856.509 57.1478 855.887 56.0252C855.352 54.9737 854.485 54.107 853.43 53.5386V53.5101ZM846.016 58.995C846.132 58.1424 846.464 57.3325 846.985 56.6504C847.346 56.2099 847.794 55.8547 848.314 55.6131C848.835 55.3716 849.413 55.2721 849.976 55.3005C850.656 55.3005 851.335 55.4569 851.942 55.7837C852.549 56.1531 853.026 56.7073 853.286 57.3609C853.503 57.8867 853.618 58.4408 853.633 59.0091H846.002L846.016 58.995Z" fill="#1C1917"/>
<path d="M862.737 47.9545H859.543V68.1175H862.737V47.9545Z" fill="#1C1917"/>
<path d="M1021.25 0.5V0H1020.75V0.5H1021.25ZM1361.5 0.5H1362V0H1361.5V0.5ZM1361.5 120.5V121H1362V120.5H1361.5ZM1021.25 120.5H1020.75V121H1021.25V120.5ZM1021.25 0.5V1H1361.5V0.5V0H1021.25V0.5ZM1361.5 0.5H1361V120.5H1361.5H1362V0.5H1361.5ZM1361.5 120.5V120H1021.25V120.5V121H1361.5V120.5ZM1021.25 120.5H1021.75V0.5H1021.25H1020.75V120.5H1021.25Z" fill="#D6D3D1"/>
<path fill-rule="evenodd" clip-rule="evenodd" d="M1250.58 66.9634L1250.51 66.1815C1250.51 66.0393 1250.02 62.8404 1252.21 60.5656C1252.84 59.9258 1253.62 59.4993 1254.32 59.4993C1254.89 59.4993 1255.38 59.7837 1255.67 60.2813C1256.8 62.6982 1250.58 66.9634 1250.58 66.9634ZM1241.19 61.9163L1241.12 60.5656V60.4234C1241.12 60.3524 1240.84 56.0871 1241.12 53.0304C1241.41 49.6893 1242.39 47.5567 1243.59 47.5567C1243.81 47.5567 1244.09 47.6989 1244.23 47.9122C1244.79 48.6941 1245.01 50.6846 1244.65 52.4617C1244.02 55.3052 1243.1 57.6511 1242.39 59.2861C1242.18 59.7837 1242.04 60.2102 1241.9 60.5656L1241.19 61.9163ZM1234.63 70.9443C1233.08 70.9443 1232.37 69.4515 1232.37 68.1008C1232.37 60.921 1236.25 59.4993 1238.02 60.068C1238.02 60.068 1238.09 61.4187 1238.23 63.1958C1238.37 64.6886 1238.44 66.5369 1238.51 66.6791C1238.51 66.6791 1237.03 70.9443 1234.63 70.9443ZM1222.21 60.3524C1222.21 60.3524 1221.78 70.9443 1217.83 70.9443C1215.92 70.9443 1215.78 68.8117 1215.78 68.1719C1215.78 60.6367 1221.43 59.2861 1222.21 60.3524ZM1185.57 71.2286C1183.31 71.2286 1182.46 68.9539 1182.46 66.8213C1182.46 62.9115 1184.72 59.9258 1186.63 59.9258C1188.53 59.9258 1189.17 62.556 1189.17 64.2621C1189.17 68.1719 1187.61 71.2286 1185.57 71.2286ZM1149.35 62.2006C1148.08 64.2621 1145.05 66.2526 1144.2 66.608C1144.2 66.608 1143.56 62.6271 1146.81 60.2813C1149.21 58.5041 1150.34 60.7078 1149.35 62.2006ZM1248.47 71.5841C1249.38 73.0769 1251.01 73.7878 1253.34 73.7878C1255.88 73.7878 1258.56 71.8684 1260.04 70.0202C1260.96 68.9539 1261.03 68.3141 1260.68 67.9586C1260.33 67.6743 1259.55 68.0297 1258.84 68.6695C1257.93 69.5225 1255.88 70.8021 1254.18 70.8021C1252.07 70.8021 1251.08 69.3804 1251.08 69.3804C1255.38 66.7502 1258.56 63.6934 1258.56 61.1343C1258.56 58.2197 1256.44 56.9402 1254.32 56.9402C1250.58 56.9402 1246.49 60.4234 1246.49 66.0393C1246.49 67.8876 1247.12 69.4515 1247.12 69.4515C1247.12 69.4515 1246.35 70.6599 1244.02 70.4467C1241.48 70.2334 1241.62 65.6128 1241.62 65.6128C1241.62 65.6128 1242.39 64.191 1242.68 63.6223C1244.37 60.4234 1246.7 56.0871 1247.12 50.8978C1247.34 47.9833 1246.49 46.4193 1245.78 45.6374C1245.15 44.9265 1244.3 44.5 1243.45 44.5C1240.56 44.5 1238.51 47.5567 1238.02 50.5424C1237.52 53.4569 1237.74 57.8643 1237.74 57.8643C1237.74 57.8643 1235.12 57.2245 1232.44 59.0017C1230.04 60.6367 1228.98 63.9778 1228.63 65.6128C1228.49 66.3947 1228.42 67.1767 1228.49 67.9586C1228.49 68.3141 1228.63 69.0249 1228.63 69.0249C1228.63 69.0249 1227.78 70.8732 1226.23 70.8732C1223.76 70.8732 1225.38 59.215 1225.45 58.5752C1225.52 58.0776 1225.88 56.9402 1224.11 56.8691C1223.05 56.798 1222.63 57.2245 1222.56 57.7221L1222.49 58.2197C1222.49 58.2197 1218.89 55.7317 1214.86 60.2102C1212.68 62.556 1211.9 65.9682 1211.9 68.7406V68.8828C1211.9 68.8828 1210.98 71.513 1208.93 71.0865C1207.52 70.8021 1207.38 68.3141 1207.38 67.3899C1207.38 65.5417 1207.8 63.4802 1208.16 61.8452C1208.37 60.7789 1208.58 59.9258 1208.58 59.4282C1208.58 57.6511 1208.09 56.9402 1206.96 56.9402C1205.4 56.9402 1203.99 58.2198 1202.44 60.1391C1200.46 62.6271 1198.98 66.3947 1198.98 66.3947C1198.98 66.3947 1199.05 65.6839 1199.12 65.0441C1199.19 64.6176 1199.33 62.6271 1199.69 60.85C1199.9 59.8547 1199.97 59.0728 1199.97 58.9306C1200.04 58.433 1199.9 58.0065 1199.69 57.7221C1199.4 57.4378 1199.05 57.2245 1198.63 57.2245C1197.92 57.2245 1197.07 57.7221 1196.65 59.0017C1196.44 59.5704 1196.37 59.9969 1196.23 60.7078L1196.09 61.3476L1195.59 60.921C1193.69 59.1439 1191.07 57.0824 1187.26 57.0824C1181.97 57.0824 1179.07 62.0584 1179.07 66.7502C1179.07 67.3189 1179.14 67.8876 1179.14 68.3852V68.5984C1179.14 68.5984 1178.01 71.2997 1176.11 70.8021C1175.26 70.5889 1174.7 69.6647 1174.7 67.461C1174.7 65.6128 1175.05 63.1247 1175.26 61.703C1175.33 61.2054 1175.4 60.7789 1175.4 60.6367L1175.47 60.068C1175.61 58.433 1175.68 57.6511 1175.12 57.2956C1174.7 57.0113 1174.27 56.9402 1173.85 56.9402C1173.43 56.9402 1173.07 57.1534 1172.72 57.3667C1172.23 57.7221 1170.67 59.8547 1167.71 64.7597C1167.64 64.8308 1167.64 64.9019 1167.64 64.9019L1167.28 65.5417L1166.51 67.2478L1166.93 64.6886V64.5465C1167 64.12 1167.14 63.338 1167.14 63.1247L1167.28 62.556C1167.5 61.703 1167.92 59.8547 1167.99 59.4993C1168.2 58.433 1168.13 57.7221 1167.78 57.2956C1167.57 57.0113 1167.14 56.8691 1166.58 56.8691C1165.52 56.8691 1164.6 57.7221 1163.12 60.1391C1162.91 60.4945 1161.99 61.9873 1161.28 63.1247C1160.37 64.6176 1159.59 65.7549 1159.59 65.7549L1159.8 63.7645C1159.94 62.8404 1160.51 58.7174 1160.51 58.5041C1160.51 57.6511 1160.08 57.2245 1159.17 57.2245C1158.81 57.2245 1157.9 57.2956 1157.47 58.0776C1157.12 58.7884 1156.13 61.9873 1155.71 66.8213C1155.71 66.8213 1151.97 70.5178 1147.94 70.5178C1146.46 70.5178 1145.26 69.9491 1144.84 68.8117C1144.84 68.8117 1146.95 67.6743 1148.01 66.9634C1150.62 65.1152 1152.53 63.2669 1152.53 60.85C1152.53 57.9354 1149.85 56.5848 1147.66 56.8691C1143.85 57.3667 1140.67 61.4187 1140.67 66.1104C1140.67 70.5178 1143.07 73.7167 1147.31 73.7167C1152.18 73.7167 1155.57 69.6647 1155.57 69.6647L1155.49 71.513C1155.42 72.5082 1155.85 73.7167 1157.4 73.7167C1157.82 73.7167 1158.6 73.5745 1159.02 72.6504C1161.5 67.1056 1164.11 62.6982 1164.18 62.6982L1164.67 61.703L1165.38 60.5656L1164.81 63.0537C1164.74 63.6223 1163.82 68.5984 1163.75 70.8021C1163.68 71.9395 1163.68 73.0058 1164.11 73.5034C1164.32 73.7167 1164.67 73.8588 1165.17 73.8588C1166.37 73.8588 1167.07 73.4323 1167.35 72.6504C1169.26 66.7502 1171.38 62.7693 1171.45 62.6271L1172.58 60.3524C1172.58 60.3524 1171.73 65.2573 1171.73 68.5984C1171.73 70.2334 1172.01 73.148 1174.27 73.6456C1177.73 74.4986 1179.85 70.8732 1179.85 70.8732L1180.06 71.513C1181.05 73.2191 1182.67 74.0721 1184.79 74.0721C1189.17 74.0721 1191.99 70.5889 1191.99 65.2573C1191.99 61.9163 1190.51 59.9969 1190.51 59.9969C1190.51 59.9969 1192.2 60.5656 1193.4 61.4897C1194.74 62.485 1195.66 63.4802 1195.66 63.4802V63.6934C1195.59 63.9778 1195.59 64.191 1195.52 64.4754C1195.38 65.4706 1195.24 66.608 1195.17 67.6743C1195.1 68.6695 1195.03 69.5936 1195.03 70.4467C1195.03 70.9443 1195.03 71.3708 1195.1 71.7973C1195.17 72.2238 1195.24 72.5793 1195.38 72.9347C1195.45 73.0058 1195.87 73.9299 1196.93 73.9299C1197.64 73.9299 1198.13 73.6456 1198.49 72.8636C1201.87 64.8308 1204.63 62.2006 1204.84 61.9874C1205.47 61.2765 1205.19 62.556 1205.19 62.556V62.6982C1205.19 62.6982 1204.77 65.4706 1204.7 66.2526C1204.63 67.1056 1204.56 67.8165 1204.56 68.5984C1204.56 70.8732 1205.05 73.4323 1207.66 73.7878C1211.19 74.3565 1212.39 71.513 1212.39 71.513C1212.39 71.513 1213.66 73.8588 1216.7 73.8588C1221.15 73.8588 1222.49 70.4467 1222.49 70.4467C1222.98 72.5082 1223.76 73.6456 1225.81 73.6456C1227.99 73.6456 1229.48 71.1575 1229.48 71.1575C1229.48 71.1575 1230.75 73.8588 1233.78 73.8588C1237.31 73.8588 1239.15 71.1575 1239.22 71.0154L1239.64 70.3756C1239.64 70.3756 1240.77 73.3612 1243.74 73.5034C1246.56 73.5745 1248.47 71.5841 1248.47 71.5841ZM1127.19 72.6504C1124.08 72.5082 1123.87 70.0912 1126.76 69.4515C1129.38 68.8828 1131.56 69.8069 1131.56 69.8069C1131.56 69.8069 1130.93 72.7925 1127.19 72.6504ZM1141.02 47.8411C1142.86 47.9833 1142.72 50.5424 1142.22 52.1063C1140.81 56.798 1137.35 56.9402 1137.35 56.9402C1137.35 56.9402 1138.41 47.6278 1141.02 47.8411ZM1137.07 59.1439C1137.07 59.1439 1142.86 59.215 1144.84 52.3195C1145.96 48.2676 1144.34 44.8554 1140.95 44.7843C1137.56 44.7133 1134.88 47.77 1133.68 56.9402C1133.68 56.9402 1130.36 56.5137 1128.95 53.8835C1128.25 52.6039 1127.19 53.2437 1127.54 54.3811C1128.67 58.3619 1133.47 59.0017 1133.47 59.0017C1133.47 59.0017 1133.19 60.7789 1132.91 62.9826C1132.62 65.1152 1132.13 67.7454 1132.13 67.7454C1132.13 67.7454 1129.09 66.7502 1125.78 67.461C1120.76 68.5273 1120.2 74.783 1126.34 75.4228C1133.54 76.1336 1134.88 71.0865 1134.88 71.0865C1134.88 71.0865 1136.29 71.7973 1138.27 73.5745C1140.53 75.5649 1141.52 76.8445 1141.94 76.418C1142.44 75.9204 1141.31 74.2143 1139.26 72.0106C1136.93 69.5226 1135.31 68.8828 1135.31 68.8828C1135.31 68.8828 1135.66 67.2478 1136.08 64.6176C1136.65 61.8452 1137.07 59.1439 1137.07 59.1439Z" fill="#1C1917"/>
<path d="M0.5 120.5V120H0V120.5H0.5ZM340.75 120.5H341.25V120H340.75V120.5ZM340.75 240.5V241H341.25V240.5H340.75ZM0.5 240.5H0V241H0.5V240.5ZM0.5 120.5V121H340.75V120.5V120H0.5V120.5ZM340.75 120.5H340.25V240.5H340.75H341.25V120.5H340.75ZM340.75 240.5V240H0.5V240.5V241H340.75V240.5ZM0.5 240.5H1V120.5H0.5H0V240.5H0.5Z" fill="#D6D3D1"/>
<path d="M203.601 169.187C198.356 169.187 194.078 173.42 194.078 178.661C194.078 183.876 198.356 188.135 203.601 188.135C208.847 188.135 213.125 183.876 213.125 178.661C213.125 173.42 208.847 169.187 203.601 169.187ZM203.601 183.624C200.826 183.624 198.585 181.382 198.585 178.635C198.585 175.889 200.826 173.647 203.601 173.647C206.352 173.647 208.618 175.889 208.618 178.635C208.618 181.382 206.352 183.624 203.601 183.624ZM175.54 176.72L173.884 175.889C173.171 175.536 172.713 175.259 172.535 175.057C172.357 174.881 172.255 174.629 172.255 174.402C172.255 174.075 172.407 173.823 172.688 173.596C172.968 173.369 173.375 173.269 173.884 173.269C174.827 173.269 175.845 173.823 176.991 174.957L179.792 172.16C179.105 171.228 178.188 170.472 177.144 169.943C176.125 169.439 174.979 169.161 173.834 169.187C172.127 169.187 170.701 169.691 169.606 170.698C168.511 171.706 167.951 172.916 167.951 174.352C167.951 176.544 169.403 178.384 172.331 179.845L173.859 180.601C175.183 181.256 175.845 181.936 175.845 182.642C175.845 183.02 175.667 183.347 175.31 183.65C174.954 183.927 174.47 184.078 173.859 184.078C173.299 184.078 172.662 183.876 171.949 183.498C171.236 183.12 170.6 182.617 170.09 182.012L167.289 185.035C168.868 187.076 170.982 188.109 173.604 188.109C175.591 188.109 177.169 187.58 178.341 186.497C179.512 185.439 180.123 184.103 180.123 182.491C180.123 181.281 179.792 180.248 179.156 179.341C178.493 178.459 177.297 177.602 175.54 176.72ZM147.274 186.043V169.565H142.742V170.673C141.214 169.691 139.431 169.187 137.623 169.187C132.403 169.187 128.125 173.42 128.125 178.635C128.125 183.851 132.403 188.109 137.649 188.109C139.431 188.109 141.188 187.605 142.716 186.673C142.716 186.824 142.716 186.95 142.716 187.026C142.716 189.772 140.475 192.015 137.7 192.015C136.757 192.015 135.841 191.738 135.051 191.259L132.81 195.139C134.287 196.021 135.968 196.5 137.7 196.5C142.945 196.5 147.274 192.242 147.274 187.026C147.274 186.824 147.3 186.245 147.274 186.043ZM137.649 183.624C134.899 183.624 132.632 181.382 132.632 178.635C132.632 175.889 134.873 173.647 137.649 173.647C140.424 173.647 142.665 175.889 142.665 178.635C142.665 181.382 140.399 183.624 137.649 183.624ZM165.277 169.539H160.745V178.535C160.745 179.82 160.745 182.012 159.803 182.969C159.344 183.423 158.86 183.826 157.816 183.826C156.772 183.826 156.263 183.423 155.805 182.969C154.863 182.037 154.863 179.82 154.863 178.535V169.539H150.33V178.509C150.304 180.374 150.304 183.801 152.571 186.069C153.895 187.404 155.499 188.084 157.791 188.084C160.083 188.084 161.687 187.404 163.011 186.069C165.277 183.801 165.277 180.349 165.252 178.509L165.277 169.539ZM191.022 182.818C190.665 183.095 189.774 183.7 188.781 183.574C187.966 183.473 187.304 182.868 187.202 180.878V173.395H192.55V169.539H187.202V164.5H182.67V180.273C182.67 182.617 183.255 188.084 188.781 188.084C191.557 188.034 193.263 186.547 193.976 185.943L194.078 185.867L191.353 182.541C191.328 182.591 191.149 182.743 191.022 182.818Z" fill="#1C1917"/>
<path d="M340.75 120.5V120H340.25V120.5H340.75ZM681 120.5H681.5V120H681V120.5ZM681 240.5V241H681.5V240.5H681ZM340.75 240.5H340.25V241H340.75V240.5ZM340.75 120.5V121H681V120.5V120H340.75V120.5ZM681 120.5H680.5V240.5H681H681.5V120.5H681ZM681 240.5V240H340.75V240.5V241H681V240.5ZM340.75 240.5H341.25V120.5H340.75H340.25V240.5H340.75Z" fill="#D6D3D1"/>
<path fill-rule="evenodd" clip-rule="evenodd" d="M458.792 178.618C458.792 171.711 457.646 168.848 454.497 168.848C451.719 168.848 450.316 170.855 450.316 177.821C450.316 184.698 451.404 187.532 454.611 187.532C457.446 187.532 458.792 185.554 458.792 178.618ZM444.875 178.441C444.875 170.678 450.058 167.608 454.669 167.608C459.594 167.608 464.233 170.649 464.233 177.969C464.233 185.791 459.05 188.772 454.439 188.772C449.514 188.772 444.875 185.525 444.875 178.441Z" fill="#1C1917"/>
<path fill-rule="evenodd" clip-rule="evenodd" d="M487.555 178.943L492.451 178.677C492.451 175.106 491.993 173.807 490.275 173.807C488.815 173.807 487.67 175.224 487.555 178.943ZM483.031 180.684C483.031 175.548 486.725 172.685 490.504 172.685C494.409 172.685 496.86 174.674 497 179.878C497.002 179.979 496.923 180.065 496.824 180.065H487.735C487.636 180.065 487.557 180.15 487.559 180.251C487.687 184.94 489.454 186.234 492.365 186.234C493.786 186.234 494.932 185.893 495.89 185.455C495.961 185.423 496.043 185.442 496.093 185.502L496.474 185.964C496.531 186.034 496.531 186.137 496.47 186.203C495.425 187.338 493.299 188.772 490.504 188.772C485.522 188.772 483.031 185.702 483.031 180.684Z" fill="#1C1917"/>
<path fill-rule="evenodd" clip-rule="evenodd" d="M541.998 180.92C541.998 174.958 540.882 173.836 538.934 173.836C537.13 173.836 536.071 175.194 536.071 180.271C536.071 186.322 537.015 187.621 539.106 187.621C540.824 187.621 541.998 186.588 541.998 180.92ZM531.26 180.773C531.26 175.106 535.154 172.685 539.02 172.685C543.172 172.685 546.809 175.253 546.809 180.625C546.809 186.293 542.972 188.772 539.02 188.772C534.868 188.772 531.26 186.174 531.26 180.773Z" fill="#1C1917"/>
<path fill-rule="evenodd" clip-rule="evenodd" d="M559.079 180.92C559.079 174.958 557.961 173.836 556.014 173.836C554.21 173.836 553.151 175.194 553.151 180.271C553.151 186.322 554.096 187.621 556.186 187.621C557.905 187.621 559.079 186.588 559.079 180.92ZM548.34 180.773C548.34 175.106 552.234 172.685 556.101 172.685C560.253 172.685 563.89 175.253 563.89 180.625C563.89 186.293 560.052 188.772 556.101 188.772C551.949 188.772 548.34 186.174 548.34 180.773Z" fill="#1C1917"/>
<path fill-rule="evenodd" clip-rule="evenodd" d="M508.772 172.685C506.682 172.685 504.792 173.659 503.274 174.781H503.16L503.216 172.92C503.221 172.777 503.101 172.664 502.964 172.68L498.957 173.148C498.84 173.162 498.75 173.264 498.75 173.386V188.184C498.75 188.313 498.852 188.418 498.977 188.418H503.076C503.201 188.418 503.303 188.313 503.303 188.184V175.814C503.933 175.666 504.964 175.43 505.966 175.43C507.312 175.43 507.942 175.991 507.942 177.792V188.184C507.942 188.313 508.043 188.418 508.169 188.418H512.296C512.421 188.418 512.523 188.313 512.523 188.184V176.641C512.523 173.984 511.206 172.685 508.772 172.685Z" fill="#1C1917"/>
<path fill-rule="evenodd" clip-rule="evenodd" d="M524.809 185.791C524.351 185.968 523.578 186.44 522.404 186.44C520.228 186.44 519.082 184.935 519.082 180.301C519.082 175.43 520.514 173.866 522.576 173.866C523.635 173.866 524.323 174.486 524.809 175.106V185.791ZM529.362 169.793C529.362 168.267 529.413 166.865 529.44 166.29C529.447 166.121 529.309 165.986 529.146 166.001L525.022 166.484C524.901 166.495 524.809 166.599 524.809 166.723V170.855C524.809 171.918 524.867 173.01 524.867 173.01C524.265 172.833 523.464 172.685 522.691 172.685C518.223 172.685 514.386 175.135 514.386 181.275C514.386 186.647 517.163 188.772 519.998 188.772C522.003 188.772 523.607 187.946 524.838 186.854H524.952L524.894 188.483C524.888 188.656 525.035 188.794 525.201 188.769L529.13 188.317C529.263 188.298 529.362 188.181 529.362 188.042V169.793Z" fill="#1C1917"/>
<path fill-rule="evenodd" clip-rule="evenodd" d="M574.531 172.685C572.87 172.685 571.238 173.984 570.35 174.958H570.236L570.292 172.975C570.296 172.806 570.155 172.672 569.992 172.69L566.033 173.148C565.915 173.162 565.826 173.265 565.826 173.387V188.14C565.826 188.293 565.947 188.418 566.095 188.418H570.109C570.257 188.418 570.379 188.293 570.379 188.14V176.169C570.78 175.785 571.439 175.401 571.953 175.401C572.211 175.401 572.383 175.46 572.555 175.785C573.098 176.7 573.53 177.228 574.759 177.228C575.876 177.228 576.875 176.316 576.875 174.899C576.875 173.453 575.905 172.685 574.531 172.685Z" fill="#1C1917"/>
<path fill-rule="evenodd" clip-rule="evenodd" d="M473.185 187.591C472.212 187.591 471.439 187.148 470.923 186.529V175.784C471.381 175.607 472.097 175.253 473.243 175.253C475.419 175.253 476.65 176.729 476.65 180.95C476.65 186.352 475.447 187.591 473.185 187.591ZM475.734 172.685C473.729 172.685 472.126 173.659 470.923 174.722H470.78L470.835 172.956C470.84 172.795 470.706 172.667 470.551 172.685L466.578 173.148C466.46 173.162 466.371 173.265 466.371 173.387V194.76C466.371 194.903 466.491 195.015 466.63 194.998L470.716 194.522C470.834 194.509 470.923 194.406 470.923 194.284V190.278C470.923 189.244 470.895 188.477 470.895 188.477C471.525 188.654 472.47 188.772 473.071 188.772C477.852 188.772 481.345 186.086 481.345 179.946C481.345 174.545 478.454 172.685 475.734 172.685Z" fill="#1C1917"/>
<path d="M681 120.5V120H680.5V120.5H681ZM1021.25 120.5H1021.75V120H1021.25V120.5ZM1021.25 240.5V241H1021.75V240.5H1021.25ZM681 240.5H680.5V241H681V240.5ZM681 120.5V121H1021.25V120.5V120H681V120.5ZM1021.25 120.5H1020.75V240.5H1021.25H1021.75V120.5H1021.25ZM1021.25 240.5V240H681V240.5V241H1021.25V240.5ZM681 240.5H681.5V120.5H681H680.5V240.5H681Z" fill="#D6D3D1"/>
<path d="M857.477 189.526C855.658 189.526 854.326 188.044 854.326 186.216V178.419H852.072V174.936H854.506L854.47 171.398L858.113 170.133V174.936H861.264V178.419H858.113V185.978H860.901V189.526H857.477Z" fill="#1C1917"/>
<path d="M845.078 189.692C843.172 189.692 841.726 189.071 840.685 187.387L840.484 187.416C840.513 188.141 840.542 188.772 840.542 189.526H836.698V170.151L840.599 168.827V173.598C840.599 174.99 840.599 175.747 840.455 177.053L840.685 177.11C841.755 175.369 843.345 174.586 845.193 174.586C849.123 174.586 851.578 177.954 851.578 182.249C851.578 186.544 849.037 189.692 845.074 189.692H845.078ZM844.156 186.179C846.323 186.179 847.709 184.542 847.709 182.191C847.709 179.84 846.323 178.098 844.156 178.098C841.988 178.098 840.516 179.811 840.516 182.22C840.516 184.629 841.931 186.179 844.156 186.179Z" fill="#1C1917"/>
<path d="M825.148 189.692C821.305 189.692 818.764 186.432 818.764 182.191C818.764 177.951 821.276 174.586 825.292 174.586C827.112 174.586 828.644 175.311 829.685 177.024L829.886 176.966C829.771 175.747 829.771 174.903 829.771 173.598V170.154L833.672 168.831V189.533H829.828C829.828 188.808 829.828 188.145 829.886 187.42L829.685 187.362C828.615 189.075 827.054 189.695 825.148 189.695V189.692ZM826.218 186.179C828.443 186.179 829.857 184.604 829.857 182.191C829.857 179.779 828.439 178.098 826.218 178.098C824.021 178.127 822.665 179.869 822.665 182.22C822.665 184.571 824.021 186.179 826.218 186.179Z" fill="#1C1917"/>
<path d="M919.066 188.653H919.379V189.533H919.558V188.653H919.875V188.498H919.066V188.653Z" fill="#1C1917"/>
<path d="M920.907 188.498L920.587 189.255L920.267 188.498H920.049V189.533H920.228V188.826L920.54 189.533H920.633L920.946 188.826V189.533H921.125V188.498H920.907Z" fill="#1C1917"/>
<path d="M870.216 168.824L867.57 169.7V189.529H877.986V187.232H870.216V168.824Z" fill="#1C1917"/>
<path d="M811.613 165.834C812.36 166.559 812.852 167.511 812.967 168.553C812.967 168.986 812.852 169.278 812.59 169.823C812.328 170.371 809.137 175.92 808.182 177.457C807.637 178.358 807.35 179.425 807.35 180.464C807.35 181.503 807.64 182.573 808.182 183.471C809.13 185.008 812.328 190.583 812.59 191.141C812.852 191.689 812.967 191.953 812.967 192.385C812.852 193.428 812.396 194.38 811.639 195.076C810.917 195.826 809.97 196.32 808.961 196.41C808.531 196.41 808.24 196.294 807.723 196.031C807.206 195.768 792.118 187.005 792.118 187.005C792.294 188.451 792.926 189.84 793.963 190.853C794.164 191.055 794.368 191.232 794.594 191.401C794.419 191.488 786.971 195.858 786.419 196.121C785.873 196.385 785.611 196.5 785.155 196.5C784.118 196.385 783.171 195.927 782.478 195.166C781.732 194.441 781.24 193.489 781.125 192.447C781.15 192.014 781.276 191.581 781.502 191.203C781.764 190.655 784.954 185.069 785.909 183.533C786.455 182.631 786.742 181.593 786.742 180.525C786.742 179.458 786.451 178.416 785.909 177.518C784.962 175.931 781.739 170.342 781.502 169.797C781.272 169.419 781.161 168.986 781.125 168.553C781.24 167.511 781.696 166.559 782.453 165.834C783.174 165.084 784.122 164.615 785.159 164.5C785.59 164.525 786.02 164.651 786.422 164.879C786.878 165.081 801.934 174.002 801.934 174.002C801.758 172.271 800.911 170.706 799.522 169.639C799.63 169.581 807.106 165.127 807.662 164.889C808.039 164.659 808.47 164.547 808.925 164.511C809.934 164.626 810.885 165.084 811.603 165.845L811.621 165.838L811.613 165.834ZM797.581 183.201L799.734 181.03C800.032 180.727 800.032 180.276 799.734 179.963L797.581 177.792C797.283 177.489 796.834 177.489 796.522 177.792L794.368 179.963C794.07 180.266 794.07 180.716 794.368 181.03L796.522 183.201C796.787 183.468 797.268 183.468 797.581 183.201Z" fill="#1C1917"/>
<path d="M896.832 186.966L896.692 186.995C896.721 187.9 896.721 188.563 896.721 189.522H894.355V169.696L896.749 168.82V174.857C896.749 176.212 896.749 176.865 896.663 178.109L896.832 178.138C897.873 176.187 899.592 175.167 901.76 175.167C905.561 175.167 907.925 178.333 907.925 182.519C907.925 186.706 905.503 189.688 901.62 189.688C899.452 189.688 897.848 188.909 896.836 186.958L896.832 186.966ZM905.561 182.498C905.561 179.555 903.899 177.348 901.196 177.348C898.494 177.348 896.634 179.469 896.634 182.523C896.634 185.577 898.379 187.543 901.196 187.543C903.927 187.514 905.561 185.437 905.561 182.494V182.498Z" fill="#1C1917"/>
<path d="M909.165 187.449L910.797 185.949C911.709 187.005 912.872 187.701 914.2 187.701C915.75 187.701 916.884 186.944 916.884 185.556C916.884 184.167 915.557 183.749 914.064 183.331C911.849 182.692 909.832 181.773 909.832 179.245C909.832 176.717 911.878 175.159 914.534 175.159C916.221 175.159 917.631 175.744 918.736 176.966L917.186 178.466C916.439 177.604 915.553 177.161 914.502 177.161C913.063 177.161 912.011 177.882 912.011 179.162C912.011 180.442 913.284 180.886 914.749 181.301C917.017 181.968 919.063 182.801 919.063 185.44C919.063 188.08 916.96 189.699 914.11 189.699C912.147 189.699 910.374 188.837 909.158 187.449H909.165Z" fill="#1C1917"/>
<path d="M890.958 180.136V189.529H888.568C888.568 188.545 888.568 187.943 888.625 186.987L888.489 186.969C887.422 188.963 886.306 189.692 884.121 189.692C881.411 189.692 879.879 187.593 879.879 185.768C879.879 183.331 880.98 181.52 884.989 181.52H889.447L888.668 181.946V180.406C888.668 178.812 887.954 177.348 885.556 177.348C883.159 177.348 881.612 178.682 881.594 178.697L880.553 176.872C880.553 176.872 882.685 175.156 885.786 175.156C888.561 175.156 890.961 176.692 890.961 180.136H890.958ZM884.892 183.428C882.617 183.428 882.057 184.081 882.057 185.505C882.057 187.009 883.31 187.643 884.882 187.643C887.459 187.643 888.653 185.516 888.653 183.428H884.892Z" fill="#1C1917"/>
<path d="M1021.25 120.5V120H1020.75V120.5H1021.25ZM1361.5 120.5H1362V120H1361.5V120.5ZM1361.5 240.5V241H1362V240.5H1361.5ZM1021.25 240.5H1020.75V241H1021.25V240.5ZM1021.25 120.5V121H1361.5V120.5V120H1021.25V120.5ZM1361.5 120.5H1361V240.5H1361.5H1362V120.5H1361.5ZM1361.5 240.5V240H1021.25V240.5V241H1361.5V240.5ZM1021.25 240.5H1021.75V120.5H1021.25H1020.75V240.5H1021.25Z" fill="#D6D3D1"/>
<path d="M1162.39 184.393C1162.21 184.479 1162.03 184.571 1161.88 184.668L1162.06 168.186C1162.06 168.186 1162.14 161.082 1169.77 160.414L1175.57 159.905C1174.96 160.398 1174.34 161.122 1173.85 162.083C1172.82 164.127 1174.89 166.788 1175.28 168.766C1175.89 171.852 1175.98 175.059 1175.82 178.176C1175.71 180.375 1175.44 182.567 1174.97 184.72C1174.62 186.325 1174.09 189.12 1172.72 190.273C1170.95 191.769 1167.42 191.194 1165.94 189.763C1165.09 188.944 1164.92 187.342 1165.17 186.216C1165.28 185.694 1165.76 184.886 1165.23 184.415C1164.55 183.796 1163.12 184.05 1162.39 184.393ZM1214.27 203.178H1214.68V204.259H1214.91V203.178H1215.32V202.967H1214.27L1214.27 203.178ZM1220.59 159.763C1219.31 156.072 1214.21 156.517 1214.21 156.517L1175.57 159.905L1178.25 159.67C1178.25 159.688 1178.25 159.705 1178.26 159.724C1179.45 167.478 1179.72 175.53 1177.98 183.172C1177.11 186.975 1176.11 191.883 1171.45 192.758C1168.38 193.335 1164.78 192.599 1162.18 190.893C1162.65 192.472 1163.55 193.657 1164.55 194.538C1166.67 196.392 1169.25 196.902 1169.25 196.902L1206.81 204.297C1214.3 205.772 1215.36 198.737 1215.36 198.737L1217.23 186.335C1215.62 187.4 1213.03 188.438 1212.36 188.679C1209.94 189.543 1207.38 189.736 1206.27 187.015C1204.82 187.96 1202.26 189.505 1200.74 187.871C1200.12 187.212 1199.79 186.311 1199.59 185.455C1199.11 183.414 1195.95 188.888 1194.54 189.257C1191.65 190.015 1193.04 186.32 1193.16 184.979C1191.42 186.417 1187.54 189.561 1186.02 186.079C1184.25 187.707 1177.44 191.17 1178.45 185.804C1179.19 181.861 1182.56 178.307 1186.05 177.823C1186.88 177.71 1188.5 178.215 1187.99 179.339C1187.6 180.213 1186.3 179.583 1185.59 179.726C1183.56 180.131 1180.62 183.07 1180.71 185.179C1180.78 187.094 1183.14 185.778 1183.97 185.114C1185.54 183.867 1186.6 182.196 1188 180.807C1189.64 179.19 1189.92 181.591 1189.01 182.732C1188.09 183.889 1187.7 186.883 1190.45 185.065C1192.6 183.651 1193.13 181.995 1194.73 180.068C1195.12 179.595 1196.49 178.036 1197.16 179.366C1197.44 179.912 1197.1 180.808 1196.93 181.342C1196.51 182.723 1195.63 184.331 1195.64 185.797C1196.82 184.777 1197.97 183.737 1199.16 182.727C1199.76 182.217 1200.89 181.041 1201.78 181.18C1204.46 181.598 1200.82 186.078 1202.76 186.429C1203.49 186.562 1205.82 186.188 1206.08 185.45C1206.45 184.385 1206.56 183.256 1206.99 182.195C1207.63 180.586 1208.86 179.261 1210.25 178.134C1212.67 176.168 1215.99 178.703 1211.66 183.99C1211.05 184.732 1208.95 186.198 1208.95 186.198C1208.55 187.423 1210.48 187.432 1211.13 187.35C1212.57 187.172 1213.97 186.442 1215.25 185.804C1215.71 185.572 1216.73 184.795 1217.52 184.423L1220.77 162.883C1220.97 161.604 1220.87 160.583 1220.59 159.763ZM1211.97 179.422C1209.66 179.35 1208.04 182.565 1208.13 184.598C1210.07 183.691 1212.48 180.795 1211.97 179.422ZM1216.21 203.578L1215.81 202.967H1215.57V204.259H1215.79V203.336L1216.2 203.942H1216.21L1216.62 203.333V204.259H1216.85V202.967H1216.6L1216.21 203.578Z" fill="#1C1917"/>
</svg>
