<svg preserveAspectRatio="none" width="100%" height="100%" overflow="visible" style="display: block;" viewBox="0 0 166 26" fill="none" xmlns="http://www.w3.org/2000/svg">
<g id="Vector">
<path d="M64.2662 14.2593L62.0669 14.0562C60.6008 13.9344 60.0306 13.4062 60.0306 12.5531C60.0306 11.4969 60.9267 10.8469 62.6371 10.8469C64.2662 10.8469 65.0808 11.5375 65.2029 12.7156H70.3752C70.0493 9.30303 67.6464 6.90619 62.7594 6.90619C57.6686 6.90619 54.8584 9.50618 54.8584 12.9188C54.8584 16.128 56.6097 17.8749 60.9674 18.2406L63.1666 18.4031C64.8771 18.5249 65.488 19.0937 65.488 20.1093C65.488 21.1655 64.5921 21.9781 62.7594 21.9781C61.0488 21.9781 60.0306 21.2062 59.8677 19.8656H54.4105C54.8992 23.5625 57.5056 25.9593 62.7594 25.9593C67.85 25.9593 70.7009 23.3594 70.7009 19.8249C70.6602 16.4125 68.7868 14.6656 64.2662 14.2593ZM46.3467 6.90619C43.0886 6.90619 41.1744 8.61241 40.2378 12.0656H39.9119V7.19065H34.7805V25.6749H40.2378V14.9093C40.2378 12.4311 41.5003 11.0906 43.7809 11.0906C46.0616 11.0906 47.1613 12.4718 47.1613 14.8686V25.6344H52.6185V13.9344C52.6593 9.46566 50.2971 6.90619 46.3467 6.90619ZM29.4452 0C27.5719 0 26.1873 1.21875 26.1873 3.08746C26.1873 4.95617 27.5719 6.17491 29.4046 6.17491C31.2373 6.17491 32.6219 4.95617 32.6219 3.08746C32.6627 1.2594 31.2781 0 29.4452 0ZM32.174 7.19065H26.7166V25.6749H32.174V7.19065ZM79.2941 3.2906H75.7917C75.6696 6.25623 74.4071 7.55615 71.5562 7.79996V11.5375H73.7961V19.6625C73.7961 23.7655 76.1175 25.9593 80.801 25.9593C81.6563 25.9593 82.5522 25.8374 83.4075 25.6344V21.2468C82.9594 21.328 82.5115 21.3687 82.1042 21.328C80.1494 21.328 79.2941 20.5969 79.2941 18.5249V11.5375H84.0998V7.19065H79.2941V3.2906ZM166 11.5375V7.19065H161.195V3.2906H157.774C157.692 5.36246 157.081 6.54055 155.738 7.19065V19.6625C155.738 23.7655 158.059 25.9593 162.742 25.9593C163.597 25.9593 164.494 25.8374 165.348 25.6344V21.2468C164.9 21.328 164.452 21.3687 164.045 21.328C162.091 21.328 161.235 20.5969 161.235 18.5249V11.5375H166ZM148.08 12.35H147.755V7.19065H142.705V25.6749H148.162V15.6812C148.162 12.9188 149.424 11.7405 152.275 11.7405C152.764 11.7405 153.293 11.7812 154.027 11.9032V7.15C153.538 6.98751 153.008 6.90619 152.479 6.90619C150.239 6.90619 148.733 8.1656 148.08 12.35ZM113.178 21.2875C110.613 21.2875 108.739 19.5811 108.739 16.2905C108.739 13.3656 110.45 11.5375 113.097 11.5375C115.377 11.5375 116.64 12.7968 117.047 14.8281H122.586C122.057 10.075 118.636 6.90619 113.178 6.90619C107.192 6.90619 103.241 10.9687 103.241 16.5343C103.241 22.3031 107.029 26 113.097 26C118.636 26 122.219 22.9124 122.708 17.9562H117.17C116.884 19.9468 115.5 21.2875 113.178 21.2875ZM93.5482 6.90619C88.7833 6.90619 85.9325 9.22185 85.4031 13.4062H90.6567C90.8196 11.9437 91.7564 11.2124 93.4261 11.2124C95.0958 11.2124 95.8696 11.9843 95.8696 13.0812C95.8696 13.975 95.2996 14.4625 93.7927 14.7468L91.3083 15.1938C86.9099 16.0062 85.2401 17.7937 85.2401 20.6781C85.2401 23.9687 87.5615 26 90.779 26C93.3854 26 95.0958 24.7813 95.8696 21.7343H96.1955V25.6749H101.368V13.6094C101.327 9.425 98.8426 6.90619 93.5482 6.90619ZM92.9374 22.2624C91.4713 22.2624 90.616 21.4905 90.616 20.3124C90.616 19.3375 91.1862 18.6875 92.6523 18.3624L93.6705 18.1187C94.5665 17.9156 95.2181 17.6313 95.8696 17.1031V19.0937C95.8696 21.328 94.6886 22.2624 92.9374 22.2624ZM132.401 6.90619C127.636 6.90619 124.785 9.22185 124.256 13.4062H129.51C129.672 11.9437 130.609 11.2124 132.279 11.2124C133.949 11.2124 134.722 11.9843 134.722 13.0812C134.722 13.975 134.152 14.4625 132.645 14.7468L130.161 15.1938C125.763 16.0062 124.093 17.7937 124.093 20.6781C124.093 23.9687 126.414 26 129.632 26C132.238 26 133.949 24.7813 134.722 21.7343H135.048V25.6749H140.22V13.6094C140.22 9.425 137.695 6.90619 132.401 6.90619ZM131.79 22.2624C130.324 22.2624 129.469 21.4905 129.469 20.3124C129.469 19.3375 130.039 18.6875 131.505 18.3624L132.523 18.1187C133.419 17.9156 134.071 17.6313 134.722 17.1031V19.0937C134.722 21.328 133.541 22.2624 131.79 22.2624Z" fill="var(--fill-0, #1C1917)"/>
<path d="M17.5119 4.42818C16.3716 4.42818 15.5978 4.91565 14.8648 5.9719L12.7471 9.01884V0.284462H7.61566V9.01884L5.49793 5.9719C4.76487 4.91565 3.95037 4.42818 2.85078 4.42818C1.14031 4.42818 0.0407254 5.68758 0 7.23131C0 8.53123 0.610882 9.425 1.91409 10.2376L10.1406 15.5187L18.3672 10.2376C19.6705 9.38448 20.322 8.53123 20.2813 7.23131C20.322 5.68758 19.2224 4.42818 17.5119 4.42818Z" fill="var(--fill-0, #1C1917)"/>
<path d="M10.1823 16.778C15.0693 16.778 19.1011 20.4342 19.1011 25.6747H1.26341C1.26341 20.4342 5.29523 16.778 10.1823 16.778Z" fill="var(--fill-0, #1C1917)"/>
</g>
</svg>
