<svg width="118" height="27" viewBox="0 0 118 27" fill="none" xmlns="http://www.w3.org/2000/svg">
<path d="M45.6828 4.35035C45.0613 4.73394 44.5989 5.3307 44.4109 6.02702C43.6739 5.7997 42.9224 5.68599 42.1565 5.68599C41.0726 5.67173 40.0031 5.89916 39.0348 6.36806C38.1533 6.7943 37.4017 7.43372 36.8671 8.24365C36.3178 9.11039 36.0288 10.1051 36.0577 11.1282C36.0288 12.1228 36.3033 13.1033 36.8381 13.9558C37.1127 14.3679 37.445 14.7374 37.8353 15.0499L37.6908 15.121C37.1705 15.3768 36.7225 15.7746 36.4046 16.2435C36.101 16.6983 35.9277 17.2382 35.8987 17.7782C35.8699 18.3323 35.9855 18.8723 36.2456 19.3554C36.4913 19.8243 36.8671 20.208 37.3439 20.4637C36.8526 20.5632 36.3756 20.7764 35.971 21.0747C35.6386 21.3163 35.3641 21.6431 35.1906 22.0125C35.0171 22.382 34.9305 22.7941 34.9449 23.1919C34.9449 24.4139 35.5664 25.3517 36.7948 26.0195C38.0231 26.6732 39.6563 27 41.694 27C44.0208 27 45.8706 26.5738 47.2436 25.7212C47.8939 25.3376 48.4286 24.7976 48.7899 24.144C49.1512 23.4903 49.3246 22.7514 49.2957 22.0125C49.3246 21.501 49.2379 20.9894 49.0356 20.5205C48.8333 20.0516 48.5442 19.6254 48.1685 19.2701C47.3303 18.5739 46.2608 18.2044 45.1625 18.2612H44.1798C43.7173 18.2612 43.2404 18.2896 42.7201 18.3039C42.2143 18.3182 41.7374 18.3323 41.3183 18.3466C40.8847 18.3466 40.5957 18.3466 40.4367 18.3466C39.9597 18.375 39.4973 18.2612 39.0927 18.0339C38.9337 17.9345 38.8036 17.8066 38.7169 17.6361C38.6302 17.4797 38.5868 17.295 38.6012 17.1103C38.6012 16.9256 38.6446 16.7408 38.7169 16.5703C38.7892 16.3998 38.9047 16.2578 39.0493 16.1298C39.1505 16.0446 39.2516 15.9736 39.3528 15.9025C40.191 16.2151 41.0726 16.3714 41.9542 16.3714C43.0236 16.3857 44.0786 16.1725 45.0469 15.7178C45.7116 15.3768 46.3042 14.9079 46.781 14.3253C47.258 13.7569 47.6049 13.0891 47.8072 12.3786C48.0095 11.6682 48.0673 10.9293 47.9806 10.1903C47.8794 9.45143 47.6482 8.75521 47.258 8.11579C46.9835 7.71795 46.6655 7.34851 46.2752 7.03588C46.4054 6.90802 46.5643 6.80856 46.7377 6.7375C47.3303 6.52432 48.2263 6.52432 49.4402 6.78016V3.8956C47.9084 3.59722 46.6655 3.73934 45.7116 4.35035H45.6828ZM40.0321 21.0463H44.7144C45.1913 21.0179 45.6538 21.1599 46.0151 21.4442C46.1596 21.572 46.2897 21.7426 46.362 21.9273C46.4342 22.112 46.4776 22.3109 46.4776 22.5098C46.4776 23.2772 46.0729 23.8597 45.278 24.2718C44.4832 24.6839 43.3704 24.8828 41.9397 24.8828C40.5089 24.8828 39.5406 24.6982 38.8469 24.3145C38.1533 23.9308 37.8208 23.4192 37.8208 22.7941C37.8208 22.3536 38.0088 21.9415 38.2978 21.6289C38.6157 21.2594 39.2082 21.0747 40.0464 21.0747L40.0321 21.0463ZM44.3098 13.2454C43.8762 13.6859 43.327 13.9985 42.7056 14.1264C42.0987 14.2542 41.4627 14.1974 40.8847 13.9558C40.3066 13.7143 39.8152 13.3164 39.4828 12.7906C39.1505 12.2792 38.977 11.6682 39.0059 11.0571C38.9915 10.6593 39.0493 10.2756 39.1938 9.90618C39.3383 9.53674 39.5551 9.1957 39.8296 8.91147C40.1332 8.64149 40.4945 8.42842 40.8702 8.28631C41.2604 8.14419 41.6651 8.08739 42.0842 8.11579C42.4888 8.08739 42.8934 8.15845 43.2837 8.28631C43.6595 8.42842 44.0208 8.64149 44.3098 8.91147C44.8445 9.50834 45.1335 10.2756 45.1335 11.0713C45.1335 11.8671 44.8445 12.6344 44.3098 13.2311V13.2454Z" fill="#1C1917"/>
<path d="M7.35606 0.95424L0 21.1315H3.19389L5.31833 15.192H13.3102L15.4347 21.1315H18.7443L11.3881 0.95424H7.35606ZM6.32997 12.3928L9.33598 4.03761L12.3275 12.3928H6.32997Z" fill="#1C1917"/>
<path d="M32.4591 8.10161C32.0257 7.34848 31.3753 6.73747 30.5948 6.33963C29.8001 5.92753 28.904 5.71447 28.0079 5.72861C27.2998 5.72861 26.5917 5.84233 25.9125 6.0839C25.2621 6.31122 24.6696 6.65226 24.1493 7.09276C23.918 7.30582 23.7013 7.5474 23.5279 7.80323V6.01284H20.3339V21.1458H23.5423V11.5829C23.5134 10.9293 23.6869 10.2898 24.0337 9.73563C24.3516 9.28098 24.7851 8.92569 25.3054 8.72677C25.8113 8.52785 26.3604 8.42839 26.8952 8.42839C27.7045 8.38574 28.4994 8.65571 29.1208 9.16727C29.6844 9.65042 29.9734 10.4461 29.9734 11.5119V21.1174H33.124V10.9861C33.1529 9.9772 32.9217 8.9826 32.4303 8.08735H32.4448L32.4591 8.10161Z" fill="#1C1917"/>
<path d="M92.2757 6.02703H89.0818V21.1601H92.2757V6.02703Z" fill="#1C1917"/>
<path d="M97.984 9.35202C98.1285 9.0963 98.3308 8.88312 98.5765 8.72686C99.1836 8.34317 99.9061 8.1585 100.643 8.1869C101.698 8.1869 102.508 8.42848 103.042 8.89738C103.562 9.35202 103.924 9.96304 104.054 10.6451H107.147C107.118 10.0625 106.959 9.47999 106.699 8.95418C106.395 8.34316 105.976 7.80321 105.47 7.36271C104.892 6.85116 104.213 6.43917 103.476 6.18334C101.597 5.54392 99.5448 5.58658 97.6805 6.29706C96.8278 6.63809 96.1052 7.20645 95.5705 7.94533C95.0214 8.74101 94.7467 9.69306 94.7901 10.6594C94.7612 11.3698 94.9202 12.0945 95.2815 12.7197C95.5994 13.2454 96.0329 13.6717 96.5677 13.97C97.1168 14.2827 97.7239 14.51 98.3453 14.6664C98.9812 14.8085 99.6315 14.9221 100.282 15.0074C101.207 15.1069 102.117 15.3058 103.013 15.6184C103.317 15.7179 103.591 15.9168 103.765 16.1868C103.938 16.4568 104.025 16.7694 104.011 17.0962C104.011 17.3946 103.953 17.6788 103.808 17.9345C103.664 18.1902 103.461 18.4034 103.201 18.5597C102.536 18.9292 101.785 19.0996 101.019 19.0571C99.9495 19.0571 99.1113 18.8297 98.5332 18.375C97.9551 17.9488 97.5649 17.3378 97.4204 16.6414H94.3276C94.4288 17.494 94.7323 18.304 95.2237 19.0002C95.7728 19.7817 96.5244 20.3927 97.4059 20.7906C98.5332 21.2737 99.7472 21.501 100.976 21.4726C102.811 21.4726 104.285 21.0748 105.383 20.2649C106.482 19.4549 107.045 18.304 107.045 16.8119C107.074 16.0873 106.901 15.3769 106.554 14.7374C106.236 14.2116 105.788 13.7711 105.253 13.4586C104.69 13.1317 104.097 12.8901 103.461 12.7339C102.811 12.5776 102.161 12.4355 101.496 12.3502C100.773 12.2366 100.137 12.1087 99.5737 11.9807C99.0968 11.8813 98.6488 11.6824 98.273 11.3982C98.114 11.2561 97.984 11.0856 97.9117 10.8867C97.8251 10.6878 97.7961 10.4746 97.8106 10.2614C97.8106 9.94889 97.8684 9.66465 98.0129 9.40893L97.984 9.35202Z" fill="#1C1917"/>
<path d="M92.0155 0.556251C91.8421 0.357374 91.6398 0.22954 91.4086 0.130101C91.1774 0.0448062 90.9317 -0.0119846 90.6861 0.00215917C90.426 0.00215917 90.1803 0.0448062 89.9347 0.130101C89.7034 0.22954 89.4867 0.371517 89.3133 0.556251C89.1399 0.726732 88.9954 0.939862 88.9086 1.16713C88.822 1.39441 88.7642 1.63593 88.7786 1.87746C88.7786 2.13312 88.822 2.37465 88.9086 2.60192C88.9954 2.8293 89.1399 3.04232 89.3133 3.22706C89.4867 3.41168 89.7034 3.55377 89.9347 3.63906C90.1658 3.7385 90.426 3.78104 90.6861 3.7669C90.9317 3.7669 91.1774 3.72425 91.4086 3.63906C91.6398 3.53962 91.8421 3.39754 92.0155 3.22706C92.1889 3.04232 92.3334 2.84345 92.4202 2.60192C92.5068 2.37465 92.5646 2.11898 92.5502 1.87746C92.5502 1.63593 92.5068 1.39441 92.4202 1.16713C92.3334 0.939862 92.1889 0.726732 92.0155 0.556251Z" fill="#1C1917"/>
<path d="M118 8.7268V6.02702H114.112V2.40359H110.89V6.02702H107.985V8.7268H110.89V16.1299C110.89 17.8207 111.279 19.0997 112.074 19.9806C112.869 20.8474 114.098 21.2879 115.789 21.2879C116.526 21.2879 117.263 21.2026 117.986 21.089V18.3465C117.509 18.4603 117.017 18.5171 116.511 18.5171C115.543 18.5171 114.907 18.2755 114.59 17.7782C114.242 17.1672 114.07 16.4709 114.112 15.7746V8.71255H118V8.7268Z" fill="#1C1917"/>
<path d="M77.4196 0.954468H74.2257V21.1318H86.8567V18.304H77.4196V0.954468Z" fill="#1C1917"/>
<path d="M61.3054 6.51012C60.2503 5.97016 59.0941 5.70018 57.9091 5.71444C56.6374 5.71444 55.38 6.01282 54.2672 6.60958C53.1255 7.23485 52.2005 8.15849 51.608 9.29521C50.8999 10.6735 50.553 12.1939 50.6109 13.7285C50.5819 15.1353 50.871 16.5278 51.4635 17.8066C51.9982 18.9291 52.8509 19.867 53.9348 20.4922C55.1344 21.1458 56.4784 21.4726 57.8513 21.43C59.3976 21.4726 60.9296 21.0321 62.2158 20.1795C63.4298 19.3271 64.2824 18.0624 64.5859 16.6273H61.3342C61.1607 17.2667 60.7561 17.835 60.1925 18.2045C59.5422 18.6023 58.7762 18.8012 58.0102 18.7728C56.6374 18.7728 55.5968 18.3039 54.8742 17.3803C54.2383 16.4993 53.8625 15.4479 53.8192 14.368H64.6582C64.6727 14.0554 64.687 13.7285 64.687 13.3875C64.687 11.5972 64.3836 10.1478 63.7621 9.02523C63.2274 7.97372 62.3603 7.10698 61.3054 6.53863V6.51012ZM53.8914 11.995C54.007 11.1424 54.3395 10.3325 54.8597 9.65039C55.221 9.2099 55.669 8.85471 56.1893 8.61314C56.7096 8.37156 57.2877 8.2721 57.8513 8.3005C58.5305 8.3005 59.2098 8.45687 59.8167 8.78366C60.4238 9.15309 60.9006 9.7073 61.1607 10.3609C61.3775 10.8867 61.4932 11.4408 61.5077 12.0091H53.877L53.8914 11.995Z" fill="#1C1917"/>
<path d="M70.6124 0.954468H67.4184V21.1175H70.6124V0.954468Z" fill="#1C1917"/>
</svg>
