<svg width="140" height="32" viewBox="0 0 140 32" fill="none" xmlns="http://www.w3.org/2000/svg">
<path d="M76.3525 25.0259C74.5328 25.0259 73.2014 23.5438 73.2014 21.7156V13.9193H70.9475V10.4359H73.3808L73.3449 6.89839L76.9878 5.63272V10.4359H80.1388V13.9193H76.9878V21.4776H79.7764V25.0259H76.3525Z" fill="#1C1917"/>
<path d="M63.953 25.1917C62.0473 25.1917 60.6009 24.5714 59.5602 22.8874L59.3592 22.9162C59.3879 23.641 59.4166 24.2721 59.4166 25.0257H55.5727V5.6506L59.474 4.32715V9.09789C59.474 10.4898 59.474 11.2471 59.3305 12.5525L59.5602 12.6102C60.6296 10.8685 62.2196 10.0859 64.0679 10.0859C67.9979 10.0859 70.4527 13.454 70.4527 17.7488C70.4527 22.0435 67.9117 25.1917 63.9494 25.1917H63.953ZM63.0306 21.6794C65.1985 21.6794 66.5838 20.0422 66.5838 17.6911C66.5838 15.34 65.1985 13.5982 63.0306 13.5982C60.8629 13.5982 59.3915 15.3111 59.3915 17.7199C59.3915 20.1287 60.8055 21.6794 63.0306 21.6794Z" fill="#1C1917"/>
<path d="M44.0234 25.1918C40.1796 25.1918 37.6386 21.9319 37.6386 17.6912C37.6386 13.4505 40.1509 10.0861 44.167 10.0861C45.9866 10.0861 47.5191 10.8109 48.56 12.5238L48.7608 12.4661C48.646 11.2472 48.646 10.4034 48.646 9.09799V5.6543L52.5473 4.33085V25.0331H48.7034C48.7034 24.3083 48.7034 23.6447 48.7608 22.9199L48.56 22.8623C47.4904 24.5751 45.9291 25.1954 44.0234 25.1954V25.1918ZM45.093 21.6795C47.3181 21.6795 48.7321 20.1036 48.7321 17.6912C48.7321 15.2788 47.3145 13.5984 45.093 13.5984C42.8964 13.6272 41.5399 15.3689 41.5399 17.72C41.5399 20.0712 42.8964 21.6795 45.093 21.6795Z" fill="#1C1917"/>
<path d="M137.941 24.1532H138.254V25.033H138.433V24.1532H138.75V23.9981H137.941V24.1532Z" fill="#1C1917"/>
<path d="M139.782 23.9981L139.462 24.7553L139.142 23.9981H138.924V25.033H139.103V24.3262L139.415 25.033H139.508L139.821 24.3262V25.033H140V23.9981H139.782Z" fill="#1C1917"/>
<path d="M89.0905 4.32356L86.4454 5.19985V25.0294H96.8607V22.7324H89.0905V4.32356Z" fill="#1C1917"/>
<path d="M30.4885 1.33427C31.235 2.05907 31.7267 3.01105 31.8416 4.05326C31.8416 4.486 31.7267 4.77806 31.4647 5.32254C31.2027 5.87073 28.0121 11.4203 27.0575 12.9566C26.5119 13.858 26.2248 14.9254 26.2248 15.9639C26.2248 17.0025 26.5155 18.0734 27.0575 18.9714C28.005 20.5076 31.2027 26.0825 31.4647 26.6414C31.7267 27.1895 31.8416 27.4527 31.8416 27.8855C31.7267 28.9277 31.271 29.8797 30.5136 30.5756C29.7922 31.3257 28.8447 31.8197 27.8363 31.9098C27.4056 31.9098 27.1149 31.7944 26.5981 31.5312C26.0812 31.268 10.9931 22.5053 10.9931 22.5053C11.169 23.9513 11.8006 25.3396 12.8379 26.353C13.0389 26.5549 13.2434 26.7315 13.4695 26.901C13.2936 26.9875 5.84648 31.3581 5.29378 31.6213C4.74825 31.8846 4.48625 32 4.03046 32C2.99322 31.8846 2.04572 31.4266 1.35305 30.6657C0.606535 29.9409 0.114848 28.9889 0 27.9467C0.0251222 27.5141 0.150733 27.0814 0.37684 26.7027C0.638836 26.1546 3.82944 20.5688 4.78411 19.0327C5.32963 18.1312 5.61679 17.0926 5.61679 16.0253C5.61679 14.9578 5.32605 13.9158 4.78411 13.0178C3.83661 11.4312 0.613713 5.84178 0.37684 5.29731C0.147145 4.91863 0.0358896 4.486 0 4.05326C0.114848 3.01105 0.570649 2.05907 1.32793 1.33427C2.04932 0.584232 2.99681 0.115447 4.03404 0C4.46472 0.0253368 4.8954 0.151491 5.29737 0.378674C5.75317 0.580627 20.809 9.50195 20.809 9.50195C20.6331 7.77109 19.7861 6.20604 18.3972 5.13861C18.5049 5.08094 25.9807 0.627484 26.537 0.389488C26.9139 0.1587 27.3446 0.0469629 27.8004 0.0109189C28.8089 0.12626 29.7599 0.584231 30.4777 1.34508L30.4957 1.33787L30.4885 1.33427ZM16.4555 18.7009L18.6089 16.5301C18.9069 16.2272 18.9069 15.7765 18.6089 15.4627L16.4555 13.2919C16.1577 12.989 15.709 12.989 15.3967 13.2919L13.2434 15.4627C12.9455 15.7657 12.9455 16.2164 13.2434 16.5301L15.3967 18.7009C15.6623 18.9677 16.1433 18.9677 16.4555 18.7009Z" fill="#1C1917"/>
<path d="M115.707 22.4656L115.567 22.4945C115.596 23.3996 115.596 24.0631 115.596 25.0223H113.23V5.19637L115.624 4.32008V10.3566C115.624 11.7125 115.624 12.3651 115.538 13.6093L115.707 13.6381C116.748 11.6873 118.467 10.6667 120.635 10.6667C124.436 10.6667 126.8 13.8328 126.8 18.0194C126.8 22.206 124.378 25.1882 120.495 25.1882C118.327 25.1882 116.723 24.4093 115.711 22.4584L115.707 22.4656ZM124.436 17.9977C124.436 15.0553 122.774 12.8483 120.071 12.8483C117.369 12.8483 115.509 14.9688 115.509 18.0231C115.509 21.0774 117.254 23.0426 120.071 23.0426C122.802 23.0138 124.436 20.9367 124.436 17.9941V17.9977Z" fill="#1C1917"/>
<path d="M128.04 22.9488L129.672 21.4487C130.584 22.5052 131.747 23.2012 133.075 23.2012C134.625 23.2012 135.759 22.444 135.759 21.0556C135.759 19.6673 134.432 19.249 132.939 18.8308C130.724 18.1925 128.707 17.2729 128.707 14.7451C128.707 12.2172 130.753 10.6595 133.409 10.6595C135.096 10.6595 136.506 11.2436 137.611 12.466L136.061 13.9662C135.314 13.1043 134.428 12.6608 133.377 12.6608C131.938 12.6608 130.886 13.382 130.886 14.6622C130.886 15.9423 132.159 16.3858 133.624 16.8005C135.892 17.4677 137.938 18.3006 137.938 20.9403C137.938 23.5799 135.835 25.199 132.985 25.199C131.022 25.199 129.249 24.3371 128.033 22.9488H128.04Z" fill="#1C1917"/>
<path d="M109.833 15.6357V25.0294H107.443C107.443 24.045 107.443 23.4427 107.5 22.4871L107.364 22.4691C106.297 24.4633 105.181 25.1917 102.996 25.1917C100.286 25.1917 98.7535 23.093 98.7535 21.2683C98.7535 18.8307 99.8553 17.0204 103.864 17.0204H108.322L107.543 17.4459V15.9061C107.543 14.3123 106.829 12.8482 104.431 12.8482C102.034 12.8482 100.487 14.1825 100.469 14.1969L99.4283 12.3722C99.4283 12.3722 101.56 10.6558 104.661 10.6558C107.436 10.6558 109.836 12.192 109.836 15.6357H109.833ZM103.767 18.928C101.492 18.928 100.932 19.5807 100.932 21.0051C100.932 22.5088 102.185 23.1434 103.757 23.1434C106.334 23.1434 107.528 21.0159 107.528 18.928H103.767Z" fill="#1C1917"/>
</svg>
