<svg width="178" height="34" viewBox="0 0 178 34" fill="none" xmlns="http://www.w3.org/2000/svg">
<path d="M39.139 11.6489L31.3113 7.07962V0.692436L44.5925 8.44426V23.97L39.139 20.787V11.6489Z" fill="#131313"/>
<path d="M5.45398 22.1507L13.2816 26.7194V33.1076L0 25.3557V9.83002L5.45398 13.0131V22.1507Z" fill="#131313"/>
<path d="M30.124 9.1381L8.99659 21.4697L14.4684 24.6633L35.596 12.332L30.124 9.1381Z" fill="#131313"/>
<path d="M36.7649 20.786L15.6557 33.1071V26.7194L36.7649 14.3993V20.786Z" fill="#131313"/>
<path d="M30.1245 33.8L24.6523 30.6063L37.9522 22.8435L43.4248 26.0376L30.1245 33.8Z" fill="#131313"/>
<path d="M28.9372 0.69246L7.82807 13.0135V19.4003L28.9372 7.07962V0.69246Z" fill="#131313"/>
<path d="M6.64037 10.9565L19.9403 3.19363L14.4684 0L1.16849 7.76242L6.64037 10.9565Z" fill="#131313"/>
<path d="M164.76 11.7793H168.133V13.6801C168.575 12.9889 169.162 12.4321 169.892 12.0097C170.642 11.5681 171.516 11.3473 172.516 11.3473C173.515 11.3473 174.38 11.5585 175.111 11.9809C175.86 12.3841 176.427 12.9889 176.812 13.7953C177.215 14.5825 177.417 15.5425 177.417 16.6753V26.4961H173.957V16.9633C173.957 16.1185 173.755 15.4465 173.352 14.9473C172.967 14.4289 172.352 14.1697 171.507 14.1697C170.93 14.1697 170.392 14.3137 169.892 14.6017C169.392 14.8897 168.989 15.3505 168.681 15.9841C168.373 16.5985 168.22 17.3665 168.22 18.2881V26.4961H164.76V11.7793Z" fill="#131313"/>
<path d="M154.188 26.9281C152.766 26.9281 151.478 26.6017 150.324 25.9489C149.171 25.2769 148.268 24.3457 147.614 23.1553C146.961 21.9649 146.634 20.6209 146.634 19.1233C146.634 17.6449 146.961 16.3105 147.614 15.1201C148.268 13.9297 149.171 13.0081 150.324 12.3553C151.478 11.6833 152.766 11.3473 154.188 11.3473C155.591 11.3473 156.869 11.6833 158.023 12.3553C159.176 13.0081 160.079 13.9297 160.733 15.1201C161.386 16.3105 161.713 17.6449 161.713 19.1233C161.713 20.6209 161.386 21.9649 160.733 23.1553C160.079 24.3457 159.176 25.2769 158.023 25.9489C156.869 26.6017 155.591 26.9281 154.188 26.9281ZM154.188 24.1345C154.995 24.1345 155.697 23.9425 156.293 23.5585C156.889 23.1744 157.35 22.608 157.677 21.8593C158.023 21.0912 158.196 20.1793 158.196 19.1233C158.196 18.0865 158.023 17.1937 157.677 16.4449C157.35 15.6961 156.889 15.1297 156.293 14.7457C155.697 14.3425 154.995 14.1409 154.188 14.1409C153.381 14.1409 152.669 14.3425 152.054 14.7457C151.459 15.1297 150.988 15.6961 150.642 16.4449C150.315 17.1937 150.151 18.0865 150.151 19.1233C150.151 20.1793 150.315 21.0912 150.642 21.8593C150.988 22.608 151.459 23.1744 152.054 23.5585C152.669 23.9425 153.381 24.1345 154.188 24.1345Z" fill="#131313"/>
<path d="M136.359 32.5441C134.418 32.5441 132.889 32.1601 131.775 31.3921C130.679 30.6241 130.025 29.5009 129.814 28.0225H133.389C133.543 28.6561 133.87 29.1265 134.369 29.4337C134.888 29.7409 135.59 29.8945 136.474 29.8945C137.685 29.8945 138.598 29.5873 139.213 28.9729C139.828 28.3585 140.136 27.4657 140.136 26.2945V23.8177C139.751 24.5089 139.175 25.0657 138.406 25.4881C137.656 25.9105 136.763 26.1217 135.725 26.1217C134.514 26.1217 133.408 25.8433 132.409 25.2865C131.409 24.7105 130.621 23.8657 130.045 22.7521C129.468 21.6385 129.18 20.3041 129.18 18.7489C129.18 17.2129 129.468 15.8881 130.045 14.7745C130.621 13.6609 131.409 12.8161 132.409 12.2401C133.408 11.6641 134.514 11.3761 135.725 11.3761C136.724 11.3761 137.618 11.5969 138.406 12.0385C139.194 12.4609 139.771 13.0081 140.136 13.6801V11.7793H143.567V26.1505C143.567 27.3793 143.307 28.4737 142.788 29.4337C142.289 30.3937 141.501 31.1521 140.424 31.7089C139.348 32.2657 137.993 32.5441 136.359 32.5441ZM136.417 23.4721C137.166 23.4721 137.82 23.2705 138.377 22.8673C138.954 22.4641 139.396 21.9073 139.703 21.1969C140.03 20.4673 140.194 19.6513 140.194 18.7489C140.194 17.8273 140.03 17.0113 139.703 16.3009C139.396 15.5905 138.954 15.0337 138.377 14.6305C137.82 14.2273 137.166 14.0257 136.417 14.0257C135.648 14.0257 134.985 14.2177 134.427 14.6017C133.87 14.9857 133.447 15.5329 133.158 16.2433C132.87 16.9345 132.726 17.7697 132.726 18.7489C132.726 20.2273 133.043 21.3889 133.677 22.2337C134.312 23.0593 135.225 23.4721 136.417 23.4721Z" fill="#131313"/>
<path d="M118.15 26.8993C116.67 26.8993 115.42 26.5153 114.402 25.7473C113.402 24.9601 112.902 23.8561 112.902 22.4353C112.902 21.3409 113.2 20.4865 113.796 19.8721C114.411 19.2385 115.123 18.7969 115.93 18.5473C116.737 18.2977 117.679 18.0961 118.755 17.9425L119.822 17.8273C120.572 17.7313 121.149 17.6161 121.552 17.4817C121.975 17.3473 122.283 17.1553 122.475 16.9057C122.686 16.6561 122.792 16.3009 122.792 15.8401C122.792 15.2257 122.561 14.7457 122.1 14.4001C121.658 14.0353 121.024 13.8529 120.197 13.8529C119.39 13.8529 118.736 14.0161 118.236 14.3425C117.737 14.6497 117.429 15.0625 117.314 15.5809H113.537C113.71 14.7553 114.075 14.0257 114.632 13.3921C115.209 12.7585 115.968 12.2593 116.91 11.8945C117.852 11.5297 118.957 11.3473 120.226 11.3473C121.572 11.3473 122.686 11.5297 123.571 11.8945C124.455 12.2401 125.108 12.7585 125.531 13.4497C125.973 14.1409 126.194 14.9761 126.194 15.9553V22.9537C126.194 23.5297 126.242 24.1345 126.338 24.7681C126.435 25.3825 126.55 25.9585 126.684 26.4961H123.253C123.1 25.8049 122.994 25.1617 122.936 24.5665C122.533 25.2193 121.918 25.7761 121.091 26.2369C120.284 26.6785 119.303 26.8993 118.15 26.8993ZM119.101 24.2497C119.832 24.2497 120.476 24.0865 121.033 23.7601C121.591 23.4337 122.023 22.9825 122.331 22.4065C122.638 21.8113 122.792 21.1585 122.792 20.4481V18.8641C122.542 19.1905 122.196 19.4497 121.754 19.6417C121.331 19.8145 120.687 19.9681 119.822 20.1025C118.669 20.2945 117.833 20.5345 117.314 20.8225C116.795 21.1105 116.535 21.6097 116.535 22.3201C116.535 22.9345 116.776 23.4145 117.256 23.7601C117.737 24.0865 118.352 24.2497 119.101 24.2497Z" fill="#131313"/>
<path d="M104.35 26.9281C102.947 26.9281 101.688 26.6113 100.573 25.9777C99.4584 25.3441 98.5838 24.4513 97.9495 23.2993C97.3345 22.1281 97.0269 20.7457 97.0269 19.1521C97.0269 17.6161 97.3441 16.2625 97.9784 15.0913C98.6127 13.9009 99.4873 12.9889 100.602 12.3553C101.736 11.7025 103.014 11.3761 104.437 11.3761C105.667 11.3761 106.753 11.6065 107.695 12.0673C108.656 12.5089 109.415 13.1137 109.973 13.8817C110.549 14.6497 110.914 15.5041 111.068 16.4449H107.637C107.407 15.7537 107.022 15.2065 106.484 14.8033C105.965 14.4001 105.302 14.1985 104.494 14.1985C103.745 14.1985 103.082 14.3905 102.505 14.7745C101.928 15.1585 101.467 15.7249 101.121 16.4737C100.794 17.2225 100.631 18.1153 100.631 19.1521C100.631 20.2081 100.794 21.1105 101.121 21.8593C101.467 22.5888 101.919 23.1457 102.476 23.5297C103.053 23.8945 103.706 24.0769 104.437 24.0769C105.283 24.0769 105.965 23.8753 106.484 23.4721C107.022 23.0689 107.416 22.5313 107.666 21.8593H111.068C110.934 22.7808 110.578 23.6353 110.001 24.4225C109.425 25.1905 108.646 25.8049 107.666 26.2657C106.705 26.7073 105.6 26.9281 104.35 26.9281Z" fill="#131313"/>
<path d="M87.8312 26.9281C86.2743 26.9281 84.9192 26.6113 83.7659 25.9777C82.6126 25.3249 81.7188 24.4129 81.0845 23.2417C80.4694 22.0705 80.1619 20.7073 80.1619 19.1521C80.1619 17.6545 80.4982 16.3105 81.171 15.1201C81.8437 13.9297 82.7472 13.0081 83.8812 12.3553C85.0153 11.6833 86.2455 11.3473 87.5717 11.3473C89.0518 11.3473 90.3396 11.6929 91.4353 12.3841C92.5501 13.0753 93.4151 14.0833 94.0302 15.4081C94.6452 16.7137 94.9624 18.2881 94.9816 20.1313H82.1513V17.5969H92.848L91.6371 18.6913C91.6179 17.3089 91.2623 16.1953 90.5703 15.3505C89.8783 14.5057 88.9172 14.0833 87.6871 14.0833C86.9374 14.0833 86.2551 14.2753 85.64 14.6593C85.0441 15.0241 84.5636 15.5425 84.1984 16.2145C83.8524 16.8673 83.6794 17.5873 83.6794 18.3745V19.7281C83.6794 20.5921 83.862 21.3697 84.2272 22.0609C84.5924 22.7329 85.0826 23.2609 85.6976 23.6449C86.332 24.0289 87.0624 24.2209 87.8889 24.2209C88.6578 24.2209 89.2921 24.0769 89.7918 23.7889C90.3108 23.5009 90.6952 23.1169 90.9451 22.6369H94.578C94.1935 23.9425 93.4055 24.9889 92.2137 25.7761C91.0412 26.5441 89.5804 26.9281 87.8312 26.9281Z" fill="#131313"/>
<path d="M60.7382 6.33609H67.3696C69.3879 6.33609 71.2043 6.75849 72.8189 7.60329C74.4335 8.44809 75.6925 9.63849 76.5959 11.1745C77.5186 12.6913 77.9799 14.4385 77.9799 16.4161C77.9799 18.3937 77.5186 20.1505 76.5959 21.6865C75.6925 23.2033 74.4335 24.3841 72.8189 25.2289C71.2043 26.0737 69.3879 26.4961 67.3696 26.4961H60.7382V6.33609ZM67.0813 23.4145C68.5998 23.4145 69.8972 23.1457 70.9736 22.6081C72.0693 22.0513 72.8958 21.2545 73.4532 20.2177C74.0299 19.1617 74.3182 17.8945 74.3182 16.4161C74.3182 14.9377 74.0299 13.6801 73.4532 12.6433C72.8958 11.5873 72.0693 10.7905 70.9736 10.2529C69.8972 9.69609 68.5998 9.41769 67.0813 9.41769H64.3711V23.4145H67.0813Z" fill="#131313"/>
</svg>
