<svg width="85" height="32" viewBox="0 0 85 32" fill="none" xmlns="http://www.w3.org/2000/svg">
<path d="M75.4763 4.68669C70.2307 4.68669 65.9527 8.91969 65.9527 14.1606C65.9527 19.3764 70.2307 23.6347 75.4763 23.6347C80.722 23.6347 85 19.3764 85 14.1606C85 8.91969 80.722 4.68669 75.4763 4.68669ZM75.4763 19.1244C72.7007 19.1244 70.4598 16.8819 70.4598 14.1355C70.4598 11.389 72.7007 9.14654 75.4763 9.14654C78.2265 9.14654 80.4928 11.389 80.4928 14.1355C80.4928 16.8819 78.2265 19.1244 75.4763 19.1244ZM47.4147 12.2204L45.7594 11.389C45.0464 11.0362 44.5881 10.7591 44.4098 10.5575C44.2316 10.3812 44.1297 10.1292 44.1297 9.90235C44.1297 9.57484 44.2825 9.32286 44.5626 9.09615C44.8427 8.8693 45.2502 8.76851 45.7594 8.76851C46.7016 8.76851 47.7201 9.32286 48.8661 10.4567L51.6672 7.65993C50.9796 6.72753 50.0629 5.97173 49.0188 5.4425C48.0002 4.93867 46.8544 4.66143 45.7085 4.68669C44.0024 4.68669 42.5764 5.19052 41.4814 6.19844C40.3864 7.20636 39.8262 8.41574 39.8262 9.85195C39.8262 12.0441 41.2778 13.8835 44.2061 15.3449L45.734 16.1008C47.0582 16.7559 47.7201 17.4362 47.7201 18.1418C47.7201 18.5197 47.5419 18.8473 47.1854 19.1496C46.8289 19.4268 46.3451 19.578 45.734 19.578C45.1738 19.578 44.5372 19.3764 43.8241 18.9984C43.1112 18.6205 42.4746 18.1165 41.9652 17.5119L39.1641 20.5354C40.7429 22.5763 42.8565 23.6094 45.4793 23.6094C47.4655 23.6094 49.0443 23.0803 50.2157 21.9969C51.3871 20.9385 51.9981 19.6031 51.9981 17.9906C51.9981 16.7811 51.6672 15.748 51.0306 14.8409C50.3685 13.959 49.1717 13.1024 47.4147 12.2204ZM19.1492 21.5433V5.0646H14.6165V6.17331C13.0887 5.19052 11.3062 4.68669 9.49821 4.68669C4.27801 4.68669 0 8.91969 0 14.1355C0 19.3511 4.278 23.6094 9.52367 23.6094C11.3062 23.6094 13.0632 23.1054 14.591 22.1732C14.591 22.3244 14.591 22.4504 14.591 22.526C14.591 25.2725 12.3502 27.5149 9.5746 27.5149C8.63242 27.5149 7.71569 27.2378 6.9263 26.7591L4.68544 30.6393C6.16237 31.5212 7.84303 32 9.5746 32C14.8203 32 19.1492 27.7417 19.1492 22.526C19.1492 22.3244 19.1747 21.7449 19.1492 21.5433ZM9.52367 19.1244C6.77351 19.1244 4.50719 16.8819 4.50719 14.1355C4.50719 11.389 6.74805 9.14654 9.52367 9.14654C12.2993 9.14654 14.5402 11.389 14.5402 14.1355C14.5402 16.8819 12.2738 19.1244 9.52367 19.1244ZM37.1525 5.03947H32.6199V14.0347C32.6199 15.3197 32.6199 17.5119 31.6777 18.4693C31.2193 18.9228 30.7355 19.326 29.6914 19.326C28.6474 19.326 28.1381 18.9228 27.6798 18.4693C26.7376 17.537 26.7376 15.3197 26.7376 14.0347V5.03947H22.2048V14.0094C22.1795 15.8741 22.1795 19.3007 24.4457 21.5686C25.7699 22.904 27.3742 23.5843 29.6659 23.5843C31.9578 23.5843 33.5621 22.904 34.8861 21.5686C37.1525 19.3007 37.1525 15.8488 37.127 14.0094L37.1525 5.03947ZM62.8969 18.3181C62.5404 18.5953 61.6492 19.1999 60.656 19.074C59.8412 18.9732 59.1791 18.3685 59.0772 16.3779V8.89456H64.4248V5.03947H59.0772V0H54.5446V15.7733C54.5446 18.1165 55.1303 23.5843 60.656 23.5843C63.4317 23.5339 65.1378 22.0473 65.8509 21.4425L65.9527 21.367L63.228 18.041C63.2025 18.0914 63.0243 18.2426 62.8969 18.3181Z" fill="#1C1917"/>
</svg>
