<svg width="59" height="48" viewBox="0 0 59 48" fill="none" xmlns="http://www.w3.org/2000/svg">
<path d="M0.513401 27.8933C0.330715 27.9794 0.159759 28.0713 0 28.1684L0.18625 11.6861C0.18625 11.6861 0.266759 4.58243 7.89482 3.91365L13.6988 3.40467C13.0812 3.8985 12.464 4.62182 11.9772 5.58342C10.9426 7.62718 13.0148 10.2883 13.4043 12.266C14.0122 15.3519 14.1071 18.5593 13.9493 21.6755C13.8383 23.8752 13.5649 26.0672 13.0966 28.2197C12.7473 29.8254 12.2114 32.6203 10.8455 33.7725C9.07114 35.2691 5.54722 34.6945 4.06513 33.2628C3.21745 32.444 3.04063 30.8424 3.29108 29.7162C3.40727 29.1935 3.88041 28.3861 3.35988 27.9145C2.67807 27.2965 1.2426 27.5502 0.513401 27.8933ZM52.3919 46.6777H52.8053V47.7589H53.0362V46.6777H53.4495V46.4674H52.3916L52.3919 46.6777ZM58.7115 3.26253C57.4369 -0.428294 52.3325 0.0168079 52.3325 0.0168079L13.6988 3.40467L16.3723 3.17038C16.3762 3.1878 16.3798 3.20547 16.3826 3.22365C17.5785 10.9777 17.8458 19.0297 16.1041 26.6715C15.2371 30.4753 14.2355 35.3827 9.57795 36.2583C6.50879 36.8354 2.90381 36.0988 0.301157 34.3934C0.771241 35.9722 1.67268 37.1569 2.67858 38.0377C4.79458 39.8918 7.37302 40.4018 7.37302 40.4018L44.9309 47.7965C52.4253 49.2722 53.4877 42.2369 53.4877 42.2369L55.3593 29.8347C53.7463 30.9005 51.1549 31.9381 50.4815 32.1791C48.0671 33.0429 45.5006 33.2357 44.3926 30.5152C42.94 31.4604 40.3839 33.0055 38.8612 31.3705C38.2473 30.7116 37.9123 29.8105 37.7113 28.9552C37.2315 26.9142 34.0788 32.388 32.669 32.757C29.7739 33.515 31.1668 29.8196 31.285 28.4793C29.5441 29.9166 25.6677 33.0613 24.1428 29.5791C22.3739 31.2074 15.5601 34.6695 16.5743 29.3043C17.3199 25.361 20.6864 21.8065 24.1793 21.3233C25.0017 21.2097 26.6257 21.7146 26.1195 22.8391C25.7261 23.7126 24.4234 23.083 23.7117 23.2257C21.6885 23.6309 18.7436 26.5702 18.8308 28.6795C18.9098 30.5944 21.2653 29.2778 22.0985 28.6144C23.6638 27.3674 24.7217 25.6961 26.1266 24.3068C27.7614 22.6902 28.049 25.0914 27.1369 26.2318C26.2114 27.3891 25.8275 30.3829 28.5797 28.5651C30.7209 27.1507 31.2575 25.4946 32.8541 23.568C33.2462 23.0946 34.614 21.5356 35.2898 22.8656C35.5672 23.4115 35.2232 24.3079 35.0599 24.8419C34.6377 26.2227 33.7511 27.8314 33.7641 29.2968C34.9402 28.2765 36.0987 27.2367 37.2845 26.2275C37.8842 25.717 39.0111 24.541 39.903 24.6801C42.5864 25.0984 38.9493 29.5785 40.8846 29.9292C41.6156 30.0615 43.9418 29.6876 44.2005 28.9499C44.5735 27.885 44.6871 26.7557 45.1133 25.695C45.76 24.0858 46.9866 22.7614 48.3741 21.6336C50.7927 19.6678 54.119 22.2032 49.7841 27.4901C49.1759 28.2319 47.0749 29.6981 47.0749 29.6981C46.6756 30.9234 48.6049 30.9317 49.2582 30.8505C50.6914 30.6722 52.0976 29.9421 53.3704 29.3036C53.8324 29.072 54.8592 28.295 55.6483 27.9228L58.8991 6.3828C59.0928 5.10403 58.9953 4.0828 58.7115 3.26253ZM50.0909 22.9225C47.7805 22.8505 46.1664 26.0649 46.2505 28.0977C48.1912 27.1915 50.6002 24.2948 50.0909 22.9225ZM54.3331 47.078L53.9363 46.4674H53.6923V47.7589H53.9175V46.8362L54.3254 47.4416H54.3328L54.7443 46.8327V47.7589H54.9733V46.4674H54.7293L54.3331 47.078Z" fill="#1C1917"/>
</svg>
