<svg width="139" height="32" viewBox="0 0 139 32" fill="none" xmlns="http://www.w3.org/2000/svg">
<path fill-rule="evenodd" clip-rule="evenodd" d="M128.708 22.4634L128.638 21.6815C128.638 21.5393 128.144 18.3404 130.332 16.0656C130.967 15.4258 131.744 14.9993 132.45 14.9993C133.015 14.9993 133.509 15.2837 133.791 15.7813C134.921 18.1982 128.708 22.4634 128.708 22.4634ZM119.32 17.4163L119.249 16.0656V15.9234C119.249 15.8524 118.967 11.5871 119.249 8.53041C119.531 5.18934 120.52 3.05673 121.72 3.05673C121.931 3.05673 122.214 3.19891 122.355 3.41217C122.92 4.19412 123.132 6.18455 122.779 7.96172C122.143 10.8052 121.226 13.1511 120.52 14.7861C120.308 15.2837 120.167 15.7102 120.025 16.0656L119.32 17.4163ZM112.754 26.4443C111.201 26.4443 110.495 24.9515 110.495 23.6008C110.495 16.421 114.378 14.9993 116.143 15.568C116.143 15.568 116.213 16.9187 116.355 18.6958C116.496 20.1886 116.566 22.0369 116.637 22.1791C116.637 22.1791 115.155 26.4443 112.754 26.4443ZM100.33 15.8524C100.33 15.8524 99.9065 26.4443 95.9533 26.4443C94.0473 26.4443 93.9061 24.3117 93.9061 23.6719C93.9061 16.1367 99.5536 14.7861 100.33 15.8524ZM63.6924 26.7286C61.4334 26.7286 60.5863 24.4539 60.5863 22.3213C60.5863 18.4115 62.8453 15.4258 64.7513 15.4258C66.6573 15.4258 67.2926 18.056 67.2926 19.7621C67.2926 23.6719 65.7396 26.7286 63.6924 26.7286ZM27.4783 17.7006C26.2076 19.7621 23.1721 21.7526 22.325 22.108C22.325 22.108 21.6897 18.1271 24.9369 15.7813C27.3371 14.0041 28.4666 16.2078 27.4783 17.7006ZM126.591 27.0841C127.508 28.5769 129.132 29.2878 131.462 29.2878C134.003 29.2878 136.685 27.3684 138.168 25.5202C139.086 24.4539 139.156 23.8141 138.803 23.4586C138.45 23.1743 137.674 23.5297 136.968 24.1695C136.05 25.0225 134.003 26.3021 132.309 26.3021C130.191 26.3021 129.203 24.8804 129.203 24.8804C133.509 22.2502 136.685 19.1934 136.685 16.6343C136.685 13.7197 134.568 12.4402 132.45 12.4402C128.708 12.4402 124.614 15.9234 124.614 21.5393C124.614 23.3876 125.249 24.9515 125.249 24.9515C125.249 24.9515 124.473 26.1599 122.143 25.9467C119.602 25.7334 119.743 21.1128 119.743 21.1128C119.743 21.1128 120.52 19.691 120.802 19.1223C122.496 15.9234 124.826 11.5871 125.249 6.39781C125.461 3.48325 124.614 1.91934 123.908 1.13739C123.273 0.426521 122.426 0 121.579 0C118.684 0 116.637 3.05673 116.143 6.04238C115.649 8.95693 115.861 13.3643 115.861 13.3643C115.861 13.3643 113.249 12.7245 110.566 14.5017C108.166 16.1367 107.107 19.4778 106.754 21.1128C106.613 21.8947 106.542 22.6767 106.613 23.4586C106.613 23.8141 106.754 24.5249 106.754 24.5249C106.754 24.5249 105.907 26.3732 104.354 26.3732C101.883 26.3732 103.507 14.715 103.577 14.0752C103.648 13.5776 104.001 12.4402 102.236 12.3691C101.177 12.298 100.754 12.7245 100.683 13.2221L100.612 13.7197C100.612 13.7197 97.0122 11.2317 92.9884 15.7102C90.8 18.056 90.0235 21.4682 90.0235 24.2406V24.3828C90.0235 24.3828 89.1058 27.013 87.0586 26.5865C85.6468 26.3021 85.5056 23.8141 85.5056 22.8899C85.5056 21.0417 85.9291 18.9802 86.2821 17.3452C86.4939 16.2789 86.7057 15.4258 86.7057 14.9282C86.7057 13.1511 86.2115 12.4402 85.082 12.4402C83.529 12.4402 82.1171 13.7198 80.5641 15.6391C78.5875 18.1271 77.105 21.8947 77.105 21.8947C77.105 21.8947 77.1756 21.1839 77.2462 20.5441C77.3168 20.1176 77.458 18.1271 77.811 16.35C78.0227 15.3547 78.0933 14.5728 78.0933 14.4306C78.1639 13.933 78.0227 13.5065 77.811 13.2221C77.5286 12.9378 77.1756 12.7245 76.7521 12.7245C76.0461 12.7245 75.199 13.2221 74.7755 14.5017C74.5637 15.0704 74.4931 15.4969 74.3519 16.2078L74.2107 16.8476L73.7166 16.421C71.8106 14.6439 69.1986 12.5824 65.3866 12.5824C60.0922 12.5824 57.1979 17.5584 57.1979 22.2502C57.1979 22.8189 57.2684 23.3876 57.2684 23.8852V24.0984C57.2684 24.0984 56.139 26.7997 54.233 26.3021C53.3858 26.0889 52.8211 25.1647 52.8211 22.961C52.8211 21.1128 53.1741 18.6247 53.3858 17.203C53.4564 16.7054 53.527 16.2789 53.527 16.1367L53.5976 15.568C53.7388 13.933 53.8094 13.1511 53.2447 12.7956C52.8211 12.5113 52.3975 12.4402 51.974 12.4402C51.5504 12.4402 51.1975 12.6534 50.8445 12.8667C50.3503 13.2221 48.7973 15.3547 45.8324 20.2597C45.7618 20.3308 45.7618 20.4019 45.7618 20.4019L45.4089 21.0417L44.6323 22.7478L45.0559 20.1886V20.0465C45.1265 19.62 45.2677 18.838 45.2677 18.6247L45.4089 18.056C45.6206 17.203 46.0442 15.3547 46.1148 14.9993C46.3266 13.933 46.256 13.2221 45.903 12.7956C45.6912 12.5113 45.2677 12.3691 44.7029 12.3691C43.644 12.3691 42.7263 13.2221 41.2439 15.6391C41.0321 15.9945 40.1144 17.4873 39.4085 18.6247C38.4907 20.1176 37.7142 21.2549 37.7142 21.2549L37.926 19.2645C38.0672 18.3404 38.6319 14.2174 38.6319 14.0041C38.6319 13.1511 38.2084 12.7245 37.2907 12.7245C36.9377 12.7245 36.02 12.7956 35.5964 13.5776C35.2435 14.2884 34.2552 17.4873 33.8316 22.3213C33.8316 22.3213 30.0902 26.0178 26.0664 26.0178C24.584 26.0178 23.3839 25.4491 22.9603 24.3117C22.9603 24.3117 25.0781 23.1743 26.137 22.4634C28.7489 20.6152 30.6549 18.7669 30.6549 16.35C30.6549 13.4354 27.9724 12.0848 25.784 12.3691C21.972 12.8667 18.7953 16.9187 18.7953 21.6104C18.7953 26.0178 21.1955 29.2167 25.4311 29.2167C30.302 29.2167 33.6904 25.1647 33.6904 25.1647L33.6198 27.013C33.5492 28.0082 33.9728 29.2167 35.5259 29.2167C35.9494 29.2167 36.7259 29.0745 37.1495 28.1504C39.6202 22.6056 42.2322 18.1982 42.3028 18.1982L42.7969 17.203L43.5028 16.0656L42.9381 18.5537C42.8675 19.1223 41.9498 24.0984 41.8792 26.3021C41.8086 27.4395 41.8086 28.5058 42.2322 29.0034C42.444 29.2167 42.7969 29.3588 43.2911 29.3588C44.4911 29.3588 45.1971 28.9323 45.4794 28.1504C47.3855 22.2502 49.5032 18.2693 49.5738 18.1271L50.7033 15.8524C50.7033 15.8524 49.8562 20.7573 49.8562 24.0984C49.8562 25.7334 50.1386 28.648 52.3975 29.1456C55.8566 29.9986 57.9744 26.3732 57.9744 26.3732L58.1862 27.013C59.1745 28.7191 60.7981 29.5721 62.9159 29.5721C67.2926 29.5721 70.1163 26.0889 70.1163 20.7573C70.1163 17.4163 68.6339 15.4969 68.6339 15.4969C68.6339 15.4969 70.3281 16.0656 71.5282 16.9897C72.8695 17.985 73.7872 18.9802 73.7872 18.9802V19.1934C73.7166 19.4778 73.7166 19.691 73.646 19.9754C73.5048 20.9706 73.3636 22.108 73.293 23.1743C73.2224 24.1695 73.1518 25.0936 73.1518 25.9467C73.1518 26.4443 73.1518 26.8708 73.2224 27.2973C73.293 27.7238 73.3636 28.0793 73.5048 28.4347C73.5754 28.5058 73.999 29.4299 75.0579 29.4299C75.7638 29.4299 76.2579 29.1456 76.6109 28.3636C79.9993 20.3308 82.7525 17.7006 82.9642 17.4874C83.5996 16.7765 83.3172 18.056 83.3172 18.056V18.1982C83.3172 18.1982 82.8937 20.9706 82.8231 21.7526C82.7525 22.6056 82.6819 23.3165 82.6819 24.0984C82.6819 26.3732 83.176 28.9323 85.788 29.2878C89.3176 29.8565 90.5177 27.013 90.5177 27.013C90.5177 27.013 91.7884 29.3588 94.8238 29.3588C99.2712 29.3588 100.612 25.9467 100.612 25.9467C101.107 28.0082 101.883 29.1456 103.93 29.1456C106.119 29.1456 107.601 26.6575 107.601 26.6575C107.601 26.6575 108.872 29.3588 111.907 29.3588C115.437 29.3588 117.272 26.6575 117.343 26.5154L117.767 25.8756C117.767 25.8756 118.896 28.8612 121.861 29.0034C124.685 29.0745 126.591 27.0841 126.591 27.0841ZM5.31211 28.1504C2.20603 28.0082 1.99425 25.5912 4.88855 24.9515C7.50049 24.3828 9.68887 25.3069 9.68887 25.3069C9.68887 25.3069 9.05353 28.2925 5.31211 28.1504ZM19.1483 3.34108C20.9837 3.48325 20.8425 6.04238 20.3484 7.60629C18.9365 12.298 15.4775 12.4402 15.4775 12.4402C15.4775 12.4402 16.5364 3.12782 19.1483 3.34108ZM15.1951 14.6439C15.1951 14.6439 20.9837 14.715 22.9603 7.81955C24.0898 3.7676 22.4662 0.355434 19.0777 0.284347C15.6893 0.21326 13.0067 3.26999 11.8067 12.4402C11.8067 12.4402 8.48879 12.0137 7.07693 9.38346C6.371 8.10389 5.31211 8.74367 5.66508 9.88106C6.79456 13.8619 11.5949 14.5017 11.5949 14.5017C11.5949 14.5017 11.3125 16.2789 11.0301 18.4826C10.7478 20.6152 10.2536 23.2454 10.2536 23.2454C10.2536 23.2454 7.21812 22.2502 3.90025 22.961C-1.11184 24.0273 -1.67658 30.283 4.465 30.9228C11.6655 31.6336 13.0067 26.5865 13.0067 26.5865C13.0067 26.5865 14.4186 27.2973 16.3952 29.0745C18.6542 31.0649 19.6425 32.3445 20.066 31.918C20.5602 31.4204 19.4307 29.7143 17.3835 27.5106C15.0539 25.0226 13.4303 24.3828 13.4303 24.3828C13.4303 24.3828 13.7833 22.7478 14.2068 20.1176C14.7716 17.3452 15.1951 14.6439 15.1951 14.6439Z" fill="#1C1917"/>
</svg>
