<svg width="132" height="29" viewBox="0 0 132 29" fill="none" xmlns="http://www.w3.org/2000/svg">
<path fill-rule="evenodd" clip-rule="evenodd" d="M13.917 12.618C13.917 5.7112 12.7714 2.84804 9.62172 2.84804C6.84382 2.84804 5.44068 4.85517 5.44068 11.8212C5.44068 18.6984 6.52886 21.5323 9.73618 21.5323C12.5711 21.5323 13.917 19.5544 13.917 12.618ZM0 12.4411C0 4.67794 5.18294 1.60838 9.79362 1.60838C14.7188 1.60838 19.3577 4.64866 19.3577 11.9688C19.3577 19.7906 14.1747 22.7719 9.56406 22.7719C4.63908 22.7719 0 19.5252 0 12.4411Z" fill="#1C1917"/>
<path fill-rule="evenodd" clip-rule="evenodd" d="M42.6802 12.9428L47.5762 12.6771C47.5762 9.10581 47.1184 7.80697 45.4003 7.80697C43.9398 7.80697 42.7946 9.22375 42.6802 12.9428ZM38.1563 14.6844C38.1563 9.5484 41.8496 6.68525 45.6291 6.68525C49.5344 6.68525 51.9851 8.67428 52.1246 13.878C52.1275 13.9792 52.0476 14.0645 51.949 14.0645H42.86C42.7614 14.0645 42.6817 14.1498 42.6842 14.2512C42.8122 18.9397 44.5794 20.2336 47.4903 20.2336C48.9111 20.2336 50.0566 19.8932 51.0152 19.455C51.0859 19.4226 51.1678 19.4416 51.2182 19.5024L51.5989 19.964C51.6564 20.0338 51.6556 20.1367 51.595 20.203C50.5504 21.3385 48.4241 22.7721 45.6291 22.7721C40.6471 22.7721 38.1563 19.7023 38.1563 14.6844Z" fill="#1C1917"/>
<path fill-rule="evenodd" clip-rule="evenodd" d="M97.1231 14.9205C97.1231 8.95806 96.0066 7.83645 94.0591 7.83645C92.255 7.83645 91.1955 9.19426 91.1955 14.2712C91.1955 20.3223 92.1404 21.6206 94.2307 21.6206C95.9493 21.6206 97.1231 20.5877 97.1231 14.9205ZM86.3849 14.773C86.3849 9.10559 90.2791 6.68525 94.1452 6.68525C98.2974 6.68525 101.934 9.25323 101.934 14.6253C101.934 20.2926 98.0969 22.7723 94.1452 22.7723C89.9929 22.7723 86.3849 20.1744 86.3849 14.773Z" fill="#1C1917"/>
<path fill-rule="evenodd" clip-rule="evenodd" d="M114.204 14.9205C114.204 8.95806 113.086 7.83645 111.139 7.83645C109.335 7.83645 108.276 9.19426 108.276 14.2712C108.276 20.3223 109.221 21.6206 111.311 21.6206C113.03 21.6206 114.204 20.5877 114.204 14.9205ZM103.465 14.773C103.465 9.10559 107.359 6.68525 111.226 6.68525C115.378 6.68525 119.015 9.25323 119.015 14.6253C119.015 20.2926 115.177 22.7723 111.226 22.7723C107.074 22.7723 103.465 20.1744 103.465 14.773Z" fill="#1C1917"/>
<path fill-rule="evenodd" clip-rule="evenodd" d="M63.8968 6.68518C61.8067 6.68518 59.917 7.65937 58.3995 8.78076H58.2849L58.3412 6.91979C58.3456 6.77704 58.2264 6.66389 58.089 6.67975L54.0823 7.148C53.9646 7.16163 53.8754 7.26414 53.8754 7.38644V22.1837C53.8754 22.313 53.9771 22.4176 54.1024 22.4176H58.2011C58.3262 22.4176 58.4279 22.313 58.4279 22.1837V9.81402C59.0577 9.66628 60.0886 9.43029 61.091 9.43029C62.4366 9.43029 63.0666 9.99115 63.0666 11.7917V22.1837C63.0666 22.313 63.1683 22.4176 63.2936 22.4176H67.4209C67.546 22.4176 67.6479 22.313 67.6479 22.1837V10.6407C67.6479 7.98402 66.3308 6.68518 63.8968 6.68518Z" fill="#1C1917"/>
<path fill-rule="evenodd" clip-rule="evenodd" d="M79.9344 19.7907C79.4762 19.968 78.703 20.4402 77.5289 20.4402C75.3526 20.4402 74.2072 18.9347 74.2072 14.3006C74.2072 9.43023 75.6389 7.86591 77.7006 7.86591C78.7604 7.86591 79.4476 8.48574 79.9344 9.10557V19.7907ZM84.4875 3.79269C84.4875 2.26691 84.5378 0.865138 84.5645 0.289697C84.5722 0.121407 84.4335 -0.0137778 84.2709 0.00112449L80.1466 0.483958C80.0264 0.495029 79.9344 0.598706 79.9344 0.723247V4.85533C79.9344 5.91776 79.9917 7.00988 79.9917 7.00988C79.3903 6.83276 78.5886 6.68522 77.8155 6.68522C73.3481 6.68522 69.5107 9.13527 69.5107 15.2748C69.5107 20.6467 72.2883 22.772 75.1234 22.772C77.128 22.772 78.7316 21.9456 79.9631 20.8536H80.0775L80.0194 22.4828C80.0127 22.6563 80.1598 22.7936 80.3265 22.7694L84.2553 22.3172C84.3884 22.2981 84.4875 22.1806 84.4875 22.0419V3.79269Z" fill="#1C1917"/>
<path fill-rule="evenodd" clip-rule="evenodd" d="M129.656 6.68536C127.995 6.68536 126.363 7.9842 125.475 8.95817H125.361L125.417 6.97457C125.421 6.80586 125.28 6.67153 125.117 6.69037L121.158 7.1484C121.04 7.16202 120.951 7.26453 120.951 7.38705V22.1401C120.951 22.2935 121.072 22.4178 121.22 22.4178H125.234C125.382 22.4178 125.504 22.2935 125.504 22.1401V10.1686C125.905 9.78461 126.564 9.40077 127.078 9.40077C127.336 9.40077 127.508 9.45995 127.68 9.78461C128.223 10.6996 128.655 11.2284 129.884 11.2284C131.001 11.2284 132 10.316 132 8.8992C132 7.45262 131.03 6.68536 129.656 6.68536Z" fill="#1C1917"/>
<path fill-rule="evenodd" clip-rule="evenodd" d="M28.3103 21.5913C27.3367 21.5913 26.5637 21.1485 26.0481 20.5286V9.78441C26.5063 9.6075 27.2222 9.25314 28.3675 9.25314C30.5435 9.25314 31.7749 10.7289 31.7749 14.9499C31.7749 20.3517 30.5722 21.5913 28.3103 21.5913ZM30.8585 6.68537C28.854 6.68537 27.251 7.65934 26.0481 8.72198H25.9051L25.9603 6.95585C25.9654 6.79501 25.8307 6.66674 25.6758 6.68495L21.7026 7.14798C21.5846 7.16182 21.4957 7.26454 21.4957 7.38684V28.7598C21.4957 28.903 21.6165 29.0145 21.7547 28.9985L25.8414 28.5224C25.9592 28.5088 26.0481 28.4061 26.0481 28.2838V24.2775C26.0481 23.2445 26.0198 22.477 26.0198 22.477C26.6496 22.654 27.5946 22.772 28.1958 22.772C32.9774 22.772 36.4704 20.086 36.4704 13.9464C36.4704 8.54486 33.5786 6.68537 30.8585 6.68537Z" fill="#1C1917"/>
</svg>
