<svg preserveAspectRatio="none" width="110%" height="110%" overflow="visible" style="display: block;" viewBox="0 0 2150 2150" fill="none" xmlns="http://www.w3.org/2000/svg" class="hero-line-burst-svg">
<g id="Layer_1" clip-path="url(#clip0_0_4)">
<g id="Vector">
</g>
<path id="Vector_2" d="M1242.68 1989.87L1127.97 998.34L1126.98 998.45L1241.69 1989.99" fill="var(--fill-0, #D6D3D1)"/>
<g id="Vector_3">
</g>
<path id="Vector_4" d="M1343.97 1960.02L1126.25 985.91L1125.27 986.13L1343 1960.24" fill="var(--fill-0, #D6D3D1)"/>
<g id="Vector_5">
</g>
<path id="Vector_6" d="M1441.59 1919.75L1123.23 973.73L1122.29 974.05L1440.64 1920.07" fill="var(--fill-0, #D6D3D1)"/>
<g id="Vector_7">
</g>
<path id="Vector_8" d="M1534.47 1869.49L1118.97 961.94L1118.06 962.35L1533.56 1869.91" fill="var(--fill-0, #D6D3D1)"/>
<g id="Vector_9">
</g>
<path id="Vector_10" d="M1621.58 1809.81L1113.49 950.65L1112.63 951.16L1620.72 1810.31" fill="var(--fill-0, #D6D3D1)"/>
<g id="Vector_11">
</g>
<path id="Vector_12" d="M1701.98 1741.34L1106.86 940L1106.06 940.59L1701.17 1741.93" fill="var(--fill-0, #D6D3D1)"/>
<g id="Vector_13">
</g>
<path id="Vector_14" d="M1774.77 1664.84L1099.16 930.1L1098.42 930.78L1774.04 1665.52" fill="var(--fill-0, #D6D3D1)"/>
<g id="Vector_15">
</g>
<path id="Vector_16" d="M1839.18 1581.15L1090.46 921.06L1089.8 921.81L1838.51 1581.9" fill="var(--fill-0, #D6D3D1)"/>
<g id="Vector_17">
</g>
<path id="Vector_18" d="M1894.48 1491.19L1080.87 912.97L1080.29 913.79L1893.9 1492.01" fill="var(--fill-0, #D6D3D1)"/>
<g id="Vector_19">
</g>
<path id="Vector_20" d="M1940.08 1395.94L1070.48 905.94L1069.99 906.81L1939.58 1396.82" fill="var(--fill-0, #D6D3D1)"/>
<g id="Vector_21">
</g>
<path id="Vector_22" d="M1975.47 1296.45L1059.42 900.03L1059.02 900.95L1975.07 1297.37" fill="var(--fill-0, #D6D3D1)"/>
<g id="Vector_23">
</g>
<path id="Vector_24" d="M2000.26 1193.8L1047.79 895.31L1047.49 896.26L1999.96 1194.76" fill="var(--fill-0, #D6D3D1)"/>
<g id="Vector_25">
</g>
<path id="Vector_26" d="M2014.2 1089.13L1035.74 891.83L1035.54 892.81L2014 1090.11" fill="var(--fill-0, #D6D3D1)"/>
<g id="Vector_27">
</g>
<path id="Vector_28" d="M2017.11 983.57L1023.39 889.62L1023.29 890.62L2017.01 984.56" fill="var(--fill-0, #D6D3D1)"/>
<g id="Vector_29">
</g>
<path id="Vector_30" d="M2008.97 878.28L1010.88 888.72L1010.89 889.72L2008.98 879.28" fill="var(--fill-0, #D6D3D1)"/>
<g id="Vector_31">
</g>
<path id="Vector_32" d="M1989.87 774.42L998.34 889.14L998.45 890.13L1989.99 775.42" fill="var(--fill-0, #D6D3D1)"/>
<g id="Vector_33">
</g>
<path id="Vector_34" d="M1960.02 673.13L985.91 890.86L986.13 891.83L1960.24 674.11" fill="var(--fill-0, #D6D3D1)"/>
<g id="Vector_35">
</g>
<path id="Vector_36" d="M1919.75 575.51L973.73 893.87L974.05 894.82L1920.07 576.46" fill="var(--fill-0, #D6D3D1)"/>
<g id="Vector_37">
</g>
<path id="Vector_38" d="M1869.5 482.64L961.939 898.14L962.349 899.05L1869.91 483.55" fill="var(--fill-0, #D6D3D1)"/>
<g id="Vector_39">
</g>
<path id="Vector_40" d="M1809.8 395.53L950.65 903.62L951.16 904.48L1810.31 396.39" fill="var(--fill-0, #D6D3D1)"/>
<g id="Vector_41">
</g>
<path id="Vector_42" d="M1741.34 315.13L940 910.24L940.59 911.05L1741.93 315.93" fill="var(--fill-0, #D6D3D1)"/>
<g id="Vector_43">
</g>
<path id="Vector_44" d="M1664.84 242.33L930.1 917.95L930.77 918.69L1665.52 243.07" fill="var(--fill-0, #D6D3D1)"/>
<g id="Vector_45">
</g>
<path id="Vector_46" d="M1581.15 177.93L921.061 926.64L921.801 927.31L1581.9 178.59" fill="var(--fill-0, #D6D3D1)"/>
<g id="Vector_47">
</g>
<path id="Vector_48" d="M1491.19 122.63L912.971 936.24L913.791 936.82L1492.01 123.21" fill="var(--fill-0, #D6D3D1)"/>
<g id="Vector_49">
</g>
<path id="Vector_50" d="M1395.94 77.0303L905.939 946.63L906.809 947.12L1396.81 77.5203" fill="var(--fill-0, #D6D3D1)"/>
<g id="Vector_51">
</g>
<path id="Vector_52" d="M1296.45 41.6396L900.029 957.69L900.949 958.09L1297.37 42.0396" fill="var(--fill-0, #D6D3D1)"/>
<g id="Vector_53">
</g>
<path id="Vector_54" d="M1193.8 16.8398L895.311 969.32L896.261 969.61L1194.76 17.1398" fill="var(--fill-0, #D6D3D1)"/>
<g id="Vector_55">
</g>
<path id="Vector_56" d="M1089.13 2.91L891.83 981.37L892.81 981.57L1090.11 3.11" fill="var(--fill-0, #D6D3D1)"/>
<g id="Vector_57">
</g>
<path id="Vector_58" d="M983.569 0L889.619 993.72L890.619 993.81L984.559 0.09" fill="var(--fill-0, #D6D3D1)"/>
<g id="Vector_59">
</g>
<path id="Vector_60" d="M878.279 8.13988L888.719 1006.23L889.719 1006.22L879.279 8.12988" fill="var(--fill-0, #D6D3D1)"/>
<g id="Vector_61">
</g>
<path id="Vector_62" d="M774.42 27.23L889.14 1018.77L890.13 1018.65L775.42 27.12" fill="var(--fill-0, #D6D3D1)"/>
<g id="Vector_63">
</g>
<path id="Vector_64" d="M673.131 57.0801L890.861 1031.2L891.841 1030.98L674.111 56.8701" fill="var(--fill-0, #D6D3D1)"/>
<g id="Vector_65">
</g>
<path id="Vector_66" d="M575.51 97.36L893.87 1043.37L894.82 1043.06L576.46 97.04" fill="var(--fill-0, #D6D3D1)"/>
<g id="Vector_67">
</g>
<path id="Vector_68" d="M482.641 147.61L898.141 1055.17L899.051 1054.75L483.551 147.2" fill="var(--fill-0, #D6D3D1)"/>
<g id="Vector_69">
</g>
<path id="Vector_70" d="M395.529 207.3L903.619 1066.46L904.479 1065.95L396.389 206.79" fill="var(--fill-0, #D6D3D1)"/>
<g id="Vector_71">
</g>
<path id="Vector_72" d="M315.131 275.77L910.241 1077.11L911.051 1076.51L315.931 275.17" fill="var(--fill-0, #D6D3D1)"/>
<g id="Vector_73">
</g>
<path id="Vector_74" d="M242.33 352.27L917.95 1087.01L918.69 1086.33L243.07 351.59" fill="var(--fill-0, #D6D3D1)"/>
<g id="Vector_75">
</g>
<path id="Vector_76" d="M177.93 435.95L926.65 1096.05L927.31 1095.3L178.59 435.2" fill="var(--fill-0, #D6D3D1)"/>
<g id="Vector_77">
</g>
<path id="Vector_78" d="M122.631 525.91L936.241 1104.13L936.821 1103.32L123.211 525.1" fill="var(--fill-0, #D6D3D1)"/>
<g id="Vector_79">
</g>
<path id="Vector_80" d="M77.0293 621.16L946.629 1111.17L947.119 1110.3L77.5193 620.29" fill="var(--fill-0, #D6D3D1)"/>
<g id="Vector_81">
</g>
<path id="Vector_82" d="M41.6406 720.66L957.691 1117.08L958.091 1116.16L42.0406 719.74" fill="var(--fill-0, #D6D3D1)"/>
<g id="Vector_83">
</g>
<path id="Vector_84" d="M16.8398 823.3L969.32 1121.8L969.61 1120.85L17.1398 822.35" fill="var(--fill-0, #D6D3D1)"/>
<g id="Vector_85">
</g>
<path id="Vector_86" d="M2.91 927.98L981.37 1125.28L981.56 1124.3L3.11 927" fill="var(--fill-0, #D6D3D1)"/>
<g id="Vector_87">
</g>
<path id="Vector_88" d="M0 1033.54L993.72 1127.48L993.81 1126.49L0.09 1032.54" fill="var(--fill-0, #D6D3D1)"/>
<g id="Vector_89">
</g>
<path id="Vector_90" d="M8.12914 1138.82L1006.23 1128.38L1006.22 1127.38L8.11914 1137.82" fill="var(--fill-0, #D6D3D1)"/>
<g id="Vector_91">
</g>
<path id="Vector_92" d="M27.2291 1242.68L1018.77 1127.97L1018.65 1126.98L27.1191 1241.69" fill="var(--fill-0, #D6D3D1)"/>
<g id="Vector_93">
</g>
<path id="Vector_94" d="M57.0794 1343.98L1031.19 1126.25L1030.98 1125.27L56.8594 1343" fill="var(--fill-0, #D6D3D1)"/>
<g id="Vector_95">
</g>
<path id="Vector_96" d="M97.3591 1441.59L1043.37 1123.24L1043.05 1122.29L97.0391 1440.65" fill="var(--fill-0, #D6D3D1)"/>
<g id="Vector_97">
</g>
<path id="Vector_98" d="M147.609 1534.47L1055.17 1118.97L1054.75 1118.06L147.199 1533.56" fill="var(--fill-0, #D6D3D1)"/>
<g id="Vector_99">
</g>
<path id="Vector_100" d="M207.299 1621.58L1066.46 1113.49L1065.95 1112.63L206.789 1620.72" fill="var(--fill-0, #D6D3D1)"/>
<g id="Vector_101">
</g>
<path id="Vector_102" d="M275.77 1701.98L1077.11 1106.86L1076.51 1106.06L275.18 1701.17" fill="var(--fill-0, #D6D3D1)"/>
<g id="Vector_103">
</g>
<path id="Vector_104" d="M352.27 1774.77L1087.01 1099.16L1086.33 1098.42L351.59 1774.04" fill="var(--fill-0, #D6D3D1)"/>
<g id="Vector_105">
</g>
<path id="Vector_106" d="M435.949 1839.17L1096.05 1090.46L1095.3 1089.8L435.199 1838.51" fill="var(--fill-0, #D6D3D1)"/>
<g id="Vector_107">
</g>
<path id="Vector_108" d="M525.91 1894.48L1104.13 1080.87L1103.32 1080.29L525.1 1893.9" fill="var(--fill-0, #D6D3D1)"/>
<g id="Vector_109">
</g>
<path id="Vector_110" d="M621.159 1940.08L1111.17 1070.48L1110.3 1069.99L620.289 1939.58" fill="var(--fill-0, #D6D3D1)"/>
<g id="Vector_111">
</g>
<path id="Vector_112" d="M720.65 1975.46L1117.08 1059.41L1116.16 1059.02L719.74 1975.07" fill="var(--fill-0, #D6D3D1)"/>
<g id="Vector_113">
</g>
<path id="Vector_114" d="M823.3 2000.26L1121.8 1047.79L1120.85 1047.49L822.35 1999.96" fill="var(--fill-0, #D6D3D1)"/>
<g id="Vector_115">
</g>
<path id="Vector_116" d="M927.98 2014.19L1125.28 1035.74L1124.3 1035.54L927 2013.99" fill="var(--fill-0, #D6D3D1)"/>
<g id="Vector_117">
</g>
<path id="Vector_118" d="M1033.54 2017.11L1127.48 1023.39L1126.49 1023.29L1032.54 2017.01" fill="var(--fill-0, #D6D3D1)"/>
<g id="Vector_119">
</g>
<path id="Vector_120" d="M1138.82 2008.97L1128.38 1010.88H1127.38L1137.82 2008.98" fill="var(--fill-0, #D6D3D1)"/>
</g>
<defs>
<clipPath id="clip0_0_4">
<rect width="2150" height="2150" fill="white"/>
</clipPath>
</defs>
</svg>
